<svg width="421" height="124" viewBox="0 0 421 124" fill="none" xmlns="http://www.w3.org/2000/svg">
<path d="M4.75 123.365V107.628C4.75 106.792 0 106.789 0 107.628V123.373C0 124.209 4.75 124.209 4.75 123.373V123.365Z" fill="#202124"/>
<path d="M52.1664 78H357.83C359.388 78 359.392 74 357.83 74H320.824C319.266 74 319.266 78 320.824 78H357.83C359.388 78 359.392 74 357.83 74H52.1664C50.6136 74 50.6088 78 52.1664 78Z" fill="#202124"/>
<path d="M4.42187 109.428C5.12236 105.223 6.37743 101.102 8.16197 97.1494C9.74993 93.4398 11.9936 89.9713 14.811 86.8709C16.408 85.2885 18.3449 83.9963 20.5115 83.0678C22.6556 82.0301 24.8599 81.0906 27.1154 80.2531C31.8045 78.6427 36.804 77.8374 41.841 77.8811C47.7221 77.8258 53.5852 78.3397 59.4754 78.0235C62.3663 77.8653 62.3844 73.9121 59.4754 74.0702C48.5262 74.6632 37.4323 72.6074 26.8806 76.118C24.3607 76.9764 21.8993 77.9611 19.5088 79.0671C17.0764 80.062 14.8264 81.3676 12.8326 82.9413C9.3364 85.93 6.81589 90.0572 4.8555 93.9077C2.52642 98.524 0.916012 103.393 0.0674429 108.385C-0.0744 108.889 0.0093066 109.423 0.301455 109.875C0.593604 110.328 1.07216 110.666 1.63937 110.82C2.21789 110.956 2.83441 110.887 3.35528 110.628C3.87614 110.369 4.25938 109.941 4.42187 109.436V109.428Z" fill="#202124"/>
<path d="M416.369 42.4492C415.605 46.7819 414.196 51.0083 412.177 55.0206C410.253 58.7762 407.814 62.6583 404.471 65.5996C402.678 67.0425 400.619 68.2105 398.382 69.0547C396.014 70.098 393.583 71.0297 391.101 71.8457C386.049 73.3558 380.736 74.0862 375.399 74.0042C369.22 74.0042 363.032 73.5536 356.843 73.8619C353.962 74.0121 353.934 77.9654 356.843 77.8152C368.38 77.2301 380.115 79.2621 391.326 75.9492C393.996 75.1355 396.608 74.185 399.15 73.1029C401.664 72.1573 404.041 70.9551 406.233 69.5212C410.235 66.7065 413.126 62.4053 415.339 58.3888C417.973 53.6837 419.799 48.6644 420.759 43.4929C420.898 42.9882 420.812 42.4561 420.518 42.0051C420.225 41.5541 419.745 41.2181 419.178 41.0655C418.601 40.9274 417.985 40.9956 417.465 41.255C416.944 41.5145 416.563 41.944 416.405 42.4492H416.369Z" fill="#202124"/>
<path d="M420.804 42.9709V-4.95071C420.804 -7.48871 416.287 -7.49662 416.287 -4.95071V42.9709C416.287 45.5168 420.804 45.5168 420.804 42.9709Z" fill="#202124"/>
</svg>
