<svg width="1920" height="1080" viewBox="0 0 1920 1080" fill="none" xmlns="http://www.w3.org/2000/svg">
<g opacity="0.6">
<rect x="2.99854" y="-0.752289" width="272" height="272" fill="#EBF7FF" stroke="#CDFFFF"/>
<rect x="275.999" y="-0.752289" width="273" height="272" fill="white" stroke="#CDFFFF"/>
<rect x="549.999" y="-0.752289" width="272" height="272" fill="#EBF7FF" stroke="#CDFFFF"/>
<rect x="822.999" y="-0.752289" width="273" height="272" fill="white" stroke="#CDFFFF"/>
<rect x="1097" y="-0.752289" width="272" height="272" fill="#EBF7FF" stroke="#CDFFFF"/>
<rect x="1370" y="-0.752289" width="273" height="272" fill="white" stroke="#CDFFFF"/>
<rect x="1644" y="-0.752289" width="272" height="272" fill="#EBF7FF" stroke="#CDFFFF"/>
</g>
<g opacity="0.6">
<rect x="277.357" y="269.743" width="272" height="272" fill="#EBF7FF" stroke="#CDFFFF"/>
<rect x="550.357" y="269.743" width="273" height="272" fill="white" stroke="#CDFFFF"/>
<rect x="824.358" y="269.743" width="272" height="272" fill="#EBF7FF" stroke="#CDFFFF"/>
<rect x="1097.36" y="269.743" width="273" height="272" fill="white" stroke="#CDFFFF"/>
<rect x="1371.36" y="269.743" width="272" height="272" fill="#EBF7FF" stroke="#CDFFFF"/>
<rect x="1644.36" y="269.743" width="273" height="272" fill="white" stroke="#CDFFFF"/>
</g>
<g opacity="0.6">
<rect x="2.99854" y="539.248" width="272" height="272" fill="#EBF7FF" stroke="#CDFFFF"/>
<rect x="275.999" y="539.248" width="273" height="272" fill="white" stroke="#CDFFFF"/>
<rect x="549.999" y="539.248" width="272" height="272" fill="#EBF7FF" stroke="#CDFFFF"/>
<rect x="822.999" y="539.248" width="273" height="272" fill="white" stroke="#CDFFFF"/>
<rect x="1097" y="539.248" width="272" height="272" fill="#EBF7FF" stroke="#CDFFFF"/>
<rect x="1370" y="539.248" width="273" height="272" fill="white" stroke="#CDFFFF"/>
<rect x="1644" y="539.248" width="272" height="272" fill="#EBF7FF" stroke="#CDFFFF"/>
</g>
<g opacity="0.6">
<rect x="277.357" y="808.752" width="272" height="272" fill="#EBF7FF" stroke="#CDFFFF"/>
<rect x="550.357" y="808.752" width="273" height="272" fill="white" stroke="#CDFFFF"/>
<rect x="824.358" y="808.752" width="272" height="272" fill="#EBF7FF" stroke="#CDFFFF"/>
<rect x="1097.36" y="808.752" width="273" height="272" fill="white" stroke="#CDFFFF"/>
<rect x="1371.36" y="808.752" width="272" height="272" fill="#EBF7FF" stroke="#CDFFFF"/>
<rect x="1644.36" y="808.752" width="273" height="272" fill="white" stroke="#CDFFFF"/>
</g>
</svg>
