<svg width="1920" height="924" viewBox="0 0 1920 924" fill="none" xmlns="http://www.w3.org/2000/svg">
<mask id="path-1-outside-1_476_62" maskUnits="userSpaceOnUse" x="1582" y="54" width="328" height="104" fill="black">
<rect fill="white" x="1582" y="54" width="328" height="104"/>
<path d="M1636 134V156H1584.06V134H1594.06V78.5625H1584.06V56.5625H1636V78.5625H1626.06V134H1636ZM1720.81 111.812L1708.19 156H1674.62L1652.88 78.5625H1642.62V56.4375H1698.31V78.5625H1688.81L1698.81 114L1715.06 56.4375H1740.69L1756.44 112.125L1766.12 78.5625H1757.44V56.4375H1798.69V78.5625H1788.19L1766.81 156H1732.88L1720.81 111.812ZM1851.62 156H1805.69V134H1815.69V78.5625H1805.69V56.5625H1851.75C1869.83 56.5625 1883.67 60.75 1893.25 69.125C1902.88 77.4583 1907.69 89.8125 1907.69 106.188C1907.69 122.146 1902.92 134.438 1893.38 143.062C1883.83 151.688 1869.92 156 1851.62 156ZM1847.69 78.5625V134H1851.62C1856.29 134 1860.1 132.812 1863.06 130.438C1866.02 128.021 1868.21 124.708 1869.62 120.5C1871.04 116.292 1871.75 111.521 1871.75 106.188C1871.75 98.0208 1870.17 91.375 1867 86.25C1863.83 81.125 1858.71 78.5625 1851.62 78.5625H1847.69Z"/>
</mask>
<path d="M1636 134H1638V132H1636V134ZM1636 156V158H1638V156H1636ZM1584.06 156H1582.06V158H1584.06V156ZM1584.06 134V132H1582.06V134H1584.06ZM1594.06 134V136H1596.06V134H1594.06ZM1594.06 78.5625H1596.06V76.5625H1594.06V78.5625ZM1584.06 78.5625H1582.06V80.5625H1584.06V78.5625ZM1584.06 56.5625V54.5625H1582.06V56.5625H1584.06ZM1636 56.5625H1638V54.5625H1636V56.5625ZM1636 78.5625V80.5625H1638V78.5625H1636ZM1626.06 78.5625V76.5625H1624.06V78.5625H1626.06ZM1626.06 134H1624.06V136H1626.06V134ZM1634 134V156H1638V134H1634ZM1636 154H1584.06V158H1636V154ZM1586.06 156V134H1582.06V156H1586.06ZM1584.06 136H1594.06V132H1584.06V136ZM1596.06 134V78.5625H1592.06V134H1596.06ZM1594.06 76.5625H1584.06V80.5625H1594.06V76.5625ZM1586.06 78.5625V56.5625H1582.06V78.5625H1586.06ZM1584.06 58.5625H1636V54.5625H1584.06V58.5625ZM1634 56.5625V78.5625H1638V56.5625H1634ZM1636 76.5625H1626.06V80.5625H1636V76.5625ZM1624.06 78.5625V134H1628.06V78.5625H1624.06ZM1626.06 136H1636V132H1626.06V136ZM1720.81 111.812L1722.74 111.286L1720.86 104.379L1718.89 111.263L1720.81 111.812ZM1708.19 156V158H1709.7L1710.11 156.549L1708.19 156ZM1674.62 156L1672.7 156.541L1673.11 158H1674.62V156ZM1652.88 78.5625L1654.8 78.0217L1654.39 76.5625H1652.88V78.5625ZM1642.62 78.5625H1640.62V80.5625H1642.62V78.5625ZM1642.62 56.4375V54.4375H1640.62V56.4375H1642.62ZM1698.31 56.4375H1700.31V54.4375H1698.31V56.4375ZM1698.31 78.5625V80.5625H1700.31V78.5625H1698.31ZM1688.81 78.5625V76.5625H1686.17L1686.89 79.1057L1688.81 78.5625ZM1698.81 114L1696.89 114.543L1698.81 121.363L1700.74 114.543L1698.81 114ZM1715.06 56.4375V54.4375H1713.55L1713.14 55.8941L1715.06 56.4375ZM1740.69 56.4375L1742.61 55.8932L1742.2 54.4375H1740.69V56.4375ZM1756.44 112.125L1754.51 112.669L1756.42 119.405L1758.36 112.68L1756.44 112.125ZM1766.12 78.5625L1768.05 79.1171L1768.78 76.5625H1766.12V78.5625ZM1757.44 78.5625H1755.44V80.5625H1757.44V78.5625ZM1757.44 56.4375V54.4375H1755.44V56.4375H1757.44ZM1798.69 56.4375H1800.69V54.4375H1798.69V56.4375ZM1798.69 78.5625V80.5625H1800.69V78.5625H1798.69ZM1788.19 78.5625V76.5625H1786.66L1786.26 78.0303L1788.19 78.5625ZM1766.81 156V158H1768.34L1768.74 156.532L1766.81 156ZM1732.88 156L1730.95 156.527L1731.35 158H1732.88V156ZM1718.89 111.263L1706.26 155.451L1710.11 156.549L1722.74 112.362L1718.89 111.263ZM1708.19 154H1674.62V158H1708.19V154ZM1676.55 155.459L1654.8 78.0217L1650.95 79.1033L1672.7 156.541L1676.55 155.459ZM1652.88 76.5625H1642.62V80.5625H1652.88V76.5625ZM1644.62 78.5625V56.4375H1640.62V78.5625H1644.62ZM1642.62 58.4375H1698.31V54.4375H1642.62V58.4375ZM1696.31 56.4375V78.5625H1700.31V56.4375H1696.31ZM1698.31 76.5625H1688.81V80.5625H1698.31V76.5625ZM1686.89 79.1057L1696.89 114.543L1700.74 113.457L1690.74 78.0193L1686.89 79.1057ZM1700.74 114.543L1716.99 56.9809L1713.14 55.8941L1696.89 113.457L1700.74 114.543ZM1715.06 58.4375H1740.69V54.4375H1715.06V58.4375ZM1738.76 56.9818L1754.51 112.669L1758.36 111.581L1742.61 55.8932L1738.76 56.9818ZM1758.36 112.68L1768.05 79.1171L1764.2 78.0079L1754.52 111.57L1758.36 112.68ZM1766.12 76.5625H1757.44V80.5625H1766.12V76.5625ZM1759.44 78.5625V56.4375H1755.44V78.5625H1759.44ZM1757.44 58.4375H1798.69V54.4375H1757.44V58.4375ZM1796.69 56.4375V78.5625H1800.69V56.4375H1796.69ZM1798.69 76.5625H1788.19V80.5625H1798.69V76.5625ZM1786.26 78.0303L1764.88 155.468L1768.74 156.532L1790.12 79.0947L1786.26 78.0303ZM1766.81 154H1732.88V158H1766.81V154ZM1734.8 155.473L1722.74 111.286L1718.88 112.339L1730.95 156.527L1734.8 155.473ZM1805.69 156H1803.69V158H1805.69V156ZM1805.69 134V132H1803.69V134H1805.69ZM1815.69 134V136H1817.69V134H1815.69ZM1815.69 78.5625H1817.69V76.5625H1815.69V78.5625ZM1805.69 78.5625H1803.69V80.5625H1805.69V78.5625ZM1805.69 56.5625V54.5625H1803.69V56.5625H1805.69ZM1893.25 69.125L1891.93 70.631L1891.94 70.637L1893.25 69.125ZM1847.69 78.5625V76.5625H1845.69V78.5625H1847.69ZM1847.69 134H1845.69V136H1847.69V134ZM1863.06 130.438L1864.31 131.997L1864.32 131.992L1864.33 131.986L1863.06 130.438ZM1867 86.25L1865.3 87.3013L1867 86.25ZM1851.62 154H1805.69V158H1851.62V154ZM1807.69 156V134H1803.69V156H1807.69ZM1805.69 136H1815.69V132H1805.69V136ZM1817.69 134V78.5625H1813.69V134H1817.69ZM1815.69 76.5625H1805.69V80.5625H1815.69V76.5625ZM1807.69 78.5625V56.5625H1803.69V78.5625H1807.69ZM1805.69 58.5625H1851.75V54.5625H1805.69V58.5625ZM1851.75 58.5625C1869.55 58.5625 1882.84 62.6859 1891.93 70.631L1894.57 67.619C1884.49 58.8141 1870.12 54.5625 1851.75 54.5625V58.5625ZM1891.94 70.637C1901.01 78.4877 1905.69 90.215 1905.69 106.188H1909.69C1909.69 89.41 1904.74 76.4289 1894.56 67.613L1891.94 70.637ZM1905.69 106.188C1905.69 121.727 1901.06 133.421 1892.03 141.579L1894.72 144.546C1904.77 135.454 1909.69 122.565 1909.69 106.188H1905.69ZM1892.03 141.579C1882.99 149.754 1869.63 154 1851.62 154V158C1870.2 158 1884.68 153.621 1894.72 144.546L1892.03 141.579ZM1845.69 78.5625V134H1849.69V78.5625H1845.69ZM1847.69 136H1851.62V132H1847.69V136ZM1851.62 136C1856.64 136 1860.93 134.718 1864.31 131.997L1861.81 128.878C1859.28 130.907 1855.94 132 1851.62 132V136ZM1864.33 131.986C1867.62 129.295 1870 125.644 1871.52 121.138L1867.73 119.862C1866.41 123.772 1864.42 126.747 1861.8 128.889L1864.33 131.986ZM1871.52 121.138C1873.02 116.688 1873.75 111.696 1873.75 106.188H1869.75C1869.75 111.346 1869.06 115.896 1867.73 119.862L1871.52 121.138ZM1873.75 106.188C1873.75 97.7772 1872.12 90.733 1868.7 85.1987L1865.3 87.3013C1868.21 92.017 1869.75 98.2645 1869.75 106.188H1873.75ZM1868.7 85.1987C1865.1 79.3718 1859.26 76.5625 1851.62 76.5625V80.5625C1858.16 80.5625 1862.57 82.8782 1865.3 87.3013L1868.7 85.1987ZM1851.62 76.5625H1847.69V80.5625H1851.62V76.5625Z" fill="black" mask="url(#path-1-outside-1_476_62)"/>
<path d="M1841.05 356.622C1841.85 357.383 1841.85 358.617 1841.05 359.378L1815.41 383.751C1814.61 384.512 1813.31 384.512 1812.51 383.751L1786.87 359.378C1786.07 358.617 1786.07 357.383 1786.87 356.622L1812.51 332.249C1813.31 331.488 1814.61 331.488 1815.41 332.249L1841.05 356.622Z" fill="#1A1B1F"/>
<path fill-rule="evenodd" clip-rule="evenodd" d="M1862 147.5C1834.66 147.5 1812.5 169.662 1812.5 197V199V292.547V373.44V432V505C1812.5 530.681 1791.68 551.5 1766 551.5H470V554.5H1766C1793.34 554.5 1815.5 532.338 1815.5 505V432V373.44V292.547V199V197C1815.5 171.319 1836.32 150.5 1862 150.5H1940V147.5H1862Z" fill="#1A1B1F"/>
<g filter="url(#filter0_d_476_62)">
<mask id="path-5-outside-2_476_62" maskUnits="userSpaceOnUse" x="211" y="474.804" width="253" height="139" fill="black">
<rect fill="white" x="211" y="474.804" width="253" height="139"/>
<path d="M328.754 611.804H217.133V582.214C229.372 577.526 239.854 571.602 248.578 564.441C253.786 559.948 257.986 555.879 261.176 552.234C264.366 548.588 266.677 544.877 268.109 541.101C269.607 537.325 270.355 533.028 270.355 528.21C270.355 523.523 269.021 519.551 266.352 516.296C263.682 513.041 260.492 511.413 256.781 511.413C252.615 511.413 249.392 512.715 247.113 515.319C244.835 517.924 243.695 521.211 243.695 525.183C243.695 527.461 244.281 529.773 245.453 532.116C246.69 534.46 248.122 536.413 249.75 537.976L227.777 554.968C223.22 550.997 219.574 545.691 216.84 539.05C214.366 532.995 213.129 527.071 213.129 521.276V518.933C213.129 510.99 215.375 503.959 219.867 497.839C224.424 491.524 230.87 486.576 239.203 482.995C247.536 479.415 257.042 477.624 267.719 477.624C277.94 477.624 286.99 479.48 294.867 483.191C302.81 486.901 308.995 492.142 313.422 498.913C317.914 505.619 320.16 513.236 320.16 521.765C320.16 529.773 317.849 537.357 313.227 544.519C308.604 551.745 303.461 557.832 297.797 562.78C292.133 567.728 285.655 572.872 278.363 578.21L274.555 580.847H290.375C296.755 580.717 301.833 579.707 305.609 577.819C309.451 575.931 311.371 572.123 311.371 566.394H328.168L328.754 611.804ZM450.629 583.581V611.804H381.879V583.581H394.184V570.788H342.23V544.616L396.039 480.847H438.812V545.788L461.078 545.593V570.788H438.812V583.581H450.629ZM394.184 522.839L375.824 545.593H394.184V522.839Z"/>
</mask>
<path d="M328.754 611.804V613.804H330.78L330.754 611.778L328.754 611.804ZM217.133 611.804H215.133V613.804H217.133V611.804ZM217.133 582.214L216.418 580.346L215.133 580.838V582.214H217.133ZM248.578 564.441L249.847 565.986L249.866 565.971L249.884 565.955L248.578 564.441ZM268.109 541.101L266.25 540.363L266.245 540.377L266.239 540.391L268.109 541.101ZM245.453 532.116L243.664 533.011L243.674 533.03L243.684 533.05L245.453 532.116ZM249.75 537.976L250.973 539.558L252.808 538.139L251.135 536.533L249.75 537.976ZM227.777 554.968L226.463 556.476L227.702 557.555L229.001 556.55L227.777 554.968ZM216.84 539.05L214.988 539.806L214.99 539.811L216.84 539.05ZM219.867 497.839L221.479 499.022L221.484 499.016L221.489 499.009L219.867 497.839ZM239.203 482.995L239.993 484.833L239.203 482.995ZM294.867 483.191L294.015 485L294.021 485.003L294.867 483.191ZM313.422 498.913L311.748 500.008L311.754 500.017L311.76 500.026L313.422 498.913ZM313.227 544.519L311.546 543.434L311.542 543.441L313.227 544.519ZM297.797 562.78L296.481 561.274L297.797 562.78ZM278.363 578.21L279.502 579.854L279.523 579.839L279.545 579.824L278.363 578.21ZM274.555 580.847L273.416 579.202L268.152 582.847H274.555V580.847ZM290.375 580.847V582.847H290.395L290.416 582.846L290.375 580.847ZM305.609 577.819L304.727 576.025L304.715 576.031L305.609 577.819ZM311.371 566.394V564.394H309.371V566.394H311.371ZM328.168 566.394L330.168 566.368L330.142 564.394H328.168V566.394ZM328.754 609.804H217.133V613.804H328.754V609.804ZM219.133 611.804V582.214H215.133V611.804H219.133ZM217.848 584.082C230.257 579.329 240.933 573.304 249.847 565.986L247.309 562.895C238.776 569.9 228.488 575.723 216.418 580.346L217.848 584.082ZM249.884 565.955C255.137 561.425 259.41 557.289 262.681 553.551L259.671 550.917C256.562 554.47 252.436 558.472 247.272 562.926L249.884 565.955ZM262.681 553.551C265.997 549.76 268.448 545.848 269.979 541.81L266.239 540.391C264.907 543.905 262.734 547.415 259.671 550.917L262.681 553.551ZM269.969 541.838C271.575 537.788 272.355 533.234 272.355 528.21H268.355C268.355 532.821 267.639 536.861 266.25 540.363L269.969 541.838ZM272.355 528.21C272.355 523.116 270.894 518.682 267.898 515.028L264.805 517.564C267.148 520.421 268.355 523.929 268.355 528.21H272.355ZM267.898 515.028C264.906 511.379 261.176 509.413 256.781 509.413V513.413C259.808 513.413 262.458 514.702 264.805 517.564L267.898 515.028ZM256.781 509.413C252.166 509.413 248.344 510.876 245.608 514.002L248.618 516.636C250.44 514.555 253.063 513.413 256.781 513.413V509.413ZM245.608 514.002C242.964 517.025 241.695 520.803 241.695 525.183H245.695C245.695 521.62 246.706 518.823 248.618 516.636L245.608 514.002ZM241.695 525.183C241.695 527.815 242.374 530.431 243.664 533.011L247.242 531.222C246.188 529.114 245.695 527.107 245.695 525.183H241.695ZM243.684 533.05C245.004 535.551 246.559 537.685 248.365 539.418L251.135 536.533C249.686 535.142 248.376 533.37 247.222 531.183L243.684 533.05ZM248.527 536.394L226.554 553.386L229.001 556.55L250.973 539.558L248.527 536.394ZM229.091 553.46C224.808 549.728 221.327 544.696 218.689 538.288L214.99 539.811C217.821 546.685 221.632 552.266 226.463 556.476L229.091 553.46ZM218.691 538.293C216.303 532.448 215.129 526.78 215.129 521.276H211.129C211.129 527.361 212.429 533.542 214.988 539.806L218.691 538.293ZM215.129 521.276V518.933H211.129V521.276H215.129ZM215.129 518.933C215.129 511.395 217.251 504.783 221.479 499.022L218.255 496.656C213.499 503.135 211.129 510.585 211.129 518.933H215.129ZM221.489 499.009C225.802 493.033 231.937 488.294 239.993 484.833L238.414 481.158C229.803 484.858 223.047 490.014 218.245 496.669L221.489 499.009ZM239.993 484.833C248.036 481.376 257.266 479.624 267.719 479.624V475.624C256.818 475.624 247.036 477.453 238.414 481.158L239.993 484.833ZM267.719 479.624C277.696 479.624 286.446 481.434 294.015 485L295.72 481.381C287.533 477.525 278.184 475.624 267.719 475.624V479.624ZM294.021 485.003C301.655 488.57 307.542 493.574 311.748 500.008L315.096 497.819C310.448 490.71 303.964 485.233 295.714 481.379L294.021 485.003ZM311.76 500.026C316.019 506.384 318.16 513.609 318.16 521.765H322.16C322.16 512.863 319.809 504.854 315.083 497.8L311.76 500.026ZM318.16 521.765C318.16 529.363 315.974 536.574 311.546 543.434L314.907 545.603C319.724 538.14 322.16 530.183 322.16 521.765H318.16ZM311.542 543.441C307.007 550.53 301.984 556.467 296.481 561.274L299.113 564.287C304.938 559.198 310.201 552.961 314.911 545.596L311.542 543.441ZM296.481 561.274C290.868 566.178 284.436 571.285 277.182 576.596L279.545 579.824C286.874 574.458 293.398 569.279 299.113 564.287L296.481 561.274ZM277.225 576.566L273.416 579.202L275.693 582.491L279.502 579.854L277.225 576.566ZM274.555 582.847H290.375V578.847H274.555V582.847ZM290.416 582.846C296.955 582.713 302.362 581.679 306.504 579.608L304.715 576.031C301.305 577.736 296.556 578.72 290.334 578.847L290.416 582.846ZM306.492 579.614C311.252 577.275 313.371 572.583 313.371 566.394H309.371C309.371 571.663 307.649 574.588 304.727 576.025L306.492 579.614ZM311.371 568.394H328.168V564.394H311.371V568.394ZM326.168 566.419L326.754 611.83L330.754 611.778L330.168 566.368L326.168 566.419ZM450.629 583.581H452.629V581.581H450.629V583.581ZM450.629 611.804V613.804H452.629V611.804H450.629ZM381.879 611.804H379.879V613.804H381.879V611.804ZM381.879 583.581V581.581H379.879V583.581H381.879ZM394.184 583.581V585.581H396.184V583.581H394.184ZM394.184 570.788H396.184V568.788H394.184V570.788ZM342.23 570.788H340.23V572.788H342.23V570.788ZM342.23 544.616L340.702 543.327L340.23 543.885V544.616H342.23ZM396.039 480.847V478.847H395.11L394.511 479.557L396.039 480.847ZM438.812 480.847H440.812V478.847H438.812V480.847ZM438.812 545.788H436.812V547.806L438.83 547.788L438.812 545.788ZM461.078 545.593H463.078V543.575L461.061 543.593L461.078 545.593ZM461.078 570.788V572.788H463.078V570.788H461.078ZM438.812 570.788V568.788H436.812V570.788H438.812ZM438.812 583.581H436.812V585.581H438.812V583.581ZM394.184 522.839H396.184V517.175L392.627 521.583L394.184 522.839ZM375.824 545.593L374.268 544.337L371.641 547.593H375.824V545.593ZM394.184 545.593V547.593H396.184V545.593H394.184ZM448.629 583.581V611.804H452.629V583.581H448.629ZM450.629 609.804H381.879V613.804H450.629V609.804ZM383.879 611.804V583.581H379.879V611.804H383.879ZM381.879 585.581H394.184V581.581H381.879V585.581ZM396.184 583.581V570.788H392.184V583.581H396.184ZM394.184 568.788H342.23V572.788H394.184V568.788ZM344.23 570.788V544.616H340.23V570.788H344.23ZM343.759 545.906L397.568 482.137L394.511 479.557L340.702 543.327L343.759 545.906ZM396.039 482.847H438.812V478.847H396.039V482.847ZM436.812 480.847V545.788H440.812V480.847H436.812ZM438.83 547.788L461.096 547.593L461.061 543.593L438.795 543.788L438.83 547.788ZM459.078 545.593V570.788H463.078V545.593H459.078ZM461.078 568.788H438.812V572.788H461.078V568.788ZM436.812 570.788V583.581H440.812V570.788H436.812ZM438.812 585.581H450.629V581.581H438.812V585.581ZM392.627 521.583L374.268 544.337L377.381 546.849L395.74 524.095L392.627 521.583ZM375.824 547.593H394.184V543.593H375.824V547.593ZM396.184 545.593V522.839H392.184V545.593H396.184Z" fill="black" mask="url(#path-5-outside-2_476_62)"/>
</g>
<path d="M473.268 507.628C474.1 506.714 474.597 505.611 476.417 505.858C499.85 508.925 512.024 531.516 504.977 549.034C504.347 550.261 503.503 551.458 504.07 552.939C504.088 553.198 504.039 553.457 503.925 553.694C503.742 554.039 503.466 554.333 503.125 554.549C502.758 554.702 502.351 554.751 501.954 554.691C501.579 554.613 501.201 554.554 500.82 554.514C500.172 554.611 499.509 554.593 498.868 554.461C498.056 554.065 497.413 553.593 497.848 552.603C498.402 551.936 499.24 551.806 500.02 551.594C500.688 551.264 500.348 550.88 500.071 550.497C499.577 550.019 499.153 549.482 498.811 548.898C498.61 548.376 498.483 547.83 498.433 547.276C498.32 546.291 498.163 545.295 499.189 544.587C500.871 543.861 501.545 542.817 499.939 541.496C498.679 540.464 498.402 541.461 498.257 542.446C496.834 544.215 496.084 542.481 495.108 541.915C494.044 541.001 493.572 539.679 492.589 538.736C491.989 538.158 491.499 537.487 491.141 536.754C490.819 535.871 490.397 535.022 489.881 534.223C485.051 526.125 479.994 518.139 475.145 510.04C474.742 509.45 474.805 508.53 473.728 508.483C473.306 508.259 473.098 508.035 473.268 507.628Z" fill="#191B1F"/>
<path d="M506.022 560.211C510.707 578.915 496.292 596.515 479.44 599.199C478.602 599.299 477.248 599.924 478.237 598.167C479.994 595.064 481.82 591.985 482.582 588.44C481.953 590.169 482.066 592.504 479.068 592.186C478.905 592.03 478.777 591.846 478.692 591.643C478.606 591.441 478.565 591.224 478.571 591.006C479.157 588.317 481.468 586.423 482.349 583.857C483.111 582.754 483.974 581.71 484.673 580.572C484.799 580.348 484.944 580.13 485.089 579.917C485.566 579.159 485.987 578.37 486.348 577.558C486.796 576.75 487.18 575.918 487.652 575.116C490.946 569.725 494.39 564.411 497.533 558.937C497.969 558.347 498.496 557.821 499.095 557.374C499.97 556.884 500.688 555.811 501.935 556.696C502.157 556.993 502.276 557.347 502.276 557.71C502.276 558.073 502.157 558.427 501.935 558.725C500.959 559.521 501.122 560.63 500.971 561.833C501.255 560.86 500.921 559.951 501.507 559.208C502.212 558.548 502.464 557.356 503.824 557.439C504.104 557.499 504.356 557.641 504.542 557.846C505.046 558.666 504.7 559.91 506.022 560.211Z" fill="#191B1F"/>
<path d="M479.144 592.051C482.292 591.355 481.247 587.786 483.816 586.152C483.439 588.075 482.097 589.691 483.672 591.372C484.081 591.82 482.614 591.803 482.368 592.204C481.568 593.502 480.296 594.616 480.353 596.286C480.391 597.4 480.435 598.468 478.741 598.592C478.199 598.627 478.589 598.963 478.822 599.075C479.026 599.139 479.238 599.176 479.452 599.188C477.689 599.742 475.951 600.521 474.043 599.701C473.325 598.521 474.32 597.742 474.83 596.852C474.996 596.641 475.182 596.443 475.384 596.262C476.289 595.654 476.953 594.783 477.273 593.785C477.368 593.552 477.491 593.331 477.639 593.124C478.04 592.657 478.556 592.289 479.144 592.051Z" fill="#1F1B22"/>
<path d="M478.004 564.381C479.225 563.384 480.441 562.382 481.663 561.379C481.822 561.222 482.035 561.121 482.265 561.096C482.495 561.07 482.727 561.12 482.922 561.237C483.069 561.397 483.169 561.59 483.213 561.796C483.257 562.003 483.244 562.217 483.174 562.417C482.544 563.367 481.436 563.833 480.731 564.7C480.147 565.324 479.652 566.016 479.257 566.758C475.17 571.99 473.092 577.906 472.33 584.294C472.241 585.055 472.399 586.134 471.013 586.175C470.384 584.341 470.554 582.483 470.875 580.625C471.461 574.52 474.338 569.3 478.004 564.381Z" fill="#173F33"/>
<path d="M472.815 533.067C472.33 531.416 471.436 529.864 471.492 528.095C471.096 526.968 471.304 525.806 471.222 524.662C473.073 523.654 472.84 525.329 473.035 526.042C473.756 529.062 474.827 531.999 476.228 534.801C476.798 536.241 477.684 537.553 478.829 538.653C479.092 538.915 479.283 539.235 479.383 539.583C479.482 539.93 479.489 540.296 479.402 540.647C479.312 540.846 479.173 541.023 478.997 541.163C478.821 541.303 478.613 541.403 478.388 541.455C476.354 539.479 475.107 537.013 473.59 534.719C472.651 534.459 473.445 533.457 472.815 533.067Z" fill="#1D4137"/>
<path d="M471.656 524.025L471.486 528.095C469.836 523.116 469.836 517.785 471.486 512.806C472.746 513.803 472.311 515.213 472.506 516.469C472.273 518.994 473.161 521.624 471.656 524.025Z" fill="#303336"/>
<path d="M475.334 596.799L474.031 599.683C472.527 597.673 471.655 595.309 471.511 592.858C471.121 591.396 471.253 589.909 471.115 588.423C472.897 587.243 472.834 588.789 472.91 589.603C473.03 592.159 473.866 594.64 475.334 596.799Z" fill="#225747"/>
<path d="M478.388 541.478L479.225 540.688C480.548 540.546 481.115 541.584 481.959 542.203C482.821 543.035 483.697 543.855 484.604 544.645C485.366 545.583 486.883 545.967 486.908 547.435C486.72 547.866 486.474 548.173 485.92 547.86C482.702 546.722 481.134 543.731 478.438 542.003C478.403 541.83 478.386 541.654 478.388 541.478Z" fill="#154234"/>
<path d="M471.662 516.746L471.454 512.806C471.537 510.956 472.164 509.164 473.268 507.627L474.024 508.259C474.205 508.424 474.341 508.627 474.421 508.852C474.501 509.077 474.523 509.316 474.483 509.55C473.369 511.904 474.194 514.906 471.662 516.746Z" fill="#1F4237"/>
<path d="M471.669 587.763L471.486 592.888C470.068 588.934 469.85 584.689 470.856 580.626C471.304 582.448 470.271 584.436 471.562 586.164C471.791 586.369 471.929 586.647 471.949 586.944C471.969 587.24 471.869 587.532 471.669 587.763Z" fill="#2F3839"/>
<path d="M506.022 560.211C505.285 560.854 504.41 562.122 504.265 559.893C504.221 559.208 504.265 558.524 504.265 557.834C504.336 557.757 504.424 557.695 504.522 557.652C504.621 557.61 504.729 557.588 504.838 557.588C504.947 557.588 505.054 557.61 505.153 557.652C505.252 557.695 505.34 557.757 505.411 557.834C505.625 558.624 506.23 559.32 506.022 560.211Z" fill="#142222"/>
<path d="M505.398 557.84H504.252C503.478 556.949 503.049 555.994 503.622 554.855C503.837 554.855 504.051 554.855 504.252 554.855C504.875 555.754 505.268 556.775 505.398 557.84Z" fill="#1F1E1F"/>
<path d="M471.662 516.746C472.827 514.428 472.481 511.686 474.011 509.468C474.202 509.306 474.449 509.213 474.706 509.206C474.964 509.2 475.216 509.28 475.415 509.432C480.624 517.602 485.851 525.759 490.423 534.264C490.901 535.019 490.819 536.034 491.682 536.624L493.017 538.24C493.59 539.673 493.848 541.278 495.461 542.139C495.662 542.327 495.822 542.549 495.933 542.793C496.166 544.067 496.336 545.377 497.992 545.807C498.175 546.008 498.326 546.233 498.439 546.474C498.849 547.258 498.137 548.373 499.264 548.945L500.524 550.178C500.625 550.768 502.01 551.429 500.524 552.024C499.718 552.16 498.918 552.29 498.118 552.425L497.734 552.237C496.519 551.865 495.265 551.606 494.081 551.134C492.4 550.408 490.681 549.753 489.043 548.957C488.116 548.551 487.328 547.909 486.77 547.105L484.182 544.899C483.552 543.006 484.761 542.469 486.417 542.286C486.909 542.599 487.179 543.13 487.708 543.466C487.437 543.131 487.12 542.831 486.764 542.575C486.134 541.82 485.548 541.655 484.73 542.357C484.33 542.744 483.792 542.979 483.219 543.017C482.646 543.055 482.079 542.893 481.625 542.563L479.295 540.711L478.495 539.095C477.576 537.951 477.431 536.305 475.926 535.521C473.558 532.011 472.871 527.953 471.725 524.049L471.662 516.746Z" fill="#01E09D"/>
<path d="M471.669 587.762L471.555 586.164C471.757 578.732 473.917 571.937 478.898 566.039C479.748 565.744 479.849 564.894 480.334 564.328C480.907 563.414 481.556 562.594 482.809 562.5C483.584 561.91 483.961 560.73 485.328 561.09C487.06 561.597 488.584 561.957 487.708 559.321C487.52 558.731 488.288 558.141 488.634 557.551C489.306 556.823 490.209 556.315 491.21 556.1C492.274 555.976 493.37 555.994 494.359 555.422C494.591 555.33 494.838 555.272 495.089 555.251C495.323 555.284 495.562 555.244 495.769 555.137C495.976 555.031 496.14 554.863 496.235 554.661C496.366 554.447 496.545 554.262 496.758 554.118C497.576 553.977 498.416 553.993 499.227 554.165L501.072 553.752C502.615 555.923 499.812 556.442 499.302 557.846L498.043 559.067C496.714 561.102 495.215 562.913 492.514 563.479C491.456 563.703 491.361 564.759 490.964 565.549C489.774 567.908 488.88 570.492 486.77 572.379C485.769 573.27 484.648 574.279 483.206 573.4C481.764 572.521 483.036 571.453 483.206 570.451C483.318 569.87 483.53 569.31 483.835 568.793C484.23 568.377 484.65 567.983 485.095 567.614C484.71 567.916 484.348 568.243 484.012 568.593C483.682 568.97 483.426 569.4 483.256 569.861C482.771 570.999 481.606 572.22 482.777 573.347C483.703 574.22 485.026 573.701 486.254 573.246C488.187 572.533 488.552 573.093 487.992 575.653C487.849 576.514 487.406 577.306 486.732 577.906C485.819 578.425 485.97 579.499 485.397 580.195C484.306 581.248 483.499 582.53 483.042 583.934C482.337 586.535 480.221 588.452 479.194 590.9C478.564 591.555 478.804 592.67 477.846 593.165C477.378 594.527 476.566 595.764 475.479 596.769H475.403C473.18 597.058 473.476 595.117 473.136 594.15C472.349 592.121 472.109 589.909 471.669 587.762Z" fill="#01E19E"/>
<path d="M497.955 542.522C498.389 541.649 496.235 541.172 497.457 540.346C497.868 540.117 498.342 540.009 498.819 540.035C499.296 540.062 499.754 540.221 500.134 540.493C500.67 540.794 501.105 541.23 501.39 541.752C501.675 542.273 501.798 542.859 501.746 543.442C501.588 545.141 500.31 544.781 499.227 544.846C498.257 544.339 497.218 543.849 497.955 542.522Z" fill="#21171F"/>
<path d="M491.707 530.708C491.46 530.309 491.249 529.89 491.078 529.458C490.89 528.896 490.922 528.29 491.169 527.75C491.417 527.209 491.862 526.769 492.425 526.508C493.238 526.255 494.239 527.464 494.226 528.679C494.226 529.351 494.226 530.018 494.226 530.69L493.943 530.968C493.578 531.144 493.169 531.223 492.759 531.198C492.557 531.189 492.359 531.141 492.178 531.057C491.997 530.973 491.837 530.854 491.707 530.708Z" fill="#0F2020"/>
<path d="M483.596 514.747C482.305 513.296 481.405 512.388 480.637 511.379C480.538 511.263 480.465 511.131 480.422 510.988C480.379 510.846 480.367 510.697 480.386 510.551C480.406 510.404 480.456 510.262 480.535 510.134C480.614 510.006 480.719 509.894 480.844 509.804C481.38 509.421 482.356 509.397 482.469 509.922C482.746 511.267 484.535 512.158 483.596 514.747Z" fill="#23161E"/>
<path d="M497.955 542.522L499.214 544.881C498.584 545.713 499.321 546.592 499.107 547.435C498.477 547.477 498.257 546.987 497.992 546.574C497.998 546.482 497.981 546.389 497.942 546.304C497.902 546.219 497.842 546.144 497.766 546.085C496.204 545.341 496.028 543.808 495.442 542.51C495.26 542.368 495.146 542.164 495.124 541.943C495.101 541.723 495.173 541.502 495.322 541.33C496.437 541.289 496.468 543.336 497.955 542.522Z" fill="#073527"/>
<path d="M491.707 530.708C492.129 530.708 492.551 530.708 492.967 530.708C493.685 531.386 493.974 532.312 494.51 533.103C494.578 533.298 494.587 533.508 494.535 533.708C494.482 533.909 494.371 534.091 494.214 534.235C493.584 533.645 492.501 535.969 492.362 534.182C492.243 532.979 489.062 532.247 491.707 530.708Z" fill="#1F1B21"/>
<path d="M503.673 554.855C504.189 555.771 504.408 556.809 504.303 557.84C503.207 557.757 502.659 558.689 501.784 559.019V556.66L501.884 556.289C502.237 555.61 502.388 554.826 503.037 554.301L503.579 553.74L503.673 554.855Z" fill="#142222"/>
<path d="M495.329 541.348L495.449 542.528C493.049 541.903 492.703 540.245 493.005 538.257L495.329 541.348Z" fill="#16C995"/>
<path d="M499.265 557.805C499.265 556.212 501.595 555.51 501.034 553.711L501.746 554.272C502.068 554.59 502.247 555.012 502.247 555.451C502.247 555.89 502.068 556.312 501.746 556.631L499.265 557.805Z" fill="#142222"/>
<path d="M494.189 534.247V533.067C493.863 532.75 493.68 532.327 493.68 531.887C493.68 531.447 493.863 531.024 494.189 530.708C496.116 531.893 496.116 533.073 494.189 534.247Z" fill="#08241E"/>
<path d="M499.189 554.153C498.371 554.153 497.621 555.044 496.752 554.319C495.959 554.743 495.203 555.032 494.863 553.841C495.726 553.534 497.004 553.912 497.256 552.584C497.339 552.466 497.465 552.379 497.61 552.34C497.756 552.301 497.912 552.312 498.049 552.372V552.419C497.791 553.369 498.698 553.64 499.189 554.153Z" fill="#212327"/>
<path d="M498.005 546.551L499.119 547.412L499.264 548.957C496.663 549.146 498.546 547.288 498.005 546.551Z" fill="#17C28D"/>
<path d="M483.886 515.656C484.001 515.702 484.103 515.773 484.185 515.862C484.267 515.951 484.326 516.057 484.357 516.17C484.389 516.284 484.392 516.403 484.367 516.518C484.342 516.634 484.29 516.742 484.213 516.835C484.012 517.154 483.804 517.614 483.313 517.354C482.822 517.095 482.84 516.54 482.979 516.074C483.117 515.608 483.395 515.449 483.886 515.656Z" fill="#05251E"/>
<path d="M501.84 547.235C501.261 547.082 500.713 547.099 500.851 546.539C500.965 546.102 501.443 546.049 501.859 546.108C502.275 546.167 502.816 546.185 502.634 546.728C502.545 546.981 502.042 547.111 501.84 547.235Z" fill="#340F1F"/>
<path d="M501.739 556.625V554.266H502.999C502.879 555.227 503.421 556.466 501.739 556.625Z" fill="#1F1E1F"/>
<path d="M491.669 536.618C490 536.417 490.492 535.208 490.41 534.259C491.216 534.872 491.808 535.574 491.669 536.618Z" fill="#1CCC9A"/>
<path d="M500.468 552.018C501.261 551.428 500.241 550.785 500.468 550.172C501.249 550.526 501.891 551.033 501.589 551.942C501.419 552.496 500.896 552.455 500.468 552.018Z" fill="#1B5744"/>
<path d="M475.416 509.438H474.011V508.259C475.334 507.751 475.195 508.79 475.416 509.438Z" fill="#1EAD86"/>
<path d="M484.151 568.421C484.102 569.488 483.993 570.551 483.823 571.607C483.729 572.078 482.765 572.491 483.704 572.969C484.333 573.27 484.869 572.969 485.398 572.55C488.125 570.403 489.321 567.395 490.348 564.393C490.763 563.178 490.977 562.517 492.464 562.505C495.09 562.505 496.066 560.022 498.056 559.031C495.084 564.762 491.719 570.307 487.98 575.629C487.507 575.039 488.905 572.934 486.336 573.954C484.869 574.544 482.665 575.098 481.928 573.541C481.008 571.595 481.241 569.3 484.151 568.427V568.421Z" fill="#06DC9D"/>
<path d="M501.708 558.813C501.777 560.73 502.073 562.541 499.239 563.661C500.48 561.933 499.894 560.022 501.708 558.813Z" fill="#142222"/>
<path d="M482.973 583.952C483.005 582.289 483.257 580.749 485.328 580.212C484.969 581.655 484.147 582.96 482.973 583.952Z" fill="#17B788"/>
<path d="M490.448 574.367C490.486 573.995 490.448 573.529 491.028 573.529C491.607 573.529 491.588 573.995 491.588 574.373C491.588 574.75 491.588 575.211 491.021 575.211C490.455 575.211 490.505 574.75 490.448 574.367Z" fill="#2A121F"/>
<path d="M485.34 580.218C485.435 579.275 485.013 578.065 486.675 577.93C486.641 578.379 486.504 578.815 486.274 579.21C486.043 579.605 485.725 579.949 485.34 580.218Z" fill="#17B788"/>
<path d="M477.777 593.195C477.818 592.749 477.96 592.317 478.192 591.927C478.424 591.536 478.742 591.196 479.125 590.93V592.062C479.037 592.794 478.646 593.242 477.777 593.195Z" fill="#0A392D"/>
<path d="M494.856 553.841C495.36 554.431 496.116 554.213 496.746 554.319L496.569 554.685C496.336 555.705 495.31 555.056 494.774 555.422C493.868 556.23 492.583 556.136 491.537 556.602C490.597 556.701 489.734 557.139 489.132 557.823C488.577 558.367 487.859 558.739 487.073 558.89C486.831 558.908 486.588 558.868 486.367 558.773C486.146 558.678 485.956 558.531 485.813 558.348C488.429 556.23 491.519 554.69 494.856 553.841Z" fill="#174135"/>
<path d="M489.095 548.414C490.877 549.063 492.709 549.594 494.271 550.679C494.032 551.269 493.326 551.004 492.942 551.316C491.088 550.884 489.35 550.092 487.841 548.993C488.112 548.515 488.748 548.739 489.095 548.414Z" fill="#314441"/>
<path d="M485.838 558.353L487.381 558.459C487.469 559.639 486.304 559.875 485.618 560.476C484.686 560.653 484.018 561.503 482.973 561.408C482.538 561.408 482.098 561.408 481.663 561.379V560.789C482.135 559.993 482.551 559.132 483.735 559.108C484.434 558.86 485.133 558.607 485.838 558.353Z" fill="#1D3C36"/>
<path d="M492.967 551.317L494.296 550.68C495.454 551.446 497.444 550.603 498.074 552.372L497.281 552.585C495.782 552.284 494.226 552.284 492.967 551.317Z" fill="#303D3C"/>
<path d="M489.094 548.415C488.678 548.609 488.263 548.804 487.835 549.004C487.148 548.698 486.323 548.597 485.945 547.872L486.726 547.111L489.094 548.415Z" fill="#003A22"/>
<path d="M475.421 596.775C476.102 595.513 476.681 594.18 477.789 593.177C478.104 595.011 477.222 596.144 475.421 596.775Z" fill="#0A392D"/>
<path d="M482.973 561.409L485.34 560.082C485.514 560.249 485.612 560.473 485.612 560.707C485.612 560.94 485.514 561.165 485.34 561.332C484.238 561.249 483.942 562.706 482.777 562.512L482.973 561.409Z" fill="#26BF97"/>
<path d="M480.334 564.328C480.416 565.307 480.259 566.097 478.898 566.038C478.991 565.673 479.167 565.33 479.415 565.035C479.663 564.74 479.977 564.498 480.334 564.328Z" fill="#2AB78C"/>
<path d="M475.856 535.497C478.829 535.356 477.676 537.815 478.426 539.072C477.167 538.183 476.262 536.924 475.856 535.497Z" fill="#21BD8E"/>
<path d="M481.556 542.54C482.702 542.54 483.747 542.44 484.591 541.508C484.988 541.077 485.46 540.157 486.266 540.611C486.896 540.983 486.575 541.85 486.638 542.505C486.017 542.634 485.449 542.928 485.003 543.352C484.556 543.775 484.249 544.311 484.119 544.893C483.056 544.337 482.171 543.524 481.556 542.54Z" fill="#09DB9C"/>
<path d="M477.891 518.988C480.41 520.073 480.517 522.049 481.48 523.447C481.795 523.907 481.398 524.591 480.617 524.721C480.07 524.809 479.289 524.662 479.314 524.225C479.421 522.485 477.91 521.111 477.891 518.988Z" fill="#0DDA9E"/>
<path d="M486.669 542.505C487.696 542.628 489.144 542.115 489.1 543.867C489.105 543.988 489.082 544.109 489.035 544.222C488.987 544.335 488.916 544.437 488.824 544.523C488.733 544.608 488.623 544.676 488.503 544.72C488.382 544.765 488.254 544.785 488.124 544.781C486.235 544.823 486.802 543.466 486.676 542.505H486.669Z" fill="#09DB9C"/>
<path d="M495.448 542.469C496.435 543.527 497.221 544.736 497.772 546.044C494.503 546.291 495.656 544.003 495.448 542.469Z" fill="#27C394"/>
<path d="M474.704 526.314C475.259 526.385 475.278 526.792 475.271 527.169C475.265 527.547 475.271 528.007 474.698 528.007C474.125 528.007 474.131 527.541 474.131 527.163C474.131 526.786 474.131 526.379 474.704 526.314Z" fill="#19D7A0"/>
<path d="M485.372 561.343V560.093C485.674 559.137 486.984 559.291 487.412 558.471C488.004 558.259 488.59 558.046 489.182 557.84C489.295 558.813 486.26 560.63 490.58 560.7C488.414 560.6 487.488 564.293 485.372 561.343Z" fill="#0CD698"/>
<path d="M484.15 568.422C484.276 567.466 483.703 566.104 485.586 566.139C485.716 566.135 485.845 566.156 485.966 566.2C486.086 566.245 486.196 566.312 486.288 566.397C486.38 566.483 486.453 566.585 486.501 566.698C486.549 566.811 486.572 566.932 486.569 567.053C486.613 568.823 485.177 568.304 484.144 568.416L484.15 568.422Z" fill="#1BD3A1"/>
<path d="M491.556 556.625C491.98 556.23 492.486 555.921 493.043 555.718C493.6 555.515 494.196 555.422 494.793 555.445C494.176 556.926 492.822 556.666 491.556 556.625Z" fill="#18C18F"/>
<path d="M494.781 555.445C495.228 554.856 495.94 554.856 496.582 554.708C496.525 555.245 496.676 556.065 496.368 556.259C495.536 556.772 495.379 555.622 494.781 555.445Z" fill="#18C18F"/>
<path d="M494.226 530.707V533.067C492.513 532.89 493.105 531.639 492.967 530.707C493.357 530.713 493.773 530.707 494.226 530.707Z" fill="#360B1E"/>
<path d="M74.0977 923.011L73.6089 778.329" stroke="#202124" stroke-width="3"/>
<path d="M141.164 742.231C141.164 775.386 111.248 802.439 74.117 802.439C36.9859 802.439 7.07031 775.386 7.07031 742.231C7.07031 709.077 36.9859 682.024 74.117 682.024C111.248 682.024 141.164 709.077 141.164 742.231Z" fill="#1A1B1F" stroke="#1A1B1F" stroke-width="2"/>
<path d="M7.00247 733.574C11.9258 703.512 37.967 679.417 71.6395 681.862C102.61 684.111 122.244 705.907 126.643 733.574C131.919 766.751 107.594 800.957 70.3965 802.896C31.4911 804.924 1.32296 768.254 7.00247 733.574Z" fill="white" stroke="#1A1B1F" stroke-width="2"/>
<mask id="mask0_476_62" style="mask-type:alpha" maskUnits="userSpaceOnUse" x="6" y="680" width="128" height="124">
<path d="M132.516 740.27V740.278C132.516 774.49 104.76 802.512 70.1172 802.512C35.4282 802.512 7.40918 776.326 7.40918 742.159C7.40918 708.001 35.4132 681.819 70.0901 681.806C105.135 683.677 132.758 707.955 132.516 740.27Z" fill="white" stroke="black" stroke-width="2"/>
</mask>
<g mask="url(#mask0_476_62)">
<path d="M66.0134 701.271C50.434 694.339 43.6589 692.148 35.0047 690.762C34.5243 690.686 34.024 690.794 33.6172 691.061C6.13057 709.1 4.77466 737.596 8.52247 759.86C8.73264 761.109 10.0539 761.828 11.1809 761.251C17.3403 758.097 21.6626 752.941 28.8576 743.606C34.2525 735.709 35.5978 734.082 49.2259 734.924C57.0993 734.705 59.8268 733.738 63.2426 731.428C63.3616 731.348 63.4728 731.253 63.5709 731.148C67.571 726.88 69.6814 723.809 71.8635 713.577C71.8933 713.437 71.9085 713.29 71.9073 713.147C71.8643 707.864 71.2699 705.017 66.3646 701.472C66.2565 701.394 66.1351 701.325 66.0134 701.271Z" fill="#00E09E"/>
<path d="M36.564 781.741L38.2708 791.098C38.3666 791.623 38.1999 792.162 37.8245 792.541C37.0976 793.275 37.2259 794.493 38.1005 795.043C43.602 798.503 47.5972 800.165 54.7771 801.316C54.8805 801.333 54.9868 801.341 55.0915 801.341C56.8281 801.34 59.3856 801.281 62.3409 799.316C65.2911 797.353 79.4637 778.151 80.3511 776.946C80.3803 776.907 80.4084 776.865 80.4345 776.823C84.5417 770.261 85.193 766.602 80.571 760.478C80.4562 760.326 80.3165 760.189 80.1625 760.077L62.3409 747.079C57.1398 744.305 53.8804 743.963 47.5925 746.219C47.3472 746.307 47.1188 746.448 46.925 746.622C43.264 749.916 42.9349 748.963 38.4236 754.603C29.9368 763.14 30.3821 765.057 30.7083 772.691C31.1382 775.905 32.0483 777.719 35.7551 780.46C36.1755 780.771 36.4702 781.227 36.564 781.741Z" fill="#00E09E"/>
<path d="M115.205 746.429L123.707 750.97C124.917 751.616 126.405 750.872 126.602 749.514C129.588 728.858 126.667 718.638 115.678 705.344C114.887 704.388 113.411 704.4 112.736 705.442C109.222 710.869 108.756 717.223 107.505 726.965C106.109 738.694 108.985 741.742 114.939 746.259C115.022 746.322 115.112 746.38 115.205 746.429Z" fill="#00E09E"/>
<path d="M105.856 764.119C103.941 761.685 103.722 760.06 104.636 757.197C104.695 757.012 104.784 756.837 104.899 756.68C106.304 754.757 107.466 754.088 110.261 753.755C110.377 753.741 110.496 753.738 110.613 753.747C113.378 753.952 114.711 754.736 116.658 756.659C116.83 756.829 116.97 757.032 117.062 757.256C118.224 760.093 117.549 761.681 115.294 764.191C115.144 764.358 114.965 764.498 114.765 764.602C111.951 766.071 110.11 766.408 106.486 764.629C106.241 764.508 106.024 764.334 105.856 764.119Z" fill="#00E09E"/>
<path d="M66.0134 701.271C50.434 694.339 43.6589 692.148 35.0047 690.762C34.5243 690.686 34.024 690.794 33.6172 691.061C6.13057 709.1 4.77466 737.596 8.52247 759.86C8.73264 761.109 10.0539 761.828 11.1809 761.251C17.3403 758.097 21.6626 752.941 28.8576 743.606C34.2525 735.709 35.5978 734.082 49.2259 734.924C57.0993 734.705 59.8268 733.738 63.2426 731.428C63.3616 731.348 63.4728 731.253 63.5709 731.148C67.571 726.88 69.6814 723.809 71.8635 713.577C71.8933 713.437 71.9085 713.29 71.9073 713.147C71.8643 707.864 71.2699 705.017 66.3646 701.472C66.2565 701.394 66.1351 701.325 66.0134 701.271Z" stroke="#1A1B1F" stroke-width="2"/>
<path d="M36.564 781.741L38.2708 791.098C38.3666 791.623 38.1999 792.162 37.8245 792.541C37.0976 793.275 37.2259 794.493 38.1005 795.043C43.602 798.503 47.5972 800.165 54.7771 801.316C54.8805 801.333 54.9868 801.341 55.0915 801.341C56.8281 801.34 59.3856 801.281 62.3409 799.316C65.2911 797.353 79.4637 778.151 80.3511 776.946C80.3803 776.907 80.4084 776.865 80.4345 776.823C84.5417 770.261 85.193 766.602 80.571 760.478C80.4562 760.326 80.3165 760.189 80.1625 760.077L62.3409 747.079C57.1398 744.305 53.8804 743.963 47.5925 746.219C47.3472 746.307 47.1188 746.448 46.925 746.622C43.264 749.916 42.9349 748.963 38.4236 754.603C29.9368 763.14 30.3821 765.057 30.7083 772.691C31.1382 775.905 32.0483 777.719 35.7551 780.46C36.1755 780.771 36.4702 781.227 36.564 781.741Z" stroke="#1A1B1F" stroke-width="2"/>
<path d="M115.205 746.429L123.707 750.97C124.917 751.616 126.405 750.872 126.602 749.514C129.588 728.858 126.667 718.638 115.678 705.344C114.887 704.388 113.411 704.4 112.736 705.442C109.222 710.869 108.756 717.223 107.505 726.965C106.109 738.694 108.985 741.742 114.939 746.259C115.022 746.322 115.112 746.38 115.205 746.429Z" stroke="#1A1B1F" stroke-width="2"/>
<path d="M105.856 764.119C103.941 761.685 103.722 760.06 104.636 757.197C104.695 757.012 104.784 756.837 104.899 756.68C106.304 754.757 107.466 754.088 110.261 753.755C110.377 753.741 110.496 753.738 110.613 753.747C113.378 753.952 114.711 754.736 116.658 756.659C116.83 756.829 116.97 757.032 117.062 757.256C118.224 760.093 117.549 761.681 115.294 764.191C115.144 764.358 114.965 764.498 114.765 764.602C111.951 766.071 110.11 766.408 106.486 764.629C106.241 764.508 106.024 764.334 105.856 764.119Z" stroke="#1A1B1F" stroke-width="2"/>
</g>
<path d="M74 682V612C74 585.49 95.4903 564 122 564H225" stroke="#202124" stroke-width="3"/>
<defs>
<filter id="filter0_d_476_62" x="209.129" y="477.624" width="255.949" height="142.18" filterUnits="userSpaceOnUse" color-interpolation-filters="sRGB">
<feFlood flood-opacity="0" result="BackgroundImageFix"/>
<feColorMatrix in="SourceAlpha" type="matrix" values="0 0 0 0 0 0 0 0 0 0 0 0 0 0 0 0 0 0 127 0" result="hardAlpha"/>
<feOffset dy="4"/>
<feGaussianBlur stdDeviation="2"/>
<feComposite in2="hardAlpha" operator="out"/>
<feColorMatrix type="matrix" values="0 0 0 0 0 0 0 0 0 0 0 0 0 0 0 0 0 0 0.25 0"/>
<feBlend mode="normal" in2="BackgroundImageFix" result="effect1_dropShadow_476_62"/>
<feBlend mode="normal" in="SourceGraphic" in2="effect1_dropShadow_476_62" result="shape"/>
</filter>
</defs>
</svg>
