<svg width="286" height="84" viewBox="0 0 286 84" fill="none" xmlns="http://www.w3.org/2000/svg">
<g opacity="0.2">
<path d="M364.307 53.8611C364.307 53.8611 368.667 1.08843 380 -22C370.41 -13.7544 356.46 19.2288 352.101 40.6675C352.101 40.6675 346.87 11.8074 340.767 4.38603C340.767 9.33341 339.024 43.1415 339.024 43.1415C339.024 43.1415 332.921 27.4745 323.331 21.7022C325.075 29.1236 323.331 45.6149 323.331 45.6149L318.099 31.597L314.612 49.738C314.612 49.738 312.868 36.545 305.022 24.1762C305.022 26.6496 299.791 47.264 299.791 47.264C299.791 47.264 297.176 6.86006 299.791 -12.9301C299.791 -12.9301 286.714 26.6496 286.714 48.0882L273.636 29.9472C273.636 29.9472 277.123 48.0882 277.123 55.509C277.123 55.509 269.277 43.1402 259.687 39.0177C262.302 43.9651 262.302 56.3338 262.302 56.3338C262.302 56.3338 249.225 33.2454 237.891 22.5264C239.635 30.7721 243.122 53.8605 243.122 53.8605C243.122 53.8605 226.558 30.7721 221.327 7.68429C219.583 12.6317 219.583 34.8952 223.071 43.9657C223.071 43.9657 214.353 37.3692 208.25 34.8952C208.25 34.8952 213.481 44.79 213.481 52.2114C213.481 52.2114 207.378 43.1408 187.326 39.8426C194.3 45.6142 198.659 60.457 198.659 60.457C198.659 60.457 188.197 51.3865 176.864 50.5622C182.967 56.3345 190.813 76.124 190.813 76.124H372.154L364.307 53.8611Z" fill="#09A68A"/>
<path d="M61.7846 53.8612C61.7846 53.8612 60.0407 34.0717 71.3749 10.9832C61.7846 19.2289 53.9384 19.2289 49.5793 40.6682C49.5793 40.6682 44.3482 11.8081 38.2459 4.38672C38.2459 9.3341 36.5019 43.1422 36.5019 43.1422C36.5019 43.1422 30.3988 27.4752 20.8086 21.7029C22.5526 29.1243 20.8086 45.6155 20.8086 45.6155L15.5775 31.5976L12.0904 49.7387C12.0904 49.7387 10.3464 36.5457 2.50015 24.1769C2.50015 26.6502 -2.73093 47.2647 -2.73093 47.2647C-2.73093 47.2647 -6.21807 29.1243 -3.60293 9.3341C-3.60293 9.3341 -15.8083 26.6503 -15.8083 48.0889L-28.8856 29.9478C-28.8856 29.9478 -25.3985 48.0889 -25.3985 55.5096C-25.3985 55.5096 -33.2448 43.1409 -42.835 39.0184C-40.2198 43.9658 -40.2198 56.3345 -40.2198 56.3345C-40.2198 56.3345 -53.2972 33.2461 -64.6306 22.5271C-62.8866 30.7727 -59.3995 53.8612 -59.3995 53.8612C-59.3995 53.8612 -75.9639 30.7728 -81.195 7.68498C-82.939 12.6324 -82.939 34.8959 -79.4511 43.9664C-79.4511 43.9664 -88.1693 37.3699 -94.2724 34.8959C-94.2724 34.8959 -89.0413 44.7907 -89.0413 52.2121C-89.0413 52.2121 -95.1444 43.1415 -115.196 39.8433C-108.222 45.6149 -103.863 60.4577 -103.863 60.4577C-103.863 60.4577 -114.325 51.3872 -125.658 50.5629C-119.555 56.3352 -111.709 76.1247 -111.709 76.1247H69.6301L61.7846 53.8612Z" fill="#09A68A"/>
<path d="M62.0389 60.4016C62.0389 60.4016 58.5779 30.4722 49.5791 17.3781C57.1939 22.0546 68.2688 40.7603 71.7305 52.919C71.7305 52.919 75.8835 36.5515 80.7293 32.3427C80.7293 35.1488 82.1142 54.3223 82.1142 54.3223C82.1142 54.3223 86.96 45.4369 94.574 42.1637C93.1891 46.3725 94.574 55.7257 94.574 55.7257L98.7269 47.7759L101.496 58.064C101.496 58.064 102.88 50.5813 109.111 43.5671C109.111 44.9698 113.264 56.6613 113.264 56.6613C113.264 56.6613 115.341 33.7468 113.264 22.5231C113.264 22.5231 123.646 44.9705 123.646 57.1291L134.03 46.841C134.03 46.841 131.261 57.1291 131.261 61.3379C131.261 61.3379 137.491 54.323 145.106 51.9847C143.029 54.7908 143.029 61.805 143.029 61.805C143.029 61.805 153.412 48.7108 162.411 42.6315C161.027 47.3081 158.258 60.4023 158.258 60.4023C158.258 60.4023 171.409 47.3081 175.563 34.2139C176.947 37.02 176.947 49.6464 174.178 54.7901C174.178 54.7901 181.1 51.0491 185.946 49.6457C185.946 49.6457 181.792 55.2572 181.792 59.466C181.792 59.466 186.638 54.3216 202.559 52.4511C197.021 55.7244 193.56 64.1426 193.56 64.1426C193.56 64.1426 201.867 58.9983 210.866 58.5311C206.02 61.8043 199.79 73.028 199.79 73.028H55.809L62.0389 60.4016Z" fill="#09A68A"/>
<path d="M-43.6321 68.7468C-43.6321 68.7468 -41.9846 50.0477 -52.6938 28.2315C-43.6321 36.0232 -36.2185 36.0232 -32.0991 56.2805C-32.0991 56.2805 -27.1559 29.0103 -21.3898 21.998C-21.3898 26.6727 -19.7424 58.6181 -19.7424 58.6181C-19.7424 58.6181 -13.9763 43.8142 -4.91452 38.3602C-6.56197 45.3724 -4.91452 60.9551 -4.91452 60.9551L0.0278208 47.7094L3.32273 64.8503C3.32273 64.8503 4.97019 52.384 12.3845 40.6971C12.3845 43.0348 17.3269 62.5133 17.3269 62.5133C17.3269 62.5133 20.6218 45.3724 18.1506 26.6727C18.1506 26.6727 29.6836 43.0348 29.6836 63.2928L42.0403 46.1519C42.0403 46.1519 38.7454 63.2928 38.7454 70.305C38.7454 70.305 46.1597 58.6181 55.2207 54.7223C52.7495 59.3969 52.7495 71.0844 52.7495 71.0844C52.7495 71.0844 65.1062 49.2683 75.8154 39.1396C74.168 46.9313 70.8731 68.7468 70.8731 68.7468C70.8731 68.7468 86.5247 46.9306 91.4678 25.1151C93.1153 29.7897 93.1153 50.8264 89.8204 59.3976C89.8204 59.3976 98.0585 53.1641 103.825 50.8271C103.825 50.8271 98.8822 60.177 98.8822 67.1892C98.8822 67.1892 104.648 58.6188 123.596 55.5017C117.005 60.9558 112.886 74.9803 112.886 74.9803C112.886 74.9803 122.772 66.4098 133.481 65.6304C127.714 71.0844 120.301 89.7842 120.301 89.7842H-51.0456L-43.6321 68.7468Z" fill="#1CE9B6"/>
<path d="M265.639 75.8658C265.639 75.8658 266.601 64.9438 260.347 52.2021C265.639 56.7529 269.97 56.7529 272.375 68.5847C272.375 68.5847 275.262 52.6574 278.631 48.5613C278.631 51.2916 279.593 69.9499 279.593 69.9499C279.593 69.9499 282.96 61.3036 288.254 58.118C287.292 62.2135 288.254 71.315 288.254 71.315L291.14 63.5787L293.065 73.5901C293.065 73.5901 294.028 66.309 298.357 59.4826C298.357 60.8477 301.244 72.2249 301.244 72.2249C301.244 72.2249 303.169 62.2135 301.725 51.2916C301.725 51.2916 308.461 60.8484 308.461 72.6802L315.679 62.6688C315.679 62.6688 313.754 72.6802 313.754 76.7763C313.754 76.7763 318.084 69.9499 323.377 67.6748C321.933 70.4051 321.933 77.2316 321.933 77.2316C321.933 77.2316 329.15 64.4899 335.405 58.5733C334.443 63.1241 332.519 75.8658 332.519 75.8658C332.519 75.8658 341.661 63.1234 344.547 50.3817C345.509 53.112 345.509 65.3991 343.585 70.4051C343.585 70.4051 348.397 66.7643 351.765 65.3991C351.765 65.3991 348.878 70.8604 348.878 74.9559C348.878 74.9559 352.246 69.9499 363.312 68.1294C359.463 71.315 357.057 79.5066 357.057 79.5066C357.057 79.5066 362.831 74.5006 369.086 74.0453C365.718 77.2309 361.388 88.1529 361.388 88.1529H261.309L265.639 75.8658Z" fill="#1CE9B6"/>
<path d="M281.764 68.7468C281.764 68.7468 280.116 50.0477 290.826 28.2315C281.764 36.0232 274.35 36.0232 270.231 56.2805C270.231 56.2805 265.288 29.0103 259.522 21.998C259.522 26.6727 257.874 58.6181 257.874 58.6181C257.874 58.6181 252.108 43.8142 243.046 38.3602C244.694 45.3724 243.046 60.9551 243.046 60.9551L238.104 47.7094L234.809 64.8503C234.809 64.8503 233.162 52.384 225.747 40.6971C225.747 43.0348 220.804 62.5133 220.804 62.5133C220.804 62.5133 217.509 45.3724 219.98 26.6727C219.98 26.6727 208.447 43.0348 208.447 63.2928L196.091 46.1519C196.091 46.1519 199.386 63.2928 199.386 70.305C199.386 70.305 191.971 58.6181 182.91 54.7223C185.382 59.3969 185.382 71.0844 185.382 71.0844C185.382 71.0844 173.025 49.2683 162.316 39.1396C163.963 46.9313 167.258 68.7468 167.258 68.7468C167.258 68.7468 151.606 46.9306 146.663 25.1151C145.016 29.7897 145.016 50.8264 148.311 59.3976C148.311 59.3976 140.073 53.1641 134.306 50.8271C134.306 50.8271 139.249 60.177 139.249 67.1892C139.249 67.1892 133.483 58.6188 114.535 55.5017C121.126 60.9558 125.245 74.9803 125.245 74.9803C125.245 74.9803 115.359 66.4098 104.65 65.6304C110.417 71.0844 117.83 89.7842 117.83 89.7842H289.178L281.764 68.7468Z" fill="#1CE9B6"/>
</g>
<path d="M20.7428 50.4152C20.7428 50.4152 14.2057 66.3946 16.7484 90" stroke="white" stroke-miterlimit="10"/>
<path d="M21.0253 42.1973C21.0253 42.1973 17.9223 33.9231 22.0594 33.0955C26.1965 32.268 25.1624 37.0261 24.7487 39.3016C24.3356 41.577 23.0943 46.3344 21.0253 42.1973Z" fill="white"/>
<path d="M24.6884 42.7224C24.6884 42.7224 25.765 33.9509 29.8157 35.1315C33.8664 36.312 30.7487 40.0515 29.3287 41.8772C27.9094 43.703 24.6086 47.3472 24.6884 42.7224Z" fill="white"/>
<path d="M27.2936 44.981C27.2936 44.981 33.6959 38.8899 36.0754 42.3745C38.4548 45.8591 33.671 46.7672 31.4154 47.2762C29.159 47.7845 24.2946 48.5029 27.2936 44.981Z" fill="white"/>
<path d="M20.0337 42.7224C20.0337 42.7224 18.9571 33.9509 14.9064 35.1315C10.8558 36.312 13.9734 40.0515 15.3927 41.8772C16.812 43.703 20.1135 47.3472 20.0337 42.7224Z" fill="white"/>
<path d="M17.4287 44.981C17.4287 44.981 11.0264 38.8899 8.64698 42.3745C6.26754 45.8591 11.0513 46.7672 13.307 47.2762C15.5634 47.7845 20.4277 48.5029 17.4287 44.981Z" fill="white"/>
<path d="M23.6964 54.0887C23.6964 54.0887 26.7994 62.3629 22.6623 63.1905C18.5252 64.018 19.5593 59.2599 19.9731 56.9844C20.3869 54.7097 21.6282 49.9515 23.6964 54.0887Z" fill="white"/>
<path d="M20.0337 53.5635C20.0337 53.5635 18.9571 62.335 14.9064 61.1545C10.8558 59.9746 13.9734 56.2345 15.3927 54.4087C16.812 52.5829 20.1135 48.9387 20.0337 53.5635Z" fill="white"/>
<path d="M17.4287 51.305C17.4287 51.305 11.0264 57.396 8.64698 53.9115C6.26754 50.4269 11.0513 49.5187 13.307 49.0098C15.5634 48.5015 20.4277 47.7838 17.4287 51.305Z" fill="white"/>
<path d="M24.6884 53.5635C24.6884 53.5635 25.765 62.335 29.8157 61.1545C33.8664 59.9746 30.7487 56.2345 29.3287 54.4087C27.9094 52.5829 24.6086 48.9387 24.6884 53.5635Z" fill="white"/>
<path d="M27.2936 51.305C27.2936 51.305 33.6959 57.396 36.0754 53.9115C38.4548 50.4269 33.671 49.5187 31.4154 49.0098C29.159 48.5015 24.2946 47.7838 27.2936 51.305Z" fill="white"/>
<path d="M28.748 48.0584C28.748 51.6382 25.8463 54.5398 22.2666 54.5398C18.6868 54.5398 15.7852 51.6382 15.7852 48.0584C15.7852 44.4786 18.6868 41.577 22.2666 41.577C25.8463 41.577 28.748 44.4786 28.748 48.0584Z" fill="#FF9042"/>
<path d="M26.1976 48.0584C26.1976 50.2291 24.4377 51.989 22.267 51.989C20.0963 51.989 18.3364 50.2291 18.3364 48.0584C18.3364 45.8877 20.0963 44.1278 22.267 44.1278C24.4377 44.1278 26.1976 45.8877 26.1976 48.0584Z" fill="#FF7742"/>
<path d="M42.7068 69.1658C42.7068 69.1658 39.2662 77.576 40.6045 90" stroke="white" stroke-miterlimit="10"/>
<path d="M42.8555 64.8407C42.8555 64.8407 41.2224 60.4858 43.3998 60.0503C45.5772 59.6147 45.033 62.119 44.8152 63.3166C44.5978 64.5142 43.9445 67.0181 42.8555 64.8407Z" fill="white"/>
<path d="M44.7835 65.1171C44.7835 65.1171 45.3501 60.5005 47.482 61.1219C49.614 61.7432 47.9731 63.7113 47.2257 64.6723C46.4787 65.6332 44.7414 67.5512 44.7835 65.1171Z" fill="white"/>
<path d="M46.1545 66.3058C46.1545 66.3058 49.5241 63.1 50.7764 64.9339C52.0288 66.7679 49.511 67.2459 48.3238 67.5138C47.1362 67.7813 44.576 68.1594 46.1545 66.3058Z" fill="white"/>
<path d="M42.3336 65.1171C42.3336 65.1171 41.767 60.5005 39.635 61.1219C37.5031 61.7432 39.144 63.7113 39.891 64.6723C40.638 65.6332 42.3756 67.5512 42.3336 65.1171Z" fill="white"/>
<path d="M40.9625 66.3058C40.9625 66.3058 37.5929 63.1 36.3405 64.9339C35.0882 66.7679 37.606 67.2459 38.7932 67.5138C39.9807 67.7813 42.5409 68.1594 40.9625 66.3058Z" fill="white"/>
<path d="M44.2613 71.0993C44.2613 71.0993 45.8945 75.4541 43.717 75.8897C41.5396 76.3253 42.0839 73.821 42.3016 72.6234C42.5194 71.4261 43.1728 68.9218 44.2613 71.0993Z" fill="white"/>
<path d="M42.3336 70.8229C42.3336 70.8229 41.767 75.4395 39.635 74.8181C37.5031 74.1972 39.144 72.2287 39.891 71.2677C40.638 70.3068 42.3756 68.3888 42.3336 70.8229Z" fill="white"/>
<path d="M40.9625 69.6342C40.9625 69.6342 37.5929 72.84 36.3405 71.006C35.0882 69.1721 37.606 68.6941 38.7932 68.4262C39.9807 68.1587 42.5409 67.7809 40.9625 69.6342Z" fill="white"/>
<path d="M44.7835 70.8229C44.7835 70.8229 45.3501 75.4395 47.482 74.8181C49.614 74.1972 47.9731 72.2287 47.2257 71.2677C46.4787 70.3068 44.7414 68.3888 44.7835 70.8229Z" fill="white"/>
<path d="M46.1545 69.6342C46.1545 69.6342 49.5241 72.84 50.7764 71.006C52.0288 69.1721 49.511 68.6941 48.3238 68.4262C47.1362 68.1587 44.576 67.7809 46.1545 69.6342Z" fill="white"/>
<path d="M46.9202 67.9255C46.9202 69.8096 45.393 71.3367 43.5089 71.3367C41.6248 71.3367 40.0977 69.8096 40.0977 67.9255C40.0977 66.0414 41.6248 64.5142 43.5089 64.5142C45.393 64.5142 46.9202 66.0414 46.9202 67.9255Z" fill="#FF9042"/>
<path d="M45.5774 67.9255C45.5774 69.068 44.6512 69.9942 43.5087 69.9942C42.3662 69.9942 41.4399 69.068 41.4399 67.9255C41.4399 66.783 42.3662 65.8568 43.5087 65.8568C44.6512 65.8568 45.5774 66.783 45.5774 67.9255Z" fill="#FF7742"/>
<path d="M279.41 68.1658C279.41 68.1658 282.851 76.576 281.513 89" stroke="white" stroke-miterlimit="10"/>
<path d="M279.262 63.8407C279.262 63.8407 280.895 59.4858 278.717 59.0503C276.54 58.6147 277.084 61.119 277.302 62.3166C277.519 63.5142 278.173 66.0181 279.262 63.8407Z" fill="white"/>
<path d="M277.334 64.1171C277.334 64.1171 276.767 59.5005 274.635 60.1219C272.503 60.7432 274.144 62.7113 274.891 63.6723C275.639 64.6332 277.376 66.5512 277.334 64.1171Z" fill="white"/>
<path d="M275.963 65.3058C275.963 65.3058 272.593 62.1 271.341 63.9339C270.088 65.7679 272.606 66.2459 273.793 66.5138C274.981 66.7813 277.541 67.1594 275.963 65.3058Z" fill="white"/>
<path d="M279.784 64.1171C279.784 64.1171 280.35 59.5005 282.482 60.1219C284.614 60.7432 282.973 62.7113 282.226 63.6723C281.479 64.6332 279.742 66.5512 279.784 64.1171Z" fill="white"/>
<path d="M281.155 65.3058C281.155 65.3058 284.524 62.1 285.777 63.9339C287.029 65.7679 284.511 66.2459 283.324 66.5138C282.136 66.7813 279.576 67.1594 281.155 65.3058Z" fill="white"/>
<path d="M277.856 70.0993C277.856 70.0993 276.223 74.4541 278.4 74.8897C280.578 75.3253 280.033 72.821 279.816 71.6234C279.598 70.4261 278.944 67.9218 277.856 70.0993Z" fill="white"/>
<path d="M279.784 69.8229C279.784 69.8229 280.35 74.4395 282.482 73.8181C284.614 73.1972 282.973 71.2287 282.226 70.2677C281.479 69.3068 279.742 67.3888 279.784 69.8229Z" fill="white"/>
<path d="M281.155 68.6342C281.155 68.6342 284.524 71.84 285.777 70.006C287.029 68.1721 284.511 67.6941 283.324 67.4262C282.136 67.1587 279.576 66.7809 281.155 68.6342Z" fill="white"/>
<path d="M277.334 69.8229C277.334 69.8229 276.767 74.4395 274.635 73.8181C272.503 73.1972 274.144 71.2287 274.891 70.2677C275.639 69.3068 277.376 67.3888 277.334 69.8229Z" fill="white"/>
<path d="M275.963 68.6342C275.963 68.6342 272.593 71.84 271.341 70.006C270.088 68.1721 272.606 67.6941 273.793 67.4262C274.981 67.1587 277.541 66.7809 275.963 68.6342Z" fill="white"/>
<path d="M275.197 66.9255C275.197 68.8096 276.724 70.3367 278.608 70.3367C280.492 70.3367 282.02 68.8096 282.02 66.9255C282.02 65.0414 280.492 63.5142 278.608 63.5142C276.724 63.5142 275.197 65.0414 275.197 66.9255Z" fill="#FF9042"/>
<path d="M276.54 66.9255C276.54 68.068 277.466 68.9942 278.609 68.9942C279.751 68.9942 280.677 68.068 280.677 66.9255C280.677 65.783 279.751 64.8568 278.609 64.8568C277.466 64.8568 276.54 65.783 276.54 66.9255Z" fill="#FF7742"/>
<path d="M259.185 41.9983C259.185 41.9983 267.442 62.1826 264.231 92" stroke="white" stroke-miterlimit="10"/>
<path d="M258.827 31.6176C258.827 31.6176 262.747 21.1656 257.521 20.1207C252.295 19.0753 253.601 25.0851 254.124 27.9597C254.646 30.8338 256.214 36.8437 258.827 31.6176Z" fill="white"/>
<path d="M254.2 32.2807C254.2 32.2807 252.84 21.2013 247.724 22.6921C242.607 24.183 246.545 28.9069 248.338 31.2133C250.131 33.5197 254.301 38.1228 254.2 32.2807Z" fill="white"/>
<path d="M250.91 35.1343C250.91 35.1343 242.822 27.44 239.817 31.8416C236.812 36.2427 242.854 37.3903 245.704 38.0328C248.553 38.6753 254.698 39.5824 250.91 35.1343Z" fill="white"/>
<path d="M260.079 32.2807C260.079 32.2807 261.44 21.2013 266.556 22.6921C271.673 24.183 267.735 28.9069 265.942 31.2133C264.149 33.5197 259.979 38.1228 260.079 32.2807Z" fill="white"/>
<path d="M263.37 35.1343C263.37 35.1343 271.458 27.44 274.463 31.8416C277.468 36.2427 271.426 37.3903 268.576 38.0328C265.726 38.6753 259.582 39.5824 263.37 35.1343Z" fill="white"/>
<path d="M255.453 46.6385C255.453 46.6385 251.534 57.0906 256.76 58.1355C261.986 59.1809 260.679 53.1711 260.156 50.2965C259.634 47.4228 258.066 41.4125 255.453 46.6385Z" fill="white"/>
<path d="M260.079 45.9755C260.079 45.9755 261.44 57.0549 266.556 55.5641C271.673 54.0732 267.735 49.3494 265.942 47.0429C264.149 44.7365 259.979 40.1334 260.079 45.9755Z" fill="white"/>
<path d="M263.37 43.1225C263.37 43.1225 271.458 50.8167 274.463 46.4151C277.468 42.014 271.426 40.8664 268.576 40.2239C265.726 39.5809 259.582 38.6739 263.37 43.1225Z" fill="white"/>
<path d="M254.2 45.9755C254.2 45.9755 252.84 57.0549 247.724 55.5641C242.607 54.0732 246.545 49.3494 248.338 47.0429C250.131 44.7365 254.301 40.1334 254.2 45.9755Z" fill="white"/>
<path d="M250.91 43.1225C250.91 43.1225 242.822 50.8167 239.817 46.4151C236.812 42.014 242.854 40.8664 245.704 40.2239C248.554 39.5809 254.698 38.6739 250.91 43.1225Z" fill="white"/>
<path d="M258.801 47.0444C263.24 46.1867 266.143 41.8925 265.286 37.4531C264.428 33.0138 260.134 30.1103 255.694 30.9681C251.255 31.8258 248.352 36.12 249.209 40.5594C250.067 44.9987 254.361 47.9022 258.801 47.0444Z" fill="#FF9042"/>
<path d="M257.672 43.979C260.405 43.7525 262.436 41.3538 262.21 38.6213C261.983 35.8889 259.585 33.8574 256.852 34.0839C254.119 34.3103 252.087 36.7091 252.314 39.4415C252.54 42.174 254.939 44.2054 257.672 43.979Z" fill="#FF7742"/>
</svg>
