<svg width="391" height="827" viewBox="0 0 391 827" fill="none" xmlns="http://www.w3.org/2000/svg">
<path d="M142 738.287H308.034C334.544 738.287 356.034 716.797 356.034 690.287L356.034 416.302V103.498" stroke="#1A1B1F" stroke-width="3"/>
<mask id="path-2-outside-1_481_66" maskUnits="userSpaceOnUse" x="169.37" y="33" width="207" height="67" fill="black">
<rect fill="white" x="169.37" y="33" width="207" height="67"/>
<path d="M203.87 84.25V98H171.409V84.25H177.659V49.6016H171.409V35.8516H203.87V49.6016H197.659V84.25H203.87ZM256.878 70.3828L248.988 98H228.011L214.417 49.6016H208.011V35.7734H242.816V49.6016H236.878L243.128 71.75L253.284 35.7734H269.3L279.144 70.5781L285.198 49.6016H279.769V35.7734H305.55V49.6016H298.988L285.628 98H264.417L256.878 70.3828ZM338.636 98H309.925V84.25H316.175V49.6016H309.925V35.8516H338.714C350.016 35.8516 358.662 38.4688 364.652 43.7031C370.667 48.9115 373.675 56.6328 373.675 66.8672C373.675 76.8411 370.693 84.5234 364.73 89.9141C358.766 95.3047 350.068 98 338.636 98ZM336.175 49.6016V84.25H338.636C341.553 84.25 343.935 83.5078 345.784 82.0234C347.633 80.513 349.001 78.4427 349.886 75.8125C350.771 73.1823 351.214 70.2005 351.214 66.8672C351.214 61.763 350.225 57.6094 348.245 54.4062C346.266 51.2031 343.063 49.6016 338.636 49.6016H336.175Z"/>
</mask>
<path d="M203.87 84.25H205.87V82.25H203.87V84.25ZM203.87 98V100H205.87V98H203.87ZM171.409 98H169.409V100H171.409V98ZM171.409 84.25V82.25H169.409V84.25H171.409ZM177.659 84.25V86.25H179.659V84.25H177.659ZM177.659 49.6016H179.659V47.6016H177.659V49.6016ZM171.409 49.6016H169.409V51.6016H171.409V49.6016ZM171.409 35.8516V33.8516H169.409V35.8516H171.409ZM203.87 35.8516H205.87V33.8516H203.87V35.8516ZM203.87 49.6016V51.6016H205.87V49.6016H203.87ZM197.659 49.6016V47.6016H195.659V49.6016H197.659ZM197.659 84.25H195.659V86.25H197.659V84.25ZM201.87 84.25V98H205.87V84.25H201.87ZM203.87 96H171.409V100H203.87V96ZM173.409 98V84.25H169.409V98H173.409ZM171.409 86.25H177.659V82.25H171.409V86.25ZM179.659 84.25V49.6016H175.659V84.25H179.659ZM177.659 47.6016H171.409V51.6016H177.659V47.6016ZM173.409 49.6016V35.8516H169.409V49.6016H173.409ZM171.409 37.8516H203.87V33.8516H171.409V37.8516ZM201.87 35.8516V49.6016H205.87V35.8516H201.87ZM203.87 47.6016H197.659V51.6016H203.87V47.6016ZM195.659 49.6016V84.25H199.659V49.6016H195.659ZM197.659 86.25H203.87V82.25H197.659V86.25ZM256.878 70.3828L258.808 69.8561L256.922 62.9491L254.955 69.8334L256.878 70.3828ZM248.988 98V100H250.496L250.911 98.5494L248.988 98ZM228.011 98L226.085 98.5408L226.495 100H228.011V98ZM214.417 49.6016L216.343 49.0607L215.933 47.6016H214.417V49.6016ZM208.011 49.6016H206.011V51.6016H208.011V49.6016ZM208.011 35.7734V33.7734H206.011V35.7734H208.011ZM242.816 35.7734H244.816V33.7734H242.816V35.7734ZM242.816 49.6016V51.6016H244.816V49.6016H242.816ZM236.878 49.6016V47.6016H234.236L234.953 50.1447L236.878 49.6016ZM243.128 71.75L241.203 72.2932L243.128 79.1129L245.053 72.2934L243.128 71.75ZM253.284 35.7734V33.7734H251.771L251.36 35.2301L253.284 35.7734ZM269.3 35.7734L271.225 35.2291L270.813 33.7734H269.3V35.7734ZM279.144 70.5781L277.219 71.1224L279.124 77.8578L281.065 71.1328L279.144 70.5781ZM285.198 49.6016L287.12 50.1562L287.857 47.6016H285.198V49.6016ZM279.769 49.6016H277.769V51.6016H279.769V49.6016ZM279.769 35.7734V33.7734H277.769V35.7734H279.769ZM305.55 35.7734H307.55V33.7734H305.55V35.7734ZM305.55 49.6016V51.6016H307.55V49.6016H305.55ZM298.988 49.6016V47.6016H297.465L297.06 49.0694L298.988 49.6016ZM285.628 98V100H287.151L287.556 98.5322L285.628 98ZM264.417 98L262.488 98.5267L262.89 100H264.417V98ZM254.955 69.8334L247.065 97.4506L250.911 98.5494L258.801 70.9323L254.955 69.8334ZM248.988 96H228.011V100H248.988V96ZM229.936 97.4592L216.343 49.0607L212.492 50.1424L226.085 98.5408L229.936 97.4592ZM214.417 47.6016H208.011V51.6016H214.417V47.6016ZM210.011 49.6016V35.7734H206.011V49.6016H210.011ZM208.011 37.7734H242.816V33.7734H208.011V37.7734ZM240.816 35.7734V49.6016H244.816V35.7734H240.816ZM242.816 47.6016H236.878V51.6016H242.816V47.6016ZM234.953 50.1447L241.203 72.2932L245.053 71.2068L238.803 49.0584L234.953 50.1447ZM245.053 72.2934L255.209 36.3168L251.36 35.2301L241.203 71.2066L245.053 72.2934ZM253.284 37.7734H269.3V33.7734H253.284V37.7734ZM267.376 36.3177L277.219 71.1224L281.068 70.0338L271.225 35.2291L267.376 36.3177ZM281.065 71.1328L287.12 50.1562L283.277 49.0469L277.222 70.0235L281.065 71.1328ZM285.198 47.6016H279.769V51.6016H285.198V47.6016ZM281.769 49.6016V35.7734H277.769V49.6016H281.769ZM279.769 37.7734H305.55V33.7734H279.769V37.7734ZM303.55 35.7734V49.6016H307.55V35.7734H303.55ZM305.55 47.6016H298.988V51.6016H305.55V47.6016ZM297.06 49.0694L283.7 97.4678L287.556 98.5322L300.915 50.1337L297.06 49.0694ZM285.628 96H264.417V100H285.628V96ZM266.347 97.4733L258.808 69.8561L254.949 70.9095L262.488 98.5267L266.347 97.4733ZM309.925 98H307.925V100H309.925V98ZM309.925 84.25V82.25H307.925V84.25H309.925ZM316.175 84.25V86.25H318.175V84.25H316.175ZM316.175 49.6016H318.175V47.6016H316.175V49.6016ZM309.925 49.6016H307.925V51.6016H309.925V49.6016ZM309.925 35.8516V33.8516H307.925V35.8516H309.925ZM364.652 43.7031L363.336 45.2091L363.342 45.2152L364.652 43.7031ZM336.175 49.6016V47.6016H334.175V49.6016H336.175ZM336.175 84.25H334.175V86.25H336.175V84.25ZM345.784 82.0234L347.036 83.583L347.043 83.5777L347.05 83.5723L345.784 82.0234ZM348.245 54.4062L346.544 55.4575L348.245 54.4062ZM338.636 96H309.925V100H338.636V96ZM311.925 98V84.25H307.925V98H311.925ZM309.925 86.25H316.175V82.25H309.925V86.25ZM318.175 84.25V49.6016H314.175V84.25H318.175ZM316.175 47.6016H309.925V51.6016H316.175V47.6016ZM311.925 49.6016V35.8516H307.925V49.6016H311.925ZM309.925 37.8516H338.714V33.8516H309.925V37.8516ZM338.714 37.8516C349.734 37.8516 357.838 40.4047 363.336 45.2091L365.968 42.1972C359.486 36.5328 350.299 33.8516 338.714 33.8516V37.8516ZM363.342 45.2152C368.801 49.9409 371.675 57.0353 371.675 66.8672H375.675C375.675 56.2303 372.534 47.8821 365.961 42.1911L363.342 45.2152ZM371.675 66.8672C371.675 76.4222 368.835 83.5072 363.389 88.4304L366.071 91.3977C372.552 85.5397 375.675 77.2601 375.675 66.8672H371.675ZM363.389 88.4304C357.922 93.3716 349.781 96 338.636 96V100C350.356 100 359.61 97.2378 366.071 91.3977L363.389 88.4304ZM334.175 49.6016V84.25H338.175V49.6016H334.175ZM336.175 86.25H338.636V82.25H336.175V86.25ZM338.636 86.25C341.9 86.25 344.757 85.4133 347.036 83.583L344.532 80.4638C343.114 81.6023 341.205 82.25 338.636 82.25V86.25ZM347.05 83.5723C349.235 81.7871 350.796 79.3786 351.781 76.4506L347.991 75.1744C347.205 77.5068 346.032 79.2389 344.519 80.4746L347.05 83.5723ZM351.781 76.4506C352.748 73.5782 353.214 70.3752 353.214 66.8672H349.214C349.214 70.0258 348.794 72.7864 347.991 75.1744L351.781 76.4506ZM353.214 66.8672C353.214 61.5194 352.179 56.9674 349.947 53.355L346.544 55.4575C348.27 58.2513 349.214 62.0067 349.214 66.8672H353.214ZM349.947 53.355C347.534 49.4499 343.613 47.6016 338.636 47.6016V51.6016C342.513 51.6016 344.998 52.9563 346.544 55.4575L349.947 53.355ZM338.636 47.6016H336.175V51.6016H338.636V47.6016Z" fill="black" mask="url(#path-2-outside-1_481_66)"/>
<mask id="path-4-outside-2_481_66" maskUnits="userSpaceOnUse" x="1" y="700.589" width="129" height="72" fill="black">
<rect fill="white" x="1" y="700.589" width="129" height="72"/>
<path d="M61.377 770.589H5.56641V755.794C11.6862 753.45 16.9271 750.488 21.2891 746.907C23.8932 744.661 25.9928 742.627 27.5879 740.804C29.1829 738.981 30.3385 737.125 31.0547 735.237C31.8034 733.349 32.1777 731.201 32.1777 728.792C32.1777 726.448 31.5104 724.463 30.1758 722.835C28.8411 721.207 27.2461 720.393 25.3906 720.393C23.3073 720.393 21.696 721.045 20.5566 722.347C19.4173 723.649 18.8477 725.293 18.8477 727.278C18.8477 728.418 19.1406 729.573 19.7266 730.745C20.3451 731.917 21.0612 732.893 21.875 733.675L10.8887 742.171C8.61003 740.185 6.78711 737.532 5.41992 734.212C4.18294 731.185 3.56445 728.222 3.56445 725.325V724.153C3.56445 720.182 4.6875 716.666 6.93359 713.606C9.21224 710.449 12.4349 707.975 16.6016 706.185C20.7682 704.394 25.5208 703.499 30.8594 703.499C35.9701 703.499 40.4948 704.427 44.4336 706.282C48.4049 708.138 51.4974 710.758 53.7109 714.143C55.957 717.496 57.0801 721.305 57.0801 725.569C57.0801 729.573 55.9245 733.365 53.6133 736.946C51.3021 740.56 48.7305 743.603 45.8984 746.077C43.0664 748.551 39.8275 751.123 36.1816 753.792L34.2773 755.11H42.1875C45.3776 755.045 47.9167 754.541 49.8047 753.597C51.7253 752.653 52.6855 750.748 52.6855 747.884H61.084L61.377 770.589ZM122.314 756.477V770.589H87.9395V756.477H94.0918V750.081H68.1152V736.995L95.0195 705.11H116.406V737.581L127.539 737.483V750.081H116.406V756.477H122.314ZM94.0918 726.106L84.9121 737.483H94.0918V726.106Z"/>
</mask>
<path d="M61.377 770.589V772.589H63.4029L63.3768 770.563L61.377 770.589ZM5.56641 770.589H3.56641V772.589H5.56641V770.589ZM5.56641 755.794L4.85111 753.926L3.56641 754.418V755.794H5.56641ZM21.2891 746.907L22.558 748.453L22.5769 748.438L22.5953 748.422L21.2891 746.907ZM31.0547 735.237L29.1955 734.5L29.19 734.514L29.1847 734.528L31.0547 735.237ZM19.7266 730.745L17.9377 731.639L17.9475 731.659L17.9578 731.679L19.7266 730.745ZM21.875 733.675L23.0985 735.257L24.9331 733.838L23.2601 732.232L21.875 733.675ZM10.8887 742.171L9.57472 743.679L10.8129 744.758L12.1122 743.753L10.8887 742.171ZM5.41992 734.212L3.5685 734.968L3.57057 734.973L5.41992 734.212ZM6.93359 713.606L8.54586 714.79L8.55065 714.783L8.55539 714.777L6.93359 713.606ZM16.6016 706.185L17.3911 708.022L16.6016 706.185ZM44.4336 706.282L43.5813 708.091L43.587 708.094L44.4336 706.282ZM53.7109 714.143L52.037 715.238L52.0431 715.247L52.0493 715.257L53.7109 714.143ZM53.6133 736.946L51.9329 735.862L51.9285 735.869L53.6133 736.946ZM45.8984 746.077L44.5827 744.571L45.8984 746.077ZM36.1816 753.792L37.3201 755.436L37.3418 755.421L37.3631 755.406L36.1816 753.792ZM34.2773 755.11L33.1389 753.466L27.8748 757.11H34.2773V755.11ZM42.1875 755.11V757.11H42.2079L42.2283 757.11L42.1875 755.11ZM49.8047 753.597L48.9224 751.802L48.9103 751.808L49.8047 753.597ZM52.6855 747.884V745.884H50.6855V747.884H52.6855ZM61.084 747.884L63.0838 747.858L63.0583 745.884H61.084V747.884ZM61.377 768.589H5.56641V772.589H61.377V768.589ZM7.56641 770.589V755.794H3.56641V770.589H7.56641ZM6.2817 757.662C12.5705 755.253 18.0057 752.19 22.558 748.453L20.0201 745.361C15.8485 748.786 10.8019 751.647 4.85111 753.926L6.2817 757.662ZM22.5953 748.422C25.2435 746.138 27.4168 744.036 29.093 742.121L26.0827 739.487C24.5689 741.217 22.5429 743.185 19.9828 745.393L22.5953 748.422ZM29.093 742.121C30.8145 740.153 32.1091 738.097 32.9247 735.947L29.1847 734.528C28.568 736.154 27.5514 737.808 26.0827 739.487L29.093 742.121ZM32.9138 735.974C33.7712 733.813 34.1777 731.407 34.1777 728.792H30.1777C30.1777 730.994 29.8356 732.886 29.1955 734.5L32.9138 735.974ZM34.1777 728.792C34.1777 726.042 33.3837 723.593 31.7223 721.567L28.6292 724.103C29.6371 725.332 30.1777 726.855 30.1777 728.792H34.1777ZM31.7223 721.567C30.0653 719.546 27.9303 718.393 25.3906 718.393V722.393C26.5619 722.393 27.617 722.869 28.6292 724.103L31.7223 721.567ZM25.3906 718.393C22.8592 718.393 20.6478 719.205 19.0515 721.03L22.0618 723.664C22.7441 722.884 23.7554 722.393 25.3906 722.393V718.393ZM19.0515 721.03C17.5464 722.75 16.8477 724.884 16.8477 727.278H20.8477C20.8477 725.701 21.2883 724.548 22.0618 723.664L19.0515 721.03ZM16.8477 727.278C16.8477 728.772 17.2338 730.232 17.9377 731.639L21.5154 729.851C21.0475 728.915 20.8477 728.064 20.8477 727.278H16.8477ZM17.9578 731.679C18.6591 733.007 19.4976 734.165 20.4899 735.118L23.2601 732.232C22.6248 731.622 22.031 730.826 21.4953 729.812L17.9578 731.679ZM20.6515 732.093L9.66518 740.589L12.1122 743.753L23.0985 735.257L20.6515 732.093ZM12.2026 740.663C10.198 738.916 8.54037 736.537 7.26928 733.45L3.57057 734.973C5.03385 738.527 7.02205 741.454 9.57472 743.679L12.2026 740.663ZM7.27133 733.455C6.11989 730.637 5.56445 727.932 5.56445 725.325H1.56445C1.56445 728.513 2.246 731.732 3.56851 734.968L7.27133 733.455ZM5.56445 725.325V724.153H1.56445V725.325H5.56445ZM5.56445 724.153C5.56445 720.587 6.56383 717.49 8.54586 714.79L5.32133 712.423C2.81117 715.843 1.56445 719.777 1.56445 724.153H5.56445ZM8.55539 714.777C10.5894 711.958 13.5016 709.693 17.3911 708.022L15.812 704.347C11.3682 706.256 7.83511 708.939 5.31179 712.436L8.55539 714.777ZM17.3911 708.022C21.2682 706.356 25.7449 705.499 30.8594 705.499V701.499C25.2968 701.499 20.2683 702.432 15.812 704.347L17.3911 708.022ZM30.8594 705.499C35.7262 705.499 39.9515 706.382 43.5813 708.091L45.2859 704.473C41.0381 702.472 36.2139 701.499 30.8594 701.499V705.499ZM43.587 708.094C47.2505 709.806 50.0441 712.19 52.037 715.238L55.3849 713.049C52.9507 709.326 49.5594 706.469 45.2802 704.47L43.587 708.094ZM52.0493 715.257C54.062 718.261 55.0801 721.678 55.0801 725.569H59.0801C59.0801 720.932 57.8521 716.732 55.3726 713.03L52.0493 715.257ZM55.0801 725.569C55.0801 729.163 54.0495 732.582 51.9329 735.862L55.2937 738.031C57.7994 734.149 59.0801 729.983 59.0801 725.569H55.0801ZM51.9285 735.869C49.7053 739.344 47.2536 742.238 44.5827 744.571L47.2142 747.583C50.2073 744.969 52.8989 741.775 55.2981 738.024L51.9285 735.869ZM44.5827 744.571C41.8014 747 38.6086 749.536 35.0002 752.178L37.3631 755.406C41.0464 752.709 44.3314 750.102 47.2142 747.583L44.5827 744.571ZM35.0432 752.148L33.1389 753.466L35.4158 756.755L37.3201 755.436L35.0432 752.148ZM34.2773 757.11H42.1875V753.11H34.2773V757.11ZM42.2283 757.11C45.577 757.042 48.445 756.513 50.6991 755.385L48.9103 751.808C47.3883 752.569 45.1782 753.049 42.1467 753.111L42.2283 757.11ZM50.6869 755.392C53.5266 753.996 54.6855 751.208 54.6855 747.884H50.6855C50.6855 750.288 49.9239 751.309 48.9224 751.802L50.6869 755.392ZM52.6855 749.884H61.084V745.884H52.6855V749.884ZM59.0842 747.91L59.3771 770.615L63.3768 770.563L63.0838 747.858L59.0842 747.91ZM122.314 756.477H124.314V754.477H122.314V756.477ZM122.314 770.589V772.589H124.314V770.589H122.314ZM87.9395 770.589H85.9395V772.589H87.9395V770.589ZM87.9395 756.477V754.477H85.9395V756.477H87.9395ZM94.0918 756.477V758.477H96.0918V756.477H94.0918ZM94.0918 750.081H96.0918V748.081H94.0918V750.081ZM68.1152 750.081H66.1152V752.081H68.1152V750.081ZM68.1152 736.995L66.5867 735.705L66.1152 736.264V736.995H68.1152ZM95.0195 705.11V703.11H94.0903L93.491 703.821L95.0195 705.11ZM116.406 705.11H118.406V703.11H116.406V705.11ZM116.406 737.581H114.406V739.599L116.424 739.581L116.406 737.581ZM127.539 737.483H129.539V735.466L127.522 735.483L127.539 737.483ZM127.539 750.081V752.081H129.539V750.081H127.539ZM116.406 750.081V748.081H114.406V750.081H116.406ZM116.406 756.477H114.406V758.477H116.406V756.477ZM94.0918 726.106H96.0918V720.443L92.5353 724.85L94.0918 726.106ZM84.9121 737.483L83.3556 736.227L80.7285 739.483H84.9121V737.483ZM94.0918 737.483V739.483H96.0918V737.483H94.0918ZM120.314 756.477V770.589H124.314V756.477H120.314ZM122.314 768.589H87.9395V772.589H122.314V768.589ZM89.9395 770.589V756.477H85.9395V770.589H89.9395ZM87.9395 758.477H94.0918V754.477H87.9395V758.477ZM96.0918 756.477V750.081H92.0918V756.477H96.0918ZM94.0918 748.081H68.1152V752.081H94.0918V748.081ZM70.1152 750.081V736.995H66.1152V750.081H70.1152ZM69.6438 738.285L96.5481 706.4L93.491 703.821L66.5867 735.705L69.6438 738.285ZM95.0195 707.11H116.406V703.11H95.0195V707.11ZM114.406 705.11V737.581H118.406V705.11H114.406ZM116.424 739.581L127.557 739.483L127.522 735.483L116.389 735.581L116.424 739.581ZM125.539 737.483V750.081H129.539V737.483H125.539ZM127.539 748.081H116.406V752.081H127.539V748.081ZM114.406 750.081V756.477H118.406V750.081H114.406ZM116.406 758.477H122.314V754.477H116.406V758.477ZM92.5353 724.85L83.3556 736.227L86.4686 738.739L95.6483 727.362L92.5353 724.85ZM84.9121 739.483H94.0918V735.483H84.9121V739.483ZM96.0918 737.483V726.106H92.0918V737.483H96.0918Z" fill="black" mask="url(#path-4-outside-2_481_66)"/>
</svg>
