<svg width="992" height="925" viewBox="0 0 992 925" fill="none" xmlns="http://www.w3.org/2000/svg">
<mask id="mask0_439_46" style="mask-type:alpha" maskUnits="userSpaceOnUse" x="534" y="666" width="482" height="340">
<path d="M536 826.594L823.872 669L1013.89 774.963V1004H759.333H536V826.594Z" fill="#1A1B1F"/>
<path d="M536 826.594L823.872 669L1013.89 774.963M536 826.594C621.374 875.188 670.127 890.649 759.333 888.431M536 826.594C536 833.798 536 947.967 536 1004H759.333M1013.89 774.963V1004H759.333M1013.89 774.963C893.032 848.407 836.305 874.613 759.333 888.431M759.333 1004V888.431" stroke="#1A1B1F" stroke-width="4"/>
</mask>
<g mask="url(#mask0_439_46)">
<path d="M1013.89 1004V774.963C893.031 848.407 836.305 874.613 759.333 888.431V1004H1013.89Z" fill="#1A1B1F" stroke="#1A1B1F" stroke-width="4"/>
<path d="M823.872 669L536 826.594C621.374 875.188 670.127 890.649 759.333 888.431C836.305 874.613 893.032 848.407 1013.89 774.963L823.872 669Z" fill="white" stroke="#1A1B1F" stroke-width="4"/>
<path d="M955.633 886.316L914.006 910.964C913.398 911.324 913.025 911.978 913.025 912.685V942.036C913.025 943.567 914.677 944.531 916.01 943.776L957.637 920.224C958.265 919.869 958.652 919.204 958.652 918.483V888.037C958.652 886.488 956.967 885.527 955.633 886.316Z" fill="white"/>
<path d="M759.333 888.431V1004H536V826.594C621.374 875.188 670.127 890.649 759.333 888.431Z" fill="#31A8F3" stroke="#1A1B1F" stroke-width="4"/>
</g>
<path d="M808 791.63C805.733 804.222 787.403 808 773.492 808C759.582 808 742.259 802.711 741 791.63C741 779.541 759.582 774 773.492 774C787.403 774 806.741 778.281 808 791.63Z" fill="#1A1B1F"/>
<path d="M775 789.5V535.5" stroke="#1A1B1F" stroke-width="3"/>
<path d="M872.863 538.014C873.062 538.118 873.242 538.226 873.404 538.345C841.443 554.293 809.494 570.264 777.556 586.257L777.554 586.258C776.171 586.954 775.033 587.095 773.961 586.947C772.851 586.794 771.749 586.326 770.432 585.678C748.025 574.465 725.604 563.287 703.169 552.143C693.996 547.568 684.83 542.975 675.672 538.365C676.043 538.076 676.459 537.829 676.916 537.599C677.349 537.381 677.803 537.186 678.288 536.98L678.376 536.942C678.826 536.751 679.303 536.548 679.769 536.321L679.769 536.322L679.778 536.317C709.081 521.672 738.4 507.05 767.734 492.452C768.914 491.868 770.072 491.228 771.205 490.602C771.749 490.301 772.287 490.004 772.819 489.717L772.89 489.679L772.954 489.629C773.275 489.383 773.621 489.172 773.987 489H775.204C775.555 489.139 775.883 489.334 776.173 489.577C776.374 489.804 776.63 489.976 776.917 490.077C777.126 490.15 777.346 490.183 777.566 490.176C777.895 490.314 778.202 490.501 778.474 490.733C778.676 490.957 778.932 491.128 779.217 491.228C779.426 491.301 779.646 491.335 779.866 491.328C780.198 491.464 780.506 491.652 780.779 491.886C780.982 492.112 781.241 492.283 781.529 492.382L781.854 491.438L781.529 492.382C781.736 492.453 781.952 492.485 782.169 492.479C782.499 492.617 782.806 492.805 783.079 493.036C783.282 493.262 783.539 493.433 783.827 493.533C784.035 493.606 784.254 493.639 784.472 493.633C784.802 493.771 785.109 493.959 785.384 494.19C785.585 494.416 785.84 494.587 786.127 494.687C786.336 494.76 786.555 494.794 786.774 494.787C787.106 494.926 787.416 495.114 787.691 495.346C787.893 495.57 788.148 495.74 788.433 495.84C788.641 495.913 788.86 495.946 789.079 495.94C789.409 496.077 789.717 496.265 789.989 496.498C790.192 496.724 790.45 496.895 790.739 496.994L791.064 496.048L790.739 496.994C790.946 497.065 791.163 497.097 791.379 497.09C791.711 497.228 792.019 497.416 792.295 497.648C792.497 497.874 792.754 498.046 793.042 498.146C793.253 498.219 793.474 498.252 793.695 498.245C794.032 498.383 794.346 498.573 794.626 498.807C794.846 499.023 795.115 499.185 795.41 499.279C795.602 499.341 795.801 499.372 796.001 499.373C796.327 499.538 796.639 499.731 796.933 499.948C797.145 500.159 797.402 500.319 797.686 500.416C797.885 500.484 798.092 500.519 798.3 500.52C798.628 500.689 798.943 500.883 799.241 501.1C799.45 501.307 799.702 501.466 799.981 501.563L800.311 500.619L799.981 501.563C800.18 501.632 800.387 501.669 800.596 501.672C800.928 501.842 801.246 502.037 801.548 502.255C801.755 502.461 802.003 502.621 802.277 502.724L802.628 501.787L802.277 502.724C802.469 502.796 802.67 502.839 802.873 502.851C810.525 507.224 818.467 511.096 826.371 514.95C830.423 516.925 834.464 518.895 838.451 520.926C845.038 524.29 851.674 527.578 858.304 530.864C862.481 532.934 866.656 535.003 870.817 537.09C871.161 537.263 871.517 537.413 871.838 537.549L871.907 537.578C872.259 537.726 872.572 537.861 872.863 538.014Z" fill="#1A1B1F" stroke="#1A1B1F" stroke-width="2"/>
<path d="M872.866 506.524C873.058 506.624 873.233 506.727 873.39 506.84C841.435 522.625 809.492 538.433 777.56 554.263L777.558 554.264C776.174 554.954 775.034 555.094 773.96 554.948C772.848 554.796 771.745 554.332 770.428 553.69C748.021 542.59 725.601 531.523 703.167 520.491C693.999 515.965 684.839 511.421 675.685 506.859C676.052 506.579 676.462 506.338 676.913 506.114C677.346 505.898 677.8 505.705 678.285 505.501C678.314 505.488 678.343 505.476 678.373 505.464C678.823 505.274 679.3 505.073 679.765 504.849L679.765 504.849L679.774 504.844C709.078 490.346 738.396 475.87 767.73 461.418C768.911 460.84 770.069 460.207 771.201 459.587C771.745 459.289 772.283 458.995 772.815 458.711L772.886 458.673L772.951 458.624C773.272 458.379 773.618 458.17 773.985 458H775.205C775.558 458.138 775.886 458.331 776.176 458.572C776.378 458.797 776.634 458.967 776.92 459.066C777.129 459.139 777.348 459.172 777.568 459.164C777.898 459.301 778.205 459.487 778.478 459.716C778.68 459.939 778.936 460.107 779.22 460.206C779.429 460.278 779.649 460.312 779.868 460.305C780.2 460.44 780.509 460.626 780.782 460.858C780.987 461.082 781.245 461.251 781.532 461.349L781.853 460.404L781.532 461.349C781.738 461.419 781.955 461.451 782.17 461.444C782.501 461.581 782.809 461.767 783.083 461.997C783.286 462.221 783.543 462.39 783.83 462.488C784.038 462.56 784.256 462.593 784.473 462.586C784.804 462.724 785.112 462.91 785.387 463.139C785.589 463.363 785.845 463.532 786.13 463.631C786.338 463.703 786.557 463.736 786.776 463.729C787.109 463.867 787.419 464.054 787.695 464.284C787.897 464.506 788.152 464.673 788.436 464.772C788.644 464.844 788.863 464.877 789.081 464.871C789.412 465.006 789.72 465.193 789.992 465.424C790.197 465.648 790.455 465.817 790.742 465.914L791.064 464.968L790.742 465.914C790.948 465.985 791.165 466.016 791.381 466.009C791.713 466.146 792.023 466.333 792.298 466.562C792.501 466.787 792.758 466.956 793.045 467.055C793.255 467.128 793.476 467.16 793.696 467.152C794.035 467.289 794.349 467.477 794.63 467.71C794.851 467.924 795.119 468.084 795.412 468.177C795.604 468.238 795.803 468.268 796.003 468.269C796.33 468.433 796.642 468.624 796.937 468.839C797.149 469.049 797.406 469.207 797.689 469.302C797.888 469.369 798.095 469.404 798.302 469.405C798.631 469.573 798.946 469.765 799.245 469.98C799.454 470.185 799.706 470.342 799.984 470.438L800.311 469.493L799.984 470.438C800.183 470.506 800.39 470.542 800.598 470.546C800.93 470.714 801.249 470.907 801.552 471.124C801.759 471.328 802.007 471.485 802.28 471.587C802.472 471.658 802.673 471.701 802.876 471.713C810.528 476.042 818.47 479.875 826.375 483.691C830.426 485.646 834.467 487.597 838.453 489.606C845.041 492.937 851.677 496.193 858.307 499.446C862.484 501.495 866.659 503.543 870.82 505.609C871.163 505.78 871.52 505.929 871.841 506.064L871.91 506.092C872.262 506.24 872.575 506.373 872.866 506.524Z" fill="white" stroke="#1A1B1F" stroke-width="2"/>
<path d="M872.863 473.014C873.062 473.118 873.242 473.226 873.404 473.345C841.443 489.293 809.494 505.264 777.556 521.257L777.554 521.258C776.171 521.954 775.033 522.095 773.961 521.947C772.851 521.794 771.749 521.326 770.432 520.678C748.025 509.465 725.604 498.287 703.169 487.143C693.996 482.568 684.83 477.975 675.672 473.365C676.043 473.076 676.459 472.829 676.916 472.599C677.349 472.381 677.803 472.186 678.288 471.98L678.376 471.942C678.826 471.751 679.303 471.548 679.769 471.321L679.769 471.322L679.778 471.317C709.081 456.672 738.4 442.05 767.734 427.452C768.914 426.868 770.072 426.228 771.205 425.602C771.749 425.301 772.287 425.004 772.819 424.717L772.89 424.679L772.954 424.629C773.275 424.383 773.621 424.172 773.987 424H775.204C775.555 424.139 775.883 424.334 776.173 424.577C776.374 424.804 776.63 424.976 776.917 425.077C777.126 425.15 777.346 425.183 777.566 425.176C777.895 425.314 778.202 425.501 778.474 425.733C778.676 425.957 778.932 426.128 779.217 426.228C779.426 426.301 779.646 426.335 779.866 426.328C780.198 426.464 780.506 426.652 780.779 426.886C780.982 427.112 781.241 427.283 781.529 427.382L781.854 426.438L781.529 427.382C781.736 427.453 781.952 427.485 782.169 427.479C782.499 427.617 782.806 427.805 783.079 428.036C783.282 428.262 783.539 428.433 783.827 428.533C784.035 428.606 784.254 428.639 784.472 428.633C784.802 428.771 785.109 428.959 785.384 429.19C785.585 429.416 785.84 429.587 786.127 429.687C786.336 429.76 786.555 429.794 786.774 429.787C787.106 429.926 787.416 430.114 787.691 430.346C787.893 430.57 788.148 430.74 788.433 430.84C788.641 430.913 788.86 430.946 789.079 430.94C789.409 431.077 789.717 431.265 789.989 431.498C790.192 431.724 790.45 431.895 790.739 431.994L791.064 431.048L790.739 431.994C790.946 432.065 791.163 432.097 791.379 432.09C791.711 432.228 792.019 432.416 792.295 432.648C792.497 432.874 792.754 433.046 793.042 433.146C793.253 433.219 793.474 433.252 793.695 433.245C794.032 433.383 794.346 433.573 794.626 433.807C794.846 434.023 795.115 434.185 795.41 434.279C795.602 434.341 795.801 434.372 796.001 434.373C796.327 434.538 796.639 434.731 796.933 434.948C797.145 435.159 797.402 435.319 797.686 435.416C797.885 435.484 798.092 435.519 798.3 435.52C798.628 435.689 798.943 435.883 799.241 436.1C799.45 436.307 799.702 436.466 799.981 436.563L800.311 435.619L799.981 436.563C800.18 436.632 800.387 436.669 800.596 436.672C800.928 436.842 801.246 437.037 801.548 437.255C801.755 437.461 802.003 437.621 802.277 437.724L802.628 436.787L802.277 437.724C802.469 437.796 802.67 437.839 802.873 437.851C810.525 442.224 818.467 446.096 826.371 449.95C830.423 451.925 834.464 453.895 838.451 455.926C845.038 459.29 851.674 462.578 858.304 465.864C862.481 467.934 866.656 470.003 870.817 472.09C871.161 472.263 871.517 472.413 871.838 472.549L871.907 472.578C872.259 472.726 872.572 472.861 872.863 473.014Z" fill="#00E09E" stroke="#1A1B1F" stroke-width="2"/>
<path d="M677.5 506.5H193" stroke="#1A1B1F" stroke-width="3"/>
<path d="M195.5 507H75.5C48.9903 507 27.5 528.49 27.5 555V770V1025.5" stroke="#1A1B1F" stroke-width="3"/>
<rect y="770.284" width="40" height="40" rx="2" transform="rotate(-45 0 770.284)" fill="#1A1B1F"/>
<path d="M774.5 427V211" stroke="#202124" stroke-width="3"/>
<path d="M840.956 173.076C840.956 208 811.465 236.38 775 236.38C738.535 236.38 709.044 208 709.044 173.076C709.044 138.152 738.535 109.772 775 109.772C811.465 109.772 840.956 138.152 840.956 173.076Z" fill="#1A1B1F" stroke="#1A1B1F" stroke-width="2"/>
<path d="M708.961 163.981C713.805 132.398 739.429 107.085 772.562 109.653C803.037 112.016 822.355 134.914 826.684 163.981C831.876 198.836 807.941 234.772 771.339 236.809C733.057 238.939 703.372 200.414 708.961 163.981Z" fill="white" stroke="#1A1B1F" stroke-width="2"/>
<mask id="mask1_439_46" style="mask-type:alpha" maskUnits="userSpaceOnUse" x="708" y="108" width="126" height="130">
<path d="M832.447 171.017V171.024C832.447 207.057 805.082 236.456 771.064 236.456C737.001 236.456 709.377 208.986 709.377 173C709.377 137.023 736.986 109.559 771.035 109.544C805.453 111.506 832.686 136.978 832.447 171.017Z" fill="white" stroke="black" stroke-width="2"/>
</mask>
<g mask="url(#mask1_439_46)">
<path d="M767.02 130.04C751.728 122.776 745.058 120.469 736.571 119.013C736.064 118.926 735.535 119.047 735.114 119.342C708.091 138.302 706.769 168.241 710.461 191.626C710.663 192.905 712.026 193.635 713.16 193.01C719.174 189.692 723.42 184.28 730.466 174.52C735.775 166.223 737.098 164.515 750.508 165.399C758.255 165.169 760.939 164.153 764.3 161.727C764.417 161.642 764.526 161.543 764.621 161.434C768.561 156.946 770.638 153.719 772.787 142.949C772.814 142.818 772.827 142.679 772.826 142.545C772.785 136.981 772.206 133.986 767.376 130.258C767.267 130.174 767.144 130.099 767.02 130.04Z" fill="#00E09E"/>
<path d="M738.038 214.522L739.732 224.434C739.824 224.977 739.659 225.531 739.285 225.934C738.556 226.721 738.688 227.974 739.579 228.572C744.98 232.195 748.909 233.939 755.958 235.147C756.068 235.166 756.181 235.176 756.293 235.176C758.001 235.174 760.512 235.107 763.413 233.047C766.32 230.983 780.3 210.756 781.138 209.542C781.165 209.502 781.19 209.463 781.214 209.421C785.259 202.523 785.9 198.677 781.346 192.239C781.236 192.084 781.101 191.943 780.951 191.826L763.527 178.257C763.451 178.198 763.37 178.144 763.286 178.097C758.245 175.251 755.041 174.915 748.914 177.261C748.664 177.356 748.433 177.507 748.24 177.693C744.641 181.149 744.316 180.15 739.879 186.074C731.528 195.043 731.966 197.056 732.287 205.076C732.711 208.46 733.609 210.366 737.276 213.256C737.676 213.571 737.953 214.02 738.038 214.522Z" fill="#00E09E"/>
<path d="M815.433 177.489L823.694 182.198C824.913 182.894 826.452 182.141 826.641 180.75C829.578 159.077 826.724 148.337 815.959 134.407C815.168 133.383 813.618 133.398 812.952 134.507C809.538 140.19 809.078 146.851 807.853 157.038C806.479 169.358 809.309 172.561 815.166 177.306C815.249 177.373 815.34 177.435 815.433 177.489Z" fill="#00E09E"/>
<path d="M806.233 196.075C804.342 193.509 804.129 191.8 805.037 188.776C805.091 188.597 805.172 188.426 805.277 188.272C806.663 186.243 807.803 185.536 810.551 185.185C810.674 185.169 810.801 185.165 810.925 185.175C813.642 185.392 814.952 186.219 816.87 188.245C817.032 188.416 817.163 188.617 817.248 188.838C818.404 191.833 817.742 193.503 815.516 196.148C815.369 196.323 815.192 196.47 814.992 196.581C812.227 198.121 810.416 198.474 806.856 196.609C806.611 196.481 806.397 196.298 806.233 196.075Z" fill="#00E09E"/>
<path d="M767.02 130.04C751.728 122.776 745.058 120.469 736.571 119.013C736.064 118.926 735.535 119.047 735.114 119.342C708.091 138.302 706.769 168.241 710.461 191.626C710.663 192.905 712.026 193.635 713.16 193.01C719.174 189.692 723.42 184.28 730.466 174.52C735.775 166.223 737.098 164.515 750.508 165.399C758.255 165.169 760.939 164.153 764.3 161.727C764.417 161.642 764.526 161.543 764.621 161.434C768.561 156.946 770.638 153.719 772.787 142.949C772.814 142.818 772.827 142.679 772.826 142.545C772.785 136.981 772.206 133.986 767.376 130.258C767.267 130.174 767.144 130.099 767.02 130.04Z" stroke="#1A1B1F" stroke-width="2"/>
<path d="M738.038 214.522L739.732 224.434C739.824 224.977 739.659 225.531 739.285 225.934C738.556 226.721 738.688 227.974 739.579 228.572C744.98 232.195 748.909 233.939 755.958 235.147C756.068 235.166 756.181 235.176 756.293 235.176C758.001 235.174 760.512 235.107 763.413 233.047C766.32 230.983 780.3 210.756 781.138 209.542C781.165 209.502 781.19 209.463 781.214 209.421C785.259 202.523 785.9 198.677 781.346 192.239C781.236 192.084 781.101 191.943 780.951 191.826L763.527 178.257C763.451 178.198 763.37 178.144 763.286 178.097C758.245 175.251 755.041 174.915 748.914 177.261C748.664 177.356 748.433 177.507 748.24 177.693C744.641 181.149 744.316 180.15 739.879 186.074C731.528 195.043 731.966 197.056 732.287 205.076C732.711 208.46 733.609 210.366 737.276 213.256C737.676 213.571 737.953 214.02 738.038 214.522Z" stroke="#1A1B1F" stroke-width="2"/>
<path d="M815.433 177.489L823.694 182.198C824.913 182.894 826.452 182.141 826.641 180.75C829.578 159.077 826.724 148.337 815.959 134.407C815.168 133.383 813.618 133.398 812.952 134.507C809.538 140.19 809.078 146.851 807.853 157.038C806.479 169.358 809.309 172.561 815.166 177.306C815.249 177.373 815.34 177.435 815.433 177.489Z" stroke="#1A1B1F" stroke-width="2"/>
<path d="M806.233 196.075C804.342 193.509 804.129 191.8 805.037 188.776C805.091 188.597 805.172 188.426 805.277 188.272C806.663 186.243 807.803 185.536 810.551 185.185C810.674 185.169 810.801 185.165 810.925 185.175C813.642 185.392 814.952 186.219 816.87 188.245C817.032 188.416 817.163 188.617 817.248 188.838C818.404 191.833 817.742 193.503 815.516 196.148C815.369 196.323 815.192 196.47 814.992 196.581C812.227 198.121 810.416 198.474 806.856 196.609C806.611 196.481 806.397 196.298 806.233 196.075Z" stroke="#1A1B1F" stroke-width="2"/>
</g>
<path d="M775.5 109.5V50C775.5 23.4903 796.99 2 823.5 2H1003.5" stroke="#202124" stroke-width="3"/>
</svg>
