<svg width="104" height="100" viewBox="0 0 104 100" fill="none" xmlns="http://www.w3.org/2000/svg">
<path d="M102.232 49.5578C102.232 75.9404 80.0027 97.3921 52.5001 97.3921C24.9974 97.3921 2.76782 75.9404 2.76782 49.5578C2.76782 23.1753 24.9974 1.72351 52.5001 1.72351C80.0027 1.72351 102.232 23.1753 102.232 49.5578Z" fill="#1A1B1F" stroke="#1A1B1F" stroke-width="2"/>
<path d="M2.46266 42.6505C6.13326 18.6654 25.5483 -0.558273 50.6529 1.39255C73.7433 3.18686 88.3809 20.5763 91.6609 42.6505C95.5941 69.121 77.4587 96.4115 49.7261 97.9585C20.7202 99.5766 -1.77171 70.3196 2.46266 42.6505Z" fill="white" stroke="#1A1B1F" stroke-width="2"/>
<mask id="mask0_434_39" style="mask-type:alpha" maskUnits="userSpaceOnUse" x="2" y="0" width="95" height="99">
<path d="M95.7852 47.9921V47.9991C95.7852 75.2487 75.1425 97.4501 49.5181 97.4501C23.849 97.4501 3.02051 76.7027 3.02051 49.5C3.02051 22.3072 23.8332 1.56508 49.4893 1.54981C75.4517 3.03684 95.965 22.2887 95.7852 47.9921Z" fill="white" stroke="black" stroke-width="2"/>
</mask>
<g mask="url(#mask0_434_39)">
<path d="M46.4075 16.853C34.9703 11.4091 29.9072 9.64023 23.576 8.53426C23.0684 8.44559 22.539 8.56597 22.1186 8.86396C2.02919 23.1049 0.834712 45.4189 3.50614 63.0395C3.70037 64.3207 5.06647 65.0506 6.18041 64.3886C10.4599 61.8455 13.6303 57.7724 18.7571 50.6544C22.7793 44.3536 23.7823 43.0562 33.9427 43.7275C39.7797 43.5538 41.8232 42.7901 44.35 40.9697C44.4674 40.8851 44.5758 40.7856 44.6711 40.6766C47.6281 37.2952 49.1956 34.8354 50.8143 26.7257C50.8404 26.5948 50.8537 26.457 50.8527 26.3236C50.8188 22.1437 50.3726 19.8776 46.7633 17.0711C46.6546 16.9866 46.5318 16.9122 46.4075 16.853Z" fill="#00E09E"/>
<path d="M24.5265 81.2205L25.7778 88.5614C25.8479 88.973 25.7229 89.3938 25.4393 89.7003C24.8861 90.2981 24.9869 91.2487 25.6628 91.7033C29.7441 94.448 32.7161 95.7727 38.0312 96.6897C38.1415 96.7088 38.2544 96.7185 38.3664 96.7182C39.66 96.7155 41.5458 96.6501 43.7206 95.1021C45.914 93.5409 56.4277 78.3009 57.1424 77.2632C57.1696 77.2237 57.1933 77.186 57.2175 77.1446C60.2624 71.9353 60.7519 69.0183 57.3486 64.1675C57.2392 64.0116 57.1044 63.8715 56.9543 63.7543L43.8344 53.514C43.7587 53.4549 43.6775 53.4004 43.5938 53.3532C39.8174 51.2219 37.3972 50.9626 32.8266 52.7008C32.5759 52.7961 32.3477 52.9462 32.1538 53.1315C29.4932 55.6756 29.222 54.9689 25.8891 59.4285C19.5617 66.24 19.8937 67.7691 20.1369 73.8596C20.4523 76.3829 21.1142 77.8243 23.7679 79.9532C24.1646 80.2714 24.4411 80.7192 24.5265 81.2205Z" fill="#00E09E"/>
<path d="M83.1702 52.9283L88.7797 56.1338C89.9996 56.8309 91.5402 56.0795 91.7206 54.6861C93.7584 38.9439 91.6429 30.8746 83.9092 20.6803C83.1261 19.6481 81.5723 19.6672 80.9483 20.8026C78.6399 25.003 78.2827 29.9595 77.3926 37.3778C76.3542 46.7129 78.4859 49.1556 82.9027 52.745C82.9863 52.8129 83.0767 52.8748 83.1702 52.9283Z" fill="#00E09E"/>
<path d="M76.1058 66.9423C74.7411 65.0564 74.5836 63.7696 75.2398 61.5453C75.2926 61.3663 75.3735 61.1954 75.4794 61.0417C76.5049 59.5548 77.3678 59.0247 79.3918 58.7592C79.5156 58.7429 79.6414 58.7396 79.7658 58.7501C81.7659 58.9182 82.7547 59.5333 84.1656 61.0149C84.3283 61.1858 84.459 61.3875 84.5418 61.6086C85.3656 63.8088 84.876 65.0671 83.2529 67.0149C83.1068 67.1902 82.9282 67.3384 82.7284 67.4488C80.6981 68.5709 79.3344 68.8236 76.7285 67.4771C76.4828 67.3501 76.2679 67.1663 76.1058 66.9423Z" fill="#00E09E"/>
<path d="M46.4075 16.853C34.9703 11.4091 29.9072 9.64023 23.576 8.53426C23.0684 8.44559 22.539 8.56597 22.1186 8.86396C2.02919 23.1049 0.834712 45.4189 3.50614 63.0395C3.70037 64.3207 5.06647 65.0506 6.18041 64.3886C10.4599 61.8455 13.6303 57.7724 18.7571 50.6544C22.7793 44.3536 23.7823 43.0562 33.9427 43.7275C39.7797 43.5538 41.8232 42.7901 44.35 40.9697C44.4674 40.8851 44.5758 40.7856 44.6711 40.6766C47.6281 37.2952 49.1956 34.8354 50.8143 26.7257C50.8404 26.5948 50.8537 26.457 50.8527 26.3236C50.8188 22.1437 50.3726 19.8776 46.7633 17.0711C46.6546 16.9866 46.5318 16.9122 46.4075 16.853Z" stroke="#1A1B1F" stroke-width="2"/>
<path d="M24.5265 81.2205L25.7778 88.5614C25.8479 88.973 25.7229 89.3938 25.4393 89.7003C24.8861 90.2981 24.9869 91.2487 25.6628 91.7033C29.7441 94.448 32.7161 95.7727 38.0312 96.6897C38.1415 96.7088 38.2544 96.7185 38.3664 96.7182C39.66 96.7155 41.5458 96.6501 43.7206 95.1021C45.914 93.5409 56.4277 78.3009 57.1424 77.2632C57.1696 77.2237 57.1933 77.186 57.2175 77.1446C60.2624 71.9353 60.7519 69.0183 57.3486 64.1675C57.2392 64.0116 57.1044 63.8715 56.9543 63.7543L43.8344 53.514C43.7587 53.4549 43.6775 53.4004 43.5938 53.3532C39.8174 51.2219 37.3972 50.9626 32.8266 52.7008C32.5759 52.7961 32.3477 52.9462 32.1538 53.1315C29.4932 55.6756 29.222 54.9689 25.8891 59.4285C19.5617 66.24 19.8937 67.7691 20.1369 73.8596C20.4523 76.3829 21.1142 77.8243 23.7679 79.9532C24.1646 80.2714 24.4411 80.7192 24.5265 81.2205Z" stroke="#1A1B1F" stroke-width="2"/>
<path d="M83.1702 52.9283L88.7797 56.1338C89.9996 56.8309 91.5402 56.0795 91.7206 54.6861C93.7584 38.9439 91.6429 30.8746 83.9092 20.6803C83.1261 19.6481 81.5723 19.6672 80.9483 20.8026C78.6399 25.003 78.2827 29.9595 77.3926 37.3778C76.3542 46.7129 78.4859 49.1556 82.9027 52.745C82.9863 52.8129 83.0767 52.8748 83.1702 52.9283Z" stroke="#1A1B1F" stroke-width="2"/>
<path d="M76.1058 66.9423C74.7411 65.0564 74.5836 63.7696 75.2398 61.5453C75.2926 61.3663 75.3735 61.1954 75.4794 61.0417C76.5049 59.5548 77.3678 59.0247 79.3918 58.7592C79.5156 58.7429 79.6414 58.7396 79.7658 58.7501C81.7659 58.9182 82.7547 59.5333 84.1656 61.0149C84.3283 61.1858 84.459 61.3875 84.5418 61.6086C85.3656 63.8088 84.876 65.0671 83.2529 67.0149C83.1068 67.1902 82.9282 67.3384 82.7284 67.4488C80.6981 68.5709 79.3344 68.8236 76.7285 67.4771C76.4828 67.3501 76.2679 67.1663 76.1058 66.9423Z" stroke="#1A1B1F" stroke-width="2"/>
</g>
</svg>
