<svg width="720" height="519" viewBox="0 0 720 519" fill="none" xmlns="http://www.w3.org/2000/svg">
<path d="M690.5 0L716.048 27.5686H664.952L690.5 0Z" fill="black"/>
<path d="M690.5 55.1372L664.952 27.5686L716.048 27.5686L690.5 55.1372Z" fill="black"/>
<g clip-path="url(#clip0_121_23)">
<path d="M4.62543 529.479V481.589C4.62543 479.043 0.108398 479.035 0.108398 481.589V529.502C0.108398 532.048 4.62543 532.048 4.62543 529.502V529.479Z" fill="black"/>
<path d="M58.0348 451.093H628.879C631.788 451.093 631.797 447.14 628.879 447.14H559.769C556.86 447.14 556.86 451.093 559.769 451.093H628.879C631.788 451.093 631.797 447.14 628.879 447.14H58.0348C55.1349 447.14 55.1258 451.093 58.0348 451.093Z" fill="black"/>
<path d="M4.39062 482.656C5.09111 478.451 6.34618 474.33 8.13072 470.377C9.71868 466.668 11.9624 463.199 14.7798 460.099C16.3768 458.516 18.3137 457.224 20.4803 456.296C22.6244 455.258 24.8287 454.319 27.0842 453.481C31.7733 451.871 36.7728 451.065 41.8097 451.109C47.6909 451.054 53.554 451.568 59.4442 451.251C62.3351 451.093 62.3532 447.14 59.4442 447.298C48.4949 447.891 37.4011 445.835 26.8493 449.346C24.3294 450.204 21.8681 451.189 19.4775 452.295C17.0451 453.29 14.7952 454.596 12.8013 456.169C9.30515 459.158 6.78464 463.285 4.82425 467.136C2.49517 471.752 0.884762 476.621 0.0361929 481.613C-0.10565 482.117 -0.0219434 482.651 0.270205 483.103C0.562354 483.556 1.04091 483.894 1.60812 484.048C2.18664 484.184 2.80316 484.115 3.32403 483.856C3.84489 483.597 4.22813 483.169 4.39062 482.664V482.656Z" fill="black"/>
<path d="M688.369 415.585C687.605 419.918 686.195 424.144 684.177 428.156C682.253 431.912 679.813 435.794 676.471 438.735C674.677 440.178 672.619 441.346 670.382 442.19C668.013 443.234 665.583 444.165 663.1 444.981C658.049 446.492 652.736 447.222 647.399 447.14C641.22 447.14 635.032 446.689 628.843 446.998C625.961 447.148 625.934 451.101 628.843 450.951C640.38 450.366 652.115 452.398 663.326 449.085C665.996 448.271 668.608 447.321 671.15 446.239C673.664 445.293 676.041 444.091 678.232 442.657C682.235 439.842 685.125 435.541 687.339 431.525C689.973 426.819 691.799 421.8 692.759 416.629C692.898 416.124 692.812 415.592 692.518 415.141C692.224 414.69 691.745 414.354 691.178 414.201C690.601 414.063 689.984 414.131 689.464 414.391C688.944 414.65 688.563 415.08 688.405 415.585H688.369Z" fill="black"/>
<path d="M692.804 416.107V368.185C692.804 365.647 688.287 365.639 688.287 368.185V416.107C688.287 418.653 692.804 418.653 692.804 416.107Z" fill="black"/>
<path d="M688.287 50.0491V369.901C688.287 372.447 692.804 372.447 692.804 369.901V50.0491C692.804 47.5032 688.287 47.5032 688.287 50.0491Z" fill="black"/>
</g>
<defs>
<clipPath id="clip0_121_23">
<rect width="692.804" height="523.864" fill="white" transform="translate(0 48.1357)"/>
</clipPath>
</defs>
</svg>
