<svg width="296" height="432" viewBox="0 0 296 432" fill="none" xmlns="http://www.w3.org/2000/svg">
<g clip-path="url(#clip0_609_46)">
<path d="M38.6933 4.0088H82.3004C84.6171 4.0088 84.6171 0.0786133 82.3004 0.0786133H38.6933C36.3838 0.0786133 36.3766 4.0088 38.6933 4.0088Z" fill="#1D1D1B"/>
<path d="M110.021 50.5028V358.511C110.021 361.042 113.619 361.05 113.619 358.511V321.206C113.619 318.683 110.021 318.675 110.021 321.206V358.48C110.021 361.011 113.619 361.019 113.619 358.48V50.5028C113.619 47.9717 110.021 47.9717 110.021 50.5028Z" fill="#1D1D1B"/>
<path d="M81.3001 3.82015C85.1291 4.43598 88.8805 5.5305 92.4807 7.0822C95.858 8.46004 99.0146 10.4126 101.834 12.8674C103.274 14.2554 104.452 15.9376 105.302 17.8195C106.242 19.6886 107.095 21.609 107.856 23.5733C109.321 27.6505 110.054 31.9978 110.014 36.3778C110.057 41.5027 109.597 46.5963 109.885 51.7291C110.029 54.2365 113.626 54.2601 113.482 51.7291C112.942 42.2023 114.813 32.5419 111.611 23.361C110.832 21.1703 109.936 19.0313 108.928 16.9548C108.025 14.8367 106.839 12.8765 105.41 11.1382C102.69 8.09619 98.9344 5.91101 95.4305 4.20531C91.2264 2.17989 86.7937 0.776217 82.2498 0.0314496C81.7906 -0.0893623 81.3064 -0.0143305 80.896 0.241248C80.4856 0.496827 80.1799 0.913723 80.041 1.40701C79.9171 1.90829 79.979 2.44276 80.2133 2.89451C80.4477 3.34625 80.8356 3.67884 81.2929 3.82015H81.3001Z" fill="#1D1D1B"/>
<path d="M142.34 395.14C138.398 394.476 134.553 393.252 130.9 391.501C127.483 389.819 123.943 387.697 121.267 384.788C119.956 383.227 118.896 381.436 118.13 379.49C117.18 377.43 116.333 375.315 115.59 373.155C114.218 368.762 113.551 364.143 113.619 359.501C113.619 354.117 114.036 348.741 113.755 343.356C113.619 340.841 110.021 340.825 110.158 343.356C110.683 353.394 108.841 363.597 111.849 373.351C112.589 375.677 113.454 377.952 114.439 380.166C115.303 382.353 116.4 384.421 117.705 386.329C120.267 389.803 124.181 392.318 127.828 394.252C132.11 396.542 136.678 398.131 141.383 398.968C141.842 399.092 142.328 399.019 142.739 398.765C143.151 398.511 143.459 398.094 143.599 397.601C143.721 397.097 143.657 396.562 143.422 396.109C143.187 395.657 142.798 395.323 142.34 395.18V395.14Z" fill="#1D1D1B"/>
<path d="M141.865 399.023H185.465C187.782 399.023 187.782 395.093 185.465 395.093H141.865C139.549 395.093 139.541 399.023 141.865 399.023Z" fill="#1D1D1B"/>
<path d="M39.0889 0.0786133H1.7412C-0.575498 0.0786133 -0.582693 4.0088 1.7412 4.0088H39.0889C41.4056 4.0088 41.4056 0.0786133 39.0889 0.0786133Z" fill="#1D1D1B"/>
<path d="M221.259 395.093H183.918C181.601 395.093 181.601 399.023 183.918 399.023H221.259C223.575 399.023 223.575 395.093 221.259 395.093Z" fill="#1D1D1B"/>
</g>
<g clip-path="url(#clip1_609_46)">
<path d="M259.5 432C239.374 432 223 415.626 223 395.5C223 375.374 239.374 359 259.5 359C279.626 359 296 375.374 296 395.5C296 415.626 279.626 432 259.5 432ZM259.5 362.228C241.159 362.228 226.228 377.153 226.228 395.5C226.228 413.847 241.153 428.772 259.5 428.772C277.847 428.772 292.772 413.847 292.772 395.5C292.772 377.153 277.847 362.228 259.5 362.228ZM259.5 365.952C243.207 365.952 229.952 379.207 229.952 395.5C229.952 411.793 243.207 425.048 259.5 425.048C275.793 425.048 289.049 411.793 289.049 395.5C289.049 379.207 275.793 365.952 259.5 365.952ZM274.752 392.018L259.696 407.074C259.284 407.487 258.794 407.814 258.255 408.037C257.716 408.261 257.138 408.376 256.554 408.376C255.971 408.376 255.393 408.261 254.854 408.037C254.315 407.814 253.825 407.487 253.413 407.074L244.248 397.907C243.358 397.017 242.858 395.81 242.858 394.551C242.858 393.293 243.358 392.086 244.248 391.196C245.138 390.306 246.345 389.806 247.603 389.806C248.862 389.806 250.069 390.306 250.959 391.196L256.555 396.792L268.042 385.306C268.483 384.866 269.006 384.516 269.581 384.278C270.157 384.039 270.774 383.917 271.397 383.917C272.021 383.917 272.638 384.04 273.213 384.278C273.789 384.517 274.312 384.866 274.753 385.307C275.194 385.748 275.543 386.271 275.781 386.847C276.02 387.422 276.143 388.039 276.143 388.663C276.143 389.286 276.02 389.903 275.781 390.478C275.543 391.054 275.193 391.577 274.752 392.018Z" fill="black"/>
</g>
<defs>
<clipPath id="clip0_609_46">
<rect width="223" height="399" fill="white"/>
</clipPath>
<clipPath id="clip1_609_46">
<rect width="73" height="73" fill="white" transform="translate(223 359)"/>
</clipPath>
</defs>
</svg>
