<svg width="181" height="199" viewBox="0 0 181 199" fill="none" xmlns="http://www.w3.org/2000/svg">
<path d="M-14.7402 1.99534H6.96555C8.1187 1.99534 8.1187 0.0390625 6.96555 0.0390625H-14.7402C-15.8898 0.0390625 -15.8934 1.99534 -14.7402 1.99534Z" fill="#1D1D1B"/>
<path d="M21 22.7001V136.299C21 137.232 23 137.235 23 136.299V122.54C23 121.609 21 121.606 21 122.54V136.287C21 137.221 23 137.224 23 136.287V22.7001C23 21.7666 21 21.7666 21 22.7001Z" fill="#1D1D1B"/>
<path d="M6.65784 1.91391C8.56372 2.22044 10.431 2.76525 12.223 3.53762C13.9041 4.22345 15.4754 5.19533 16.8786 6.41726C17.5956 7.10814 18.1819 7.94548 18.6048 8.88217C19.073 9.81254 19.4973 10.7685 19.8761 11.7462C20.6055 13.7756 20.9702 15.9395 20.9505 18.1197C20.972 20.6707 20.7428 23.206 20.886 25.7609C20.9577 27.0091 22.7483 27.0208 22.6766 25.7609C22.408 21.0189 23.3392 16.2104 21.7455 11.6405C21.3575 10.5501 20.9115 9.48536 20.4097 8.45179C19.9601 7.39748 19.37 6.42178 18.6585 5.5565C17.3048 4.04234 15.4354 2.95465 13.6914 2.10562C11.5987 1.09745 9.39232 0.398763 7.13056 0.0280496C6.90196 -0.0320854 6.66097 0.0052622 6.4567 0.132478C6.25243 0.259695 6.10023 0.467208 6.03112 0.712747C5.96941 0.962261 6.00022 1.2283 6.11687 1.45316C6.23352 1.67802 6.42661 1.84356 6.65425 1.91391H6.65784Z" fill="#1D1D1B"/>
<path d="M36.9587 161.276C34.9967 160.945 33.0825 160.336 31.2646 159.464C29.5635 158.627 27.8015 157.571 26.4693 156.123C25.817 155.346 25.2892 154.455 24.9079 153.486C24.4354 152.46 24.0134 151.408 23.6438 150.333C22.9609 148.146 22.6289 145.847 22.6625 143.536C22.6625 140.856 22.8702 138.18 22.7305 135.5C22.6625 134.248 20.8719 134.24 20.9399 135.5C21.2013 140.496 20.2846 145.575 21.7815 150.43C22.1501 151.588 22.5806 152.72 23.0707 153.823C23.5011 154.911 24.0468 155.94 24.6966 156.89C25.9715 158.619 27.9197 159.871 29.7354 160.834C31.8669 161.974 34.1402 162.765 36.4824 163.181C36.7111 163.243 36.9525 163.207 37.1575 163.08C37.3625 162.954 37.5156 162.746 37.5855 162.501C37.6462 162.25 37.6145 161.984 37.4973 161.758C37.3802 161.533 37.1868 161.367 36.9587 161.296V161.276Z" fill="#1D1D1B"/>
<path d="M141.964 161.5H39.5001C33.1429 161.5 33.1429 163.5 39.5001 163.5H141.964C148.321 163.5 148.321 161.5 141.964 161.5Z" fill="black"/>
<path d="M163.857 178.714C154.562 178.714 147 171.152 147 161.857C147 152.562 154.562 145 163.857 145C173.152 145 180.714 152.562 180.714 161.857C180.714 171.152 173.152 178.714 163.857 178.714ZM163.857 146.491C155.386 146.491 148.491 153.384 148.491 161.857C148.491 170.33 155.384 177.223 163.857 177.223C172.33 177.223 179.223 170.33 179.223 161.857C179.223 153.384 172.33 146.491 163.857 146.491ZM163.857 148.211C156.332 148.211 150.211 154.332 150.211 161.857C150.211 169.382 156.332 175.503 163.857 175.503C171.382 175.503 177.504 169.382 177.504 161.857C177.504 154.332 171.382 148.211 163.857 148.211ZM170.901 160.249L163.948 167.202C163.757 167.393 163.531 167.544 163.282 167.647C163.033 167.75 162.766 167.803 162.497 167.803C162.227 167.803 161.96 167.75 161.711 167.647C161.462 167.544 161.236 167.393 161.046 167.202L156.813 162.969C156.402 162.558 156.171 162 156.171 161.419C156.171 160.838 156.402 160.28 156.813 159.869C157.224 159.458 157.781 159.227 158.363 159.227C158.944 159.227 159.501 159.458 159.912 159.869L162.497 162.454L167.802 157.149C168.006 156.946 168.247 156.784 168.513 156.674C168.779 156.564 169.064 156.507 169.352 156.507C169.64 156.508 169.925 156.564 170.19 156.674C170.456 156.785 170.698 156.946 170.901 157.15C171.105 157.353 171.266 157.595 171.376 157.861C171.487 158.126 171.543 158.411 171.543 158.699C171.543 158.987 171.486 159.272 171.376 159.538C171.266 159.804 171.105 160.045 170.901 160.249Z" fill="black"/>
</svg>
