<svg width="119" height="235" viewBox="0 0 119 235" fill="none" xmlns="http://www.w3.org/2000/svg">
<path d="M65.8049 71.7197C65.8049 71.7197 92.7247 137.525 82.2562 234.735" stroke="#CAEDE3" stroke-width="5" stroke-miterlimit="10"/>
<path d="M64.18 37.6762C63.1307 39.7713 62.146 41.2791 61.2309 42.307C60.3102 43.3412 59.4881 43.8584 58.7713 44.032C57.406 44.3627 56.096 43.4861 54.8363 41.544C53.5984 39.6356 52.5498 36.8961 51.7019 34.0212C50.8566 31.1552 50.2214 28.1921 49.7974 25.8608C49.7335 25.5094 49.6663 25.1446 49.5968 24.768C48.7332 20.0838 47.5346 13.5832 48.3088 8.45401C48.7254 5.69352 49.702 3.42045 51.5253 2.02841C53.3398 0.643085 56.1027 0.0478317 60.2817 0.883769L60.2817 0.883778C64.328 1.69281 66.6034 4.30228 67.7577 7.84228C68.9223 11.4134 68.9315 15.9066 68.4022 20.353C67.874 24.7891 66.8166 29.1269 65.889 32.3604C65.4255 33.9759 64.9953 35.3129 64.6811 36.2453C64.5241 36.7115 64.3962 37.0763 64.3077 37.3241C64.2634 37.448 64.229 37.5426 64.2058 37.606L64.18 37.6762Z" fill="white" stroke="#CAEDE3"/>
<path d="M49.0568 40.0731C49.0956 42.416 48.92 44.2083 48.5842 45.5429C48.2463 46.8857 47.7566 47.7246 47.2014 48.2101C46.1439 49.1349 44.577 48.9637 42.5616 47.8245C40.5813 46.7052 38.3843 44.7614 36.3027 42.6048C34.2274 40.4548 32.2936 38.1216 30.8392 36.2508C30.6204 35.9694 30.3925 35.6777 30.1573 35.3767C27.2249 31.6237 23.1544 26.414 21.468 21.5077C20.5605 18.8676 20.3749 16.4005 21.3474 14.3228C22.3152 12.2552 24.4893 10.4492 28.5806 9.25712C32.5421 8.10282 35.7664 9.36385 38.4275 11.9684C41.1118 14.5957 43.1986 18.575 44.7862 22.762C46.3702 26.9391 47.4394 31.274 48.1128 34.5698C48.4492 36.2164 48.6863 37.6008 48.8392 38.5727C48.9156 39.0586 48.9709 39.4413 49.0071 39.7019C49.0252 39.8322 49.0385 39.932 49.0472 39.9988L49.0568 40.0731Z" fill="white" stroke="#CAEDE3"/>
<path d="M3.07677 38.8874L3.07679 38.8874C5.40358 35.4793 8.69501 34.4053 12.4046 34.7269C16.1467 35.0513 20.2859 36.7996 24.1714 39.0254C28.0478 41.2459 31.6269 43.9153 34.2402 46.0333C35.5459 47.0916 36.6083 48.0104 37.3436 48.6641C37.7113 48.9909 37.9971 49.2513 38.1905 49.4296C38.2872 49.5188 38.3609 49.5874 38.4101 49.6335L38.4646 49.6848C39.9827 51.4697 40.9855 52.9654 41.5738 54.2095C42.1657 55.4611 42.3203 56.42 42.1998 57.1475C41.9703 58.5333 40.6512 59.3962 38.3708 59.7963C36.1302 60.1894 33.1986 60.0834 30.2209 59.7398C27.2524 59.3973 24.2768 58.8235 21.9653 58.3023C21.6183 58.2241 21.2577 58.1437 20.8855 58.0608C16.2369 57.0246 9.78296 55.586 5.36364 52.8671C2.9859 51.4043 1.27559 49.6167 0.707179 47.3942C0.141511 45.1824 0.673758 42.4067 3.07677 38.8874Z" fill="white" stroke="#CAEDE3"/>
<path d="M69.2233 40.0731L69.2329 39.9989C69.2416 39.932 69.2549 39.8322 69.273 39.7019C69.3092 39.4413 69.3645 39.0586 69.4409 38.5727C69.5938 37.6008 69.8309 36.2164 70.1673 34.5698C70.8407 31.274 71.91 26.9391 73.4939 22.762C75.0816 18.575 77.1683 14.5958 79.8527 11.9684C82.5138 9.36385 85.7381 8.10282 89.6996 9.25712C93.7909 10.4492 95.965 12.2552 96.9328 14.3228C97.9053 16.4005 97.7196 18.8676 96.8121 21.5077C95.1257 26.414 91.0552 31.6236 88.1228 35.3766C87.8876 35.6777 87.6597 35.9694 87.4409 36.2508C85.9865 38.1216 84.0527 40.4548 81.9774 42.6048C79.8958 44.7614 77.6988 46.7052 75.7185 47.8245C73.7031 48.9637 72.1362 49.1349 71.0786 48.2101C70.5235 47.7246 70.0338 46.8857 69.6959 45.5429C69.3601 44.2083 69.1845 42.416 69.2233 40.0731Z" fill="white" stroke="#CAEDE3"/>
<path d="M115.203 38.8874L115.616 38.6054L115.203 38.8874C117.606 42.4067 118.139 45.1824 117.573 47.3942C117.005 49.6167 115.294 51.4043 112.917 52.8671C108.497 55.586 102.043 57.0246 97.3948 58.0608C97.0226 58.1437 96.662 58.2241 96.3149 58.3023C94.0034 58.8235 91.0278 59.3973 88.0593 59.7398C85.0817 60.0834 82.1501 60.1894 79.9095 59.7963C77.6291 59.3962 76.31 58.5333 76.0805 57.1475C75.9601 56.42 76.1147 55.4611 76.7065 54.2095C77.2948 52.9654 78.2976 51.4697 79.8157 49.6848L79.8703 49.6335C79.9195 49.5874 79.9931 49.5188 80.0898 49.4296C80.2833 49.2513 80.5691 48.9909 80.9367 48.6641C81.6721 48.0104 82.7345 47.0916 84.0401 46.0333C86.6535 43.9153 90.2325 41.2459 94.1089 39.0254C97.9944 36.7996 102.134 35.0513 105.876 34.7269C109.585 34.4053 112.877 35.4793 115.203 38.8874Z" fill="white" stroke="#CAEDE3"/>
<path d="M68.4826 98.8623C68.5465 99.2137 68.6138 99.5785 68.6832 99.955C69.5468 104.639 70.7454 111.14 69.9712 116.269C69.5545 119.03 68.578 121.303 66.7546 122.695C64.9401 124.08 62.1772 124.675 57.9983 123.839L57.9982 123.839C53.9519 123.03 51.6766 120.421 50.5222 116.881C49.3577 113.31 49.3484 108.816 49.8778 104.37C50.4059 99.934 51.4633 95.5961 52.391 92.3627C52.8544 90.7472 53.2847 89.4101 53.5988 88.4777C53.7558 88.0116 53.8838 87.6467 53.9723 87.3989C54.0165 87.2751 54.0509 87.1805 54.0741 87.1171L54.1 87.0469C55.1493 84.9518 56.134 83.444 57.049 82.4162C57.9697 81.382 58.7919 80.8648 59.5086 80.6913C60.8739 80.3607 62.1839 81.2374 63.4437 83.1797C64.6816 85.0882 65.7302 87.8278 66.5781 90.7026C67.4234 93.5685 68.0586 96.5314 68.4826 98.8623ZM68.4826 98.8623L68.9745 98.7728L68.4826 98.8623C68.4826 98.8623 68.4826 98.8623 68.4826 98.8623Z" fill="white" stroke="#CAEDE3"/>
<path d="M69.2329 84.7229L69.2233 84.6487C69.1845 82.3058 69.3601 80.5135 69.6959 79.1789C70.0338 77.8361 70.5235 76.9971 71.0786 76.5116C72.1362 75.5868 73.7031 75.7581 75.7185 76.8972C77.6988 78.0166 79.8958 79.9603 81.9774 82.117C84.0527 84.2669 85.9865 86.6001 87.4409 88.471C87.6597 88.7524 87.8876 89.0441 88.1229 89.3452C91.0553 93.0982 95.1257 98.3078 96.8121 103.214C97.7196 105.854 97.9053 108.321 96.9328 110.399C95.965 112.467 93.7909 114.272 89.6996 115.465C85.7381 116.619 82.5138 115.358 79.8527 112.753C77.1683 110.126 75.0816 106.147 73.4939 101.96C71.91 97.7826 70.8407 93.4477 70.1673 90.152C69.8309 88.5054 69.5938 87.121 69.4409 86.149C69.3645 85.6631 69.3092 85.2805 69.273 85.0199C69.2549 84.8896 69.2416 84.7898 69.2329 84.7229Z" fill="white" stroke="#CAEDE3"/>
<path d="M96.3148 66.4217L96.3149 66.4217C96.662 66.5 97.0226 66.5803 97.3948 66.6633C102.043 67.6995 108.497 69.138 112.917 71.8569C115.294 73.3197 117.005 75.1074 117.573 77.3299C118.139 79.5416 117.606 82.3173 115.203 85.8366L115.616 86.1186L115.203 85.8366C112.877 89.2447 109.585 90.3187 105.876 89.9971C102.134 89.6727 97.9944 87.9244 94.1089 85.6987C90.2325 83.4781 86.6535 80.8088 84.0401 78.6907C82.7345 77.6325 81.6721 76.7137 80.9367 76.06C80.5691 75.7332 80.2833 75.4728 80.0898 75.2944C79.9931 75.2053 79.9195 75.1366 79.8703 75.0905L79.8157 75.0393C78.2976 73.2542 77.2949 71.7583 76.7066 70.5141C76.1147 69.2623 75.9601 68.3033 76.0806 67.5757C76.3101 66.1896 77.6292 65.3267 79.9095 64.9266C82.1501 64.5335 85.0817 64.6395 88.0593 64.9833C91.0278 65.3261 94.0034 65.9001 96.3148 66.4217Z" fill="white" stroke="#CAEDE3"/>
<path d="M49.0568 84.6487L49.0472 84.7229C49.0385 84.7898 49.0252 84.8896 49.0071 85.0199C48.9709 85.2805 48.9156 85.6631 48.8392 86.149C48.6863 87.121 48.4492 88.5054 48.1128 90.152C47.4394 93.4477 46.3702 97.7826 44.7862 101.96C43.1986 106.147 41.1118 110.126 38.4275 112.753C35.7664 115.358 32.5421 116.619 28.5806 115.465C24.4893 114.272 22.3152 112.467 21.3474 110.399C20.3749 108.321 20.5605 105.854 21.468 103.214C23.1544 98.3077 27.2249 93.0981 30.1573 89.3451C30.3925 89.0441 30.6204 88.7524 30.8392 88.471C32.2936 86.6001 34.2274 84.2669 36.3027 82.117C38.3843 79.9603 40.5813 78.0166 42.5616 76.8972C44.577 75.7581 46.1439 75.5868 47.2014 76.5116C47.7566 76.9971 48.2463 77.8361 48.5842 79.1789C48.92 80.5135 49.0956 82.3058 49.0568 84.6487Z" fill="white" stroke="#CAEDE3"/>
<path d="M3.07679 85.8366L3.07677 85.8366C0.673758 82.3173 0.141511 79.5416 0.707178 77.3299C1.27559 75.1074 2.9859 73.3197 5.36364 71.8569C9.78294 69.138 16.2369 67.6995 20.8854 66.6633C21.2576 66.5803 21.6182 66.5 21.9653 66.4217L21.9654 66.4217C24.2773 65.9001 27.2531 65.3261 30.2216 64.9833C33.1994 64.6395 36.1309 64.5335 38.3714 64.9266C40.6516 65.3267 41.9706 66.1896 42.2 67.5756C42.3204 68.3032 42.1658 69.2623 41.5739 70.5141C40.9855 71.7583 39.9827 73.2542 38.4646 75.0393L38.4101 75.0905C38.3609 75.1366 38.2872 75.2053 38.1905 75.2944C37.9971 75.4728 37.7113 75.7332 37.3436 76.06C36.6083 76.7137 35.5459 77.6325 34.2402 78.6907C31.6269 80.8088 28.0478 83.4781 24.1714 85.6987C20.2859 87.9244 16.1467 89.6727 12.4046 89.9971C8.69501 90.3187 5.40358 89.2447 3.07679 85.8366Z" fill="white" stroke="#CAEDE3"/>
<path d="M64.5537 88.1694C79.0269 85.3729 88.4928 71.3731 85.6963 56.9C82.8999 42.4268 68.9 32.9609 54.4269 35.7574C39.9537 38.5538 30.4879 52.5537 33.2844 67.0268C36.0808 81.5 50.0806 90.9658 64.5537 88.1694Z" fill="#FF9042"/>
<path d="M60.8734 78.1763C69.7826 77.4379 76.4064 69.6177 75.6681 60.7094C74.9298 51.8011 67.1089 45.178 58.1997 45.9164C49.2904 46.6548 42.6667 54.4751 43.405 63.3834C44.1433 72.2918 51.9642 78.9148 60.8734 78.1763Z" fill="#FF7742"/>
</svg>
