<svg width="371" height="659" viewBox="0 0 371 659" fill="none" xmlns="http://www.w3.org/2000/svg">
<g opacity="0.8" filter="url(#filter0_f_126_32)">
<ellipse cx="23.3804" cy="22.9568" rx="23.3804" ry="22.9568" transform="matrix(-1 0 0 1 208.682 162.409)" fill="#00E09E"/>
</g>
<path d="M161.921 538.533C163.253 545.693 174.026 547.841 182.202 547.841C190.378 547.841 200.558 544.834 201.298 538.533C201.298 531.659 190.378 528.509 182.202 528.509C174.026 528.509 162.661 530.943 161.921 538.533Z" fill="#1A1B1F"/>
<path d="M181.609 536.966V391.976" stroke="#1A1B1F" stroke-width="2.95673"/>
<path d="M178.956 421.701C160.455 412.655 141.947 403.621 123.433 394.601C123.539 394.437 123.699 394.308 123.966 394.171C124.095 394.105 124.235 394.044 124.4 393.975M178.956 421.701L171.572 369.82C171.517 369.887 171.444 369.938 171.361 369.965C171.278 369.993 171.188 369.997 171.103 369.977M178.956 421.701C180.763 422.589 182.077 422.114 183.619 421.373M178.956 421.701L236.345 392.325M124.4 393.975C124.025 393.793 123.651 393.611 123.277 393.428C123.549 393.26 123.851 393.135 124.152 393.011C124.343 392.932 124.533 392.854 124.715 392.764C127.141 391.577 129.571 390.401 132.001 389.225C135.854 387.36 139.707 385.496 143.536 383.587M124.4 393.975C142.736 402.909 161.066 411.856 179.389 420.815L179.391 420.816C180.129 421.179 180.713 421.244 181.256 421.171C181.835 421.093 182.427 420.852 183.189 420.486M124.4 393.975L183.189 420.486M143.536 383.587C145.875 382.424 148.235 381.301 150.596 380.177C155.229 377.971 159.865 375.764 164.342 373.258M143.536 383.587L143.975 384.469C143.976 384.469 143.976 384.469 143.976 384.469M143.536 383.587L143.976 384.469M164.342 373.258C164.441 373.27 164.541 373.259 164.635 373.225M164.342 373.258L164.823 374.118C164.753 374.158 164.682 374.198 164.611 374.237M164.342 373.258L164.223 374.237C164.352 374.252 164.482 374.253 164.611 374.237M164.635 373.225C164.728 373.19 164.812 373.134 164.878 373.062M164.635 373.225L164.974 374.15C165.174 374.077 165.358 373.964 165.514 373.819M164.635 373.225L164.974 374.15C164.856 374.193 164.734 374.222 164.611 374.237M164.878 373.062C165.135 372.876 165.41 372.716 165.699 372.583M164.878 373.062L165.606 373.726C165.577 373.759 165.546 373.789 165.514 373.819M164.878 373.062L165.456 373.86C165.475 373.846 165.495 373.833 165.514 373.819M165.699 372.583C165.794 372.6 165.892 372.592 165.983 372.561C166.074 372.53 166.155 372.477 166.219 372.406M165.699 372.583L166.11 373.479C166.046 373.508 165.983 373.54 165.921 373.572M165.699 372.583L165.531 373.554C165.66 373.577 165.791 373.583 165.921 373.572M166.219 372.406C166.475 372.22 166.749 372.06 167.037 371.928M166.219 372.406L166.949 373.068C166.919 373.101 166.888 373.132 166.856 373.162M166.219 372.406L166.798 373.204C166.817 373.19 166.837 373.176 166.856 373.162M167.037 371.928C167.132 371.945 167.23 371.939 167.322 371.908C167.413 371.878 167.495 371.825 167.56 371.754M167.037 371.928L167.449 372.823C167.383 372.853 167.319 372.885 167.255 372.919M167.037 371.928L166.856 372.896C166.988 372.921 167.122 372.928 167.255 372.919M167.56 371.754C167.814 371.566 168.088 371.405 168.378 371.275M167.56 371.754L168.289 372.417C168.26 372.449 168.231 372.478 168.2 372.507M167.56 371.754L168.146 372.546C168.164 372.533 168.182 372.52 168.2 372.507M168.378 371.275C168.471 371.293 168.567 371.287 168.657 371.259C168.747 371.231 168.828 371.182 168.894 371.115M168.378 371.275L168.782 372.174C168.717 372.203 168.653 372.234 168.59 372.267M168.378 371.275L168.195 372.244C168.326 372.268 168.459 372.276 168.59 372.267M168.894 371.115C169.148 370.902 169.442 370.739 169.759 370.633M168.894 371.115L169.598 371.805C169.582 371.82 169.566 371.836 169.55 371.851M168.894 371.115L169.526 371.871C169.534 371.864 169.542 371.858 169.55 371.851M169.759 370.633C169.845 370.653 169.935 370.649 170.019 370.62C170.103 370.592 170.177 370.541 170.231 370.472M169.759 370.633L170.07 371.568C170.016 371.586 169.962 371.607 169.91 371.63M169.759 370.633L169.532 371.592C169.657 371.621 169.784 371.634 169.91 371.63M170.231 370.472C170.487 370.254 170.782 370.086 171.103 369.977M170.231 370.472L171 371.089C170.973 371.122 170.945 371.155 170.916 371.185M170.231 370.472L170.872 371.222C170.886 371.209 170.901 371.197 170.916 371.185M171.103 369.977L171.42 370.911C171.365 370.929 171.311 370.951 171.259 370.975M171.103 369.977L170.877 370.937C171.003 370.966 171.131 370.979 171.259 370.975M171.259 370.975C171.399 370.97 171.539 370.945 171.674 370.9M171.259 370.975C171.136 371.031 171.02 371.102 170.916 371.185M171.674 370.9L125.149 393.65C127.565 392.466 129.992 391.292 132.421 390.117C136.279 388.25 140.143 386.38 143.976 384.469M171.674 370.9C171.895 370.826 172.095 370.7 172.258 370.531C172.361 370.448 172.474 370.377 172.596 370.321C172.739 370.316 172.881 370.29 173.018 370.244L172.699 369.311L173.018 370.244C173.235 370.169 173.432 370.045 173.592 369.879C173.698 369.795 173.813 369.723 173.937 369.667C174.08 369.662 174.222 369.636 174.359 369.589C174.577 369.515 174.775 369.389 174.935 369.222C175.04 369.138 175.155 369.068 175.277 369.011C175.419 369.006 175.56 368.98 175.696 368.934L175.398 368.057L175.696 368.934C175.915 368.86 176.114 368.734 176.275 368.566C176.379 368.483 176.494 368.412 176.616 368.356C176.756 368.351 176.896 368.326 177.03 368.281C177.251 368.207 177.452 368.081 177.614 367.912C177.717 367.828 177.831 367.758 177.954 367.702C178.097 367.698 178.24 367.672 178.377 367.625C178.595 367.55 178.793 367.425 178.954 367.258C179.057 367.175 179.171 367.104 179.293 367.048C179.436 367.044 179.579 367.018 179.715 366.971C179.934 366.896 180.132 366.77 180.292 366.602M171.674 370.9L183.189 420.486M170.916 371.185C170.754 371.353 170.555 371.479 170.336 371.554C170.198 371.601 170.055 371.626 169.91 371.63M169.91 371.63C169.781 371.689 169.66 371.763 169.55 371.851M169.55 371.851C169.379 372.012 169.173 372.131 168.949 372.2C168.832 372.237 168.712 372.259 168.59 372.267M168.59 372.267C168.455 372.339 168.324 372.419 168.2 372.507M168.2 372.507C168.037 372.659 167.843 372.773 167.633 372.843C167.51 372.884 167.383 372.909 167.255 372.919M167.255 372.919C167.117 372.992 166.984 373.073 166.856 373.162M166.856 373.162C166.696 373.311 166.507 373.424 166.301 373.494L165.984 372.564L166.301 373.494C166.177 373.536 166.049 373.562 165.921 373.572M165.921 373.572C165.78 373.646 165.644 373.729 165.514 373.819M164.611 374.237C160.172 376.71 155.557 378.907 150.978 381.087C148.625 382.207 146.282 383.322 143.976 384.469M183.189 420.486C196.221 414.118 209.261 407.77 222.309 401.442M183.189 420.486C183.188 420.486 183.187 420.487 183.186 420.487L183.619 421.373M183.189 420.486C183.19 420.485 183.191 420.485 183.192 420.484L183.619 421.373M222.309 401.442C227.414 398.956 232.515 396.461 237.613 393.957M222.309 401.442C222.309 401.442 222.308 401.443 222.308 401.443L222.739 402.329M222.309 401.442L222.739 402.329M237.613 393.957C237.601 393.951 237.588 393.945 237.576 393.939C237.337 393.821 237.084 393.715 236.801 393.597L236.748 393.575C236.488 393.467 236.202 393.348 235.922 393.215L235.922 393.215L235.913 393.211C218.87 384.895 201.819 376.591 184.758 368.301M237.613 393.957C237.966 393.783 238.32 393.609 238.674 393.435C238.202 393.112 237.666 392.889 237.131 392.667C236.866 392.557 236.602 392.447 236.345 392.325M237.613 393.957C237.994 394.147 238.296 394.348 238.534 394.602C233.273 397.188 228.008 399.763 222.739 402.329M184.758 368.301C184.064 367.966 183.376 367.595 182.713 367.237C182.399 367.068 182.091 366.901 181.789 366.743L181.719 366.706L181.656 366.658C181.515 366.552 181.364 366.459 181.204 366.381M184.758 368.301C184.759 368.301 184.759 368.302 184.759 368.302L185.188 367.414M184.758 368.301C184.758 368.301 184.757 368.301 184.757 368.301L185.188 367.414M181.204 366.381H180.662M181.204 366.381H181.417V365.395L181.037 366.305C181.094 366.328 181.15 366.354 181.204 366.381ZM180.662 366.381C180.529 366.438 180.405 366.513 180.292 366.602M180.662 366.381C180.706 366.362 180.75 366.344 180.796 366.329L180.481 365.395V366.381H180.662ZM180.292 366.602C180.323 366.57 180.352 366.536 180.38 366.501L179.607 365.89L180.246 366.64C180.261 366.627 180.277 366.614 180.292 366.602ZM185.188 367.414C202.249 375.705 219.301 384.008 236.345 392.325M185.188 367.414C184.512 367.088 183.86 366.736 183.208 366.384C182.889 366.212 182.57 366.039 182.248 365.87L236.345 392.325M222.739 402.329C209.691 408.657 196.651 415.005 183.619 421.373" fill="#1A1B1F" stroke="#1A1B1F" stroke-width="1.97115"/>
<path d="M178.956 403.577C160.455 394.531 141.947 385.498 123.433 376.477C123.539 376.314 123.699 376.184 123.966 376.047C124.095 375.981 124.235 375.92 124.4 375.852M178.956 403.577L171.572 351.696C171.517 351.764 171.444 351.814 171.361 351.842C171.278 351.87 171.188 351.874 171.103 351.854M178.956 403.577C180.763 404.465 182.077 403.99 183.619 403.249M178.956 403.577L236.345 374.202M124.4 375.852C124.025 375.669 123.651 375.487 123.277 375.305C123.549 375.136 123.851 375.012 124.152 374.888C124.343 374.809 124.533 374.73 124.715 374.641C127.141 373.453 129.571 372.277 132.001 371.101C135.854 369.237 139.707 367.373 143.536 365.463M124.4 375.852C142.736 384.786 161.066 393.733 179.389 402.692L179.391 402.693C180.129 403.055 180.713 403.12 181.256 403.047C181.835 402.969 182.427 402.728 183.189 402.362M124.4 375.852L183.189 402.362M143.536 365.463C145.875 364.3 148.235 363.177 150.596 362.053C155.229 359.847 159.865 357.641 164.342 355.135M143.536 365.463L143.975 366.346C143.976 366.345 143.976 366.345 143.976 366.345M143.536 365.463L143.976 366.345M164.342 355.135C164.441 355.147 164.541 355.135 164.635 355.101M164.342 355.135L164.823 355.995C164.753 356.035 164.682 356.074 164.611 356.114M164.342 355.135L164.223 356.113C164.352 356.129 164.482 356.129 164.611 356.114M164.635 355.101C164.728 355.067 164.812 355.011 164.878 354.938M164.635 355.101L164.974 356.026C165.174 355.953 165.358 355.841 165.514 355.695M164.635 355.101L164.974 356.026C164.856 356.07 164.734 356.099 164.611 356.114M164.878 354.938C165.135 354.752 165.41 354.592 165.699 354.46M164.878 354.938L165.606 355.603C165.577 355.635 165.546 355.666 165.514 355.695M164.878 354.938L165.456 355.737C165.475 355.723 165.495 355.709 165.514 355.695M165.699 354.46C165.794 354.476 165.892 354.468 165.983 354.437C166.074 354.406 166.155 354.353 166.219 354.283M165.699 354.46L166.11 355.356C166.046 355.385 165.983 355.416 165.921 355.449M165.699 354.46L165.531 355.431C165.66 355.453 165.791 355.459 165.921 355.449M166.219 354.283C166.475 354.097 166.749 353.937 167.037 353.804M166.219 354.283L166.949 354.944C166.919 354.977 166.888 355.009 166.856 355.039M166.219 354.283L166.798 355.08C166.817 355.066 166.837 355.052 166.856 355.039M167.037 353.804C167.132 353.822 167.23 353.815 167.322 353.785C167.413 353.754 167.495 353.701 167.56 353.63M167.037 353.804L167.449 354.699C167.383 354.73 167.319 354.762 167.255 354.795M167.037 353.804L166.856 354.773C166.988 354.798 167.122 354.805 167.255 354.795M167.56 353.63C167.814 353.442 168.088 353.282 168.378 353.152M167.56 353.63L168.289 354.294C168.26 354.325 168.231 354.355 168.2 354.384M167.56 353.63L168.146 354.423C168.164 354.409 168.182 354.396 168.2 354.384M168.378 353.152C168.471 353.169 168.567 353.164 168.657 353.136C168.747 353.108 168.828 353.058 168.894 352.991M168.378 353.152L168.782 354.051C168.717 354.08 168.653 354.111 168.59 354.144M168.378 353.152L168.195 354.12C168.326 354.145 168.459 354.153 168.59 354.144M168.894 352.991C169.148 352.778 169.442 352.615 169.759 352.509M168.894 352.991L169.598 353.681C169.582 353.697 169.566 353.712 169.55 353.727M168.894 352.991L169.526 353.747C169.534 353.741 169.542 353.734 169.55 353.727M169.759 352.509C169.845 352.53 169.935 352.525 170.019 352.497C170.103 352.468 170.177 352.417 170.231 352.349M169.759 352.509L170.07 353.444C170.016 353.463 169.962 353.483 169.91 353.507M169.759 352.509L169.532 353.469C169.657 353.498 169.784 353.511 169.91 353.507M170.231 352.349C170.487 352.131 170.782 351.963 171.103 351.854M170.231 352.349L171 352.965C170.973 352.999 170.945 353.031 170.916 353.062M170.231 352.349L170.872 353.098C170.886 353.086 170.901 353.074 170.916 353.062M171.103 351.854L171.42 352.787C171.365 352.806 171.311 352.827 171.259 352.851M171.103 351.854L170.877 352.813C171.003 352.843 171.131 352.855 171.259 352.851M171.259 352.851C171.399 352.846 171.539 352.821 171.674 352.776M171.259 352.851C171.136 352.908 171.02 352.978 170.916 353.062M171.674 352.776L125.149 375.526C127.565 374.343 129.992 373.169 132.421 371.993C136.279 370.126 140.143 368.256 143.976 366.345M171.674 352.776C171.895 352.702 172.095 352.576 172.258 352.408C172.361 352.324 172.474 352.253 172.596 352.198C172.739 352.193 172.881 352.167 173.018 352.12L172.699 351.188L173.018 352.12C173.235 352.046 173.432 351.921 173.592 351.755C173.698 351.671 173.813 351.6 173.937 351.543C174.08 351.538 174.222 351.512 174.359 351.466C174.577 351.391 174.775 351.265 174.935 351.098C175.04 351.015 175.155 350.944 175.277 350.887C175.419 350.882 175.56 350.857 175.696 350.811L175.398 349.934L175.696 350.811C175.915 350.736 176.114 350.61 176.275 350.443C176.379 350.359 176.494 350.289 176.616 350.232C176.756 350.227 176.896 350.202 177.03 350.157C177.251 350.083 177.452 349.957 177.614 349.789C177.717 349.705 177.831 349.634 177.954 349.579C178.097 349.574 178.24 349.548 178.377 349.501C178.595 349.427 178.793 349.301 178.954 349.134C179.057 349.051 179.171 348.981 179.293 348.925C179.436 348.92 179.579 348.894 179.715 348.847C179.934 348.773 180.132 348.646 180.292 348.478M171.674 352.776L183.189 402.362M170.916 353.062C170.754 353.23 170.555 353.356 170.336 353.43C170.198 353.477 170.055 353.503 169.91 353.507M169.91 353.507C169.781 353.565 169.66 353.639 169.55 353.727M169.55 353.727C169.379 353.888 169.173 354.007 168.949 354.077C168.832 354.113 168.712 354.136 168.59 354.144M168.59 354.144C168.455 354.215 168.324 354.295 168.2 354.384M168.2 354.384C168.037 354.535 167.843 354.65 167.633 354.72C167.51 354.761 167.383 354.786 167.255 354.795M167.255 354.795C167.117 354.868 166.984 354.95 166.856 355.039M166.856 355.039C166.696 355.187 166.507 355.3 166.301 355.37L165.984 354.44L166.301 355.37C166.177 355.412 166.049 355.439 165.921 355.449M165.921 355.449C165.78 355.523 165.644 355.605 165.514 355.695M164.611 356.114C160.172 358.586 155.557 360.783 150.978 362.963C148.625 364.083 146.282 365.199 143.976 366.345M183.189 402.362C196.221 395.995 209.261 389.647 222.309 383.319M183.189 402.362C183.188 402.363 183.187 402.363 183.186 402.364L183.619 403.249M183.189 402.362C183.19 402.362 183.191 402.361 183.192 402.361L183.619 403.249M222.309 383.319C227.414 380.833 232.515 378.338 237.613 375.833M222.309 383.319C222.309 383.319 222.308 383.319 222.308 383.319L222.739 384.205M222.309 383.319L222.739 384.205M237.613 375.833C237.601 375.827 237.588 375.821 237.576 375.815C237.337 375.698 237.084 375.591 236.801 375.474L236.748 375.452C236.488 375.344 236.202 375.225 235.922 375.092L235.922 375.092L235.913 375.087C218.87 366.771 201.819 358.468 184.758 350.178M237.613 375.833C237.966 375.659 238.32 375.486 238.674 375.312C238.202 374.988 237.666 374.766 237.131 374.544C236.866 374.434 236.602 374.324 236.345 374.202M237.613 375.833C237.994 376.024 238.296 376.224 238.534 376.479C233.273 379.064 228.008 381.64 222.739 384.205M184.758 350.178C184.064 349.843 183.376 349.471 182.713 349.114C182.399 348.944 182.091 348.777 181.789 348.619L181.719 348.582L181.656 348.535C181.515 348.429 181.364 348.336 181.204 348.257M184.758 350.178C184.759 350.178 184.759 350.178 184.759 350.178L185.188 349.291M184.758 350.178C184.758 350.177 184.757 350.177 184.757 350.177L185.188 349.291M181.204 348.257H180.662M181.204 348.257H181.417V347.271L181.037 348.181C181.094 348.205 181.15 348.23 181.204 348.257ZM180.662 348.257C180.529 348.315 180.405 348.389 180.292 348.478M180.662 348.257C180.706 348.238 180.75 348.221 180.796 348.206L180.481 347.271V348.257H180.662ZM180.292 348.478C180.323 348.446 180.352 348.412 180.38 348.377L179.607 347.766L180.246 348.516C180.261 348.503 180.277 348.491 180.292 348.478ZM185.188 349.291C202.249 357.581 219.301 365.885 236.345 374.202M185.188 349.291C184.512 348.965 183.86 348.613 183.208 348.26C182.889 348.088 182.57 347.916 182.248 347.747L236.345 374.202M222.739 384.205C209.691 390.534 196.651 396.882 183.619 403.249" fill="white" stroke="#1A1B1F" stroke-width="1.97115"/>
<path d="M178.956 384.245C160.455 375.198 141.947 366.165 123.433 357.144C123.539 356.981 123.699 356.852 123.966 356.715C124.095 356.649 124.235 356.588 124.4 356.519M178.956 384.245L171.572 332.364C171.517 332.431 171.444 332.481 171.361 332.509C171.278 332.537 171.188 332.541 171.103 332.521M178.956 384.245C180.763 385.133 182.077 384.658 183.619 383.917M178.956 384.245L236.345 354.869M124.4 356.519C124.025 356.337 123.651 356.154 123.277 355.972C123.549 355.804 123.851 355.679 124.152 355.555C124.343 355.476 124.533 355.398 124.715 355.308C127.141 354.121 129.571 352.945 132.001 351.769C135.854 349.904 139.707 348.04 143.536 346.131M124.4 356.519C142.736 365.453 161.066 374.4 179.389 383.359L179.391 383.36C180.129 383.723 180.713 383.788 181.256 383.715C181.835 383.637 182.427 383.396 183.189 383.03M124.4 356.519L183.189 383.03M143.536 346.131C145.875 344.968 148.235 343.844 150.596 342.721C155.229 340.515 159.865 338.308 164.342 335.802M143.536 346.131L143.975 347.013C143.976 347.013 143.976 347.013 143.976 347.013M143.536 346.131L143.976 347.013M164.342 335.802C164.441 335.814 164.541 335.803 164.635 335.769M164.342 335.802L164.823 336.662C164.753 336.702 164.682 336.742 164.611 336.781M164.342 335.802L164.223 336.781C164.352 336.796 164.482 336.796 164.611 336.781M164.635 335.769C164.728 335.734 164.812 335.678 164.878 335.606M164.635 335.769L164.974 336.694C165.174 336.621 165.358 336.508 165.514 336.363M164.635 335.769L164.974 336.694C164.856 336.737 164.734 336.766 164.611 336.781M164.878 335.606C165.135 335.42 165.41 335.26 165.699 335.127M164.878 335.606L165.606 336.27C165.577 336.303 165.546 336.333 165.514 336.363M164.878 335.606L165.456 336.404C165.475 336.39 165.495 336.377 165.514 336.363M165.699 335.127C165.794 335.144 165.892 335.136 165.983 335.105C166.074 335.074 166.155 335.021 166.219 334.95M165.699 335.127L166.11 336.023C166.046 336.052 165.983 336.084 165.921 336.116M165.699 335.127L165.531 336.098C165.66 336.121 165.791 336.126 165.921 336.116M166.219 334.95C166.475 334.764 166.749 334.604 167.037 334.472M166.219 334.95L166.949 335.612C166.919 335.645 166.888 335.676 166.856 335.706M166.219 334.95L166.798 335.748C166.817 335.734 166.837 335.72 166.856 335.706M167.037 334.472C167.132 334.489 167.23 334.483 167.322 334.452C167.413 334.422 167.495 334.369 167.56 334.298M167.037 334.472L167.449 335.367C167.383 335.397 167.319 335.429 167.255 335.463M167.037 334.472L166.856 335.44C166.988 335.465 167.122 335.472 167.255 335.463M167.56 334.298C167.814 334.11 168.088 333.949 168.378 333.819M167.56 334.298L168.289 334.961C168.26 334.993 168.231 335.022 168.2 335.051M167.56 334.298L168.146 335.09C168.164 335.077 168.182 335.064 168.2 335.051M168.378 333.819C168.471 333.837 168.567 333.831 168.657 333.803C168.747 333.775 168.828 333.725 168.894 333.659M168.378 333.819L168.782 334.718C168.717 334.747 168.653 334.778 168.59 334.811M168.378 333.819L168.195 334.788C168.326 334.812 168.459 334.82 168.59 334.811M168.894 333.659C169.148 333.446 169.442 333.282 169.759 333.177M168.894 333.659L169.598 334.349C169.582 334.364 169.566 334.38 169.55 334.395M168.894 333.659L169.526 334.415C169.534 334.408 169.542 334.401 169.55 334.395M169.759 333.177C169.845 333.197 169.935 333.193 170.019 333.164C170.103 333.136 170.177 333.085 170.231 333.016M169.759 333.177L170.07 334.112C170.016 334.13 169.962 334.151 169.91 334.174M169.759 333.177L169.532 334.136C169.657 334.165 169.784 334.178 169.91 334.174M170.231 333.016C170.487 332.798 170.782 332.63 171.103 332.521M170.231 333.016L171 333.633C170.973 333.666 170.945 333.698 170.916 333.729M170.231 333.016L170.872 333.766C170.886 333.753 170.901 333.741 170.916 333.729M171.103 332.521L171.42 333.455C171.365 333.473 171.311 333.495 171.259 333.519M171.103 332.521L170.877 333.481C171.003 333.51 171.131 333.523 171.259 333.519M171.259 333.519C171.399 333.514 171.539 333.489 171.674 333.444M171.259 333.519C171.136 333.575 171.02 333.646 170.916 333.729M171.674 333.444L125.149 356.193C127.565 355.01 129.992 353.836 132.421 352.661C136.279 350.794 140.143 348.924 143.976 347.013M171.674 333.444C171.895 333.37 172.095 333.244 172.258 333.075C172.361 332.991 172.474 332.921 172.596 332.865C172.739 332.86 172.881 332.834 173.018 332.787L172.699 331.855L173.018 332.787C173.235 332.713 173.432 332.589 173.592 332.423C173.698 332.339 173.813 332.267 173.937 332.211C174.08 332.206 174.222 332.18 174.359 332.133C174.577 332.059 174.775 331.933 174.935 331.765C175.04 331.682 175.155 331.611 175.277 331.555C175.419 331.55 175.56 331.524 175.696 331.478L175.398 330.601L175.696 331.478C175.915 331.404 176.114 331.278 176.275 331.11C176.379 331.027 176.494 330.956 176.616 330.9C176.756 330.895 176.896 330.87 177.03 330.825C177.251 330.751 177.452 330.625 177.614 330.456C177.717 330.372 177.831 330.302 177.954 330.246C178.097 330.242 178.24 330.215 178.377 330.169C178.595 330.094 178.793 329.969 178.954 329.802C179.057 329.719 179.171 329.648 179.293 329.592C179.436 329.587 179.579 329.562 179.715 329.515C179.934 329.44 180.132 329.314 180.292 329.146M171.674 333.444L183.189 383.03M170.916 333.729C170.754 333.897 170.555 334.023 170.336 334.098C170.198 334.144 170.055 334.17 169.91 334.174M169.91 334.174C169.781 334.233 169.66 334.307 169.55 334.395M169.55 334.395C169.379 334.556 169.173 334.675 168.949 334.744C168.832 334.781 168.712 334.803 168.59 334.811M168.59 334.811C168.455 334.883 168.324 334.963 168.2 335.051M168.2 335.051C168.037 335.203 167.843 335.317 167.633 335.387C167.51 335.428 167.383 335.453 167.255 335.463M167.255 335.463C167.117 335.536 166.984 335.617 166.856 335.706M166.856 335.706C166.696 335.855 166.507 335.968 166.301 336.038L165.984 335.108L166.301 336.038C166.177 336.08 166.049 336.106 165.921 336.116M165.921 336.116C165.78 336.19 165.644 336.273 165.514 336.363M164.611 336.781C160.172 339.254 155.557 341.451 150.978 343.631C148.625 344.751 146.282 345.866 143.976 347.013M183.189 383.03C196.221 376.662 209.261 370.314 222.309 363.986M183.189 383.03C183.188 383.03 183.187 383.031 183.186 383.031L183.619 383.917M183.189 383.03C183.19 383.029 183.191 383.029 183.192 383.028L183.619 383.917M222.309 363.986C227.414 361.5 232.515 359.005 237.613 356.501M222.309 363.986C222.309 363.986 222.308 363.987 222.308 363.987L222.739 364.873M222.309 363.986L222.739 364.873M237.613 356.501C237.601 356.495 237.588 356.489 237.576 356.483C237.337 356.365 237.084 356.259 236.801 356.141L236.748 356.119C236.488 356.011 236.202 355.892 235.922 355.759L235.922 355.759L235.913 355.755C218.87 347.439 201.819 339.135 184.758 330.845M237.613 356.501C237.966 356.327 238.32 356.153 238.674 355.979C238.202 355.656 237.666 355.433 237.131 355.211C236.866 355.101 236.602 354.991 236.345 354.869M237.613 356.501C237.994 356.691 238.296 356.892 238.534 357.146C233.273 359.731 228.008 362.307 222.739 364.873M184.758 330.845C184.064 330.51 183.376 330.139 182.713 329.781C182.399 329.612 182.091 329.445 181.789 329.287L181.719 329.25L181.656 329.202C181.515 329.096 181.364 329.003 181.204 328.925M184.758 330.845C184.759 330.845 184.759 330.846 184.759 330.846L185.188 329.958M184.758 330.845C184.758 330.845 184.757 330.845 184.757 330.845L185.188 329.958M181.204 328.925H180.662M181.204 328.925H181.417V327.939L181.037 328.849C181.094 328.872 181.15 328.898 181.204 328.925ZM180.662 328.925C180.529 328.982 180.405 329.057 180.292 329.146M180.662 328.925C180.706 328.906 180.75 328.888 180.796 328.873L180.481 327.939V328.925H180.662ZM180.292 329.146C180.323 329.114 180.352 329.08 180.38 329.045L179.607 328.434L180.246 329.184C180.261 329.171 180.277 329.158 180.292 329.146ZM185.188 329.958C202.249 338.249 219.301 346.552 236.345 354.869M185.188 329.958C184.512 329.632 183.86 329.28 183.208 328.928C182.889 328.756 182.57 328.583 182.248 328.414L236.345 354.869M222.739 364.873C209.691 371.201 196.651 377.549 183.619 383.917" fill="#00E09E" stroke="#1A1B1F" stroke-width="1.97115"/>
<path d="M181.609 330.355V207.114" stroke="#202124" stroke-width="2.95673"/>
<path d="M142.703 186.013C142.703 205.449 159.511 221.31 180.379 221.31C201.246 221.31 218.054 205.449 218.054 186.013C218.054 166.578 201.246 150.717 180.379 150.717C159.511 150.717 142.703 166.578 142.703 186.013Z" fill="#1A1B1F" stroke="#1A1B1F" stroke-width="1.97115"/>
<path d="M218.51 180.881C215.713 163.061 200.918 148.779 181.786 150.228C164.19 151.561 153.035 164.481 150.536 180.881C147.538 200.548 161.359 220.824 182.493 221.973C204.597 223.175 221.737 201.438 218.51 180.881Z" fill="white" stroke="#1A1B1F" stroke-width="1.97115"/>
<mask id="mask0_126_32" style="mask-type:alpha" maskUnits="userSpaceOnUse" x="146" y="149" width="73" height="74">
<path d="M147.616 184.849V184.856C147.616 204.959 163.239 221.353 182.651 221.353C202.109 221.353 217.862 206.028 217.862 185.971C217.862 165.922 202.124 150.602 182.679 150.588C162.976 151.691 147.481 165.922 147.616 184.849Z" fill="white" stroke="black" stroke-width="1.97115"/>
</mask>
<g mask="url(#mask0_126_32)">
<path d="M185.063 161.696C193.654 157.711 197.518 156.384 202.261 155.562C202.751 155.477 203.261 155.591 203.669 155.875C218.624 166.304 219.716 182.495 217.803 195.454C217.618 196.706 216.284 197.425 215.212 196.751C212.18 194.846 209.812 191.862 206.093 186.828C203.028 182.147 202.264 181.183 194.521 181.682C190.104 181.554 188.537 180.993 186.63 179.661C186.514 179.58 186.407 179.484 186.312 179.378C184.086 176.892 182.898 175.056 181.675 169.103C181.647 168.971 181.634 168.833 181.635 168.698C181.664 165.64 182.013 163.965 184.715 161.905C184.821 161.823 184.941 161.753 185.063 161.696Z" fill="#00E09E"/>
<path d="M201.662 209.735L200.744 214.988C200.69 215.295 200.785 215.61 201 215.837C201.419 216.278 201.343 216.99 200.835 217.323C197.731 219.359 195.47 220.344 191.439 221.025C191.332 221.043 191.224 221.052 191.116 221.052C190.132 221.049 188.708 220.988 187.07 219.851C185.406 218.697 177.46 207.473 176.849 206.609C176.822 206.57 176.799 206.535 176.775 206.494C174.475 202.653 174.098 200.489 176.645 196.923C176.754 196.77 176.888 196.635 177.038 196.521L186.957 188.972C187.032 188.915 187.112 188.863 187.194 188.818C190.033 187.261 191.87 187.064 195.29 188.318C195.535 188.409 195.759 188.554 195.951 188.731C197.917 190.548 198.147 190.071 200.658 193.347C205.48 198.408 205.227 199.544 205.042 204.069C204.808 205.896 204.322 206.96 202.425 208.478C202.029 208.794 201.749 209.236 201.662 209.735Z" fill="#00E09E"/>
<path d="M156.975 188.535L153.274 190.597C152.075 191.265 150.576 190.53 150.406 189.168C149.027 178.117 150.598 172.218 156.116 164.984C156.878 163.985 158.385 164.004 158.954 165.125C160.487 168.146 160.765 171.73 161.409 176.964C162.198 183.88 160.585 185.705 157.239 188.359C157.156 188.424 157.067 188.484 156.975 188.535Z" fill="#00E09E"/>
<path d="M162.447 198.851C163.42 197.512 163.537 196.569 163.071 194.989C163.018 194.81 162.936 194.64 162.826 194.488C162.069 193.436 161.412 193.05 159.923 192.855C159.804 192.839 159.683 192.836 159.564 192.846C158.093 192.973 157.343 193.417 156.309 194.464C156.144 194.631 156.011 194.829 155.93 195.05C155.355 196.611 155.717 197.535 156.892 198.923C157.037 199.094 157.213 199.237 157.411 199.342C158.899 200.133 159.929 200.308 161.832 199.369C162.075 199.248 162.288 199.071 162.447 198.851Z" fill="#00E09E"/>
<path d="M185.063 161.696C193.654 157.711 197.518 156.384 202.261 155.562C202.751 155.477 203.261 155.591 203.669 155.875C218.624 166.304 219.716 182.495 217.803 195.454C217.618 196.706 216.284 197.425 215.212 196.751C212.18 194.846 209.812 191.862 206.093 186.828C203.028 182.147 202.264 181.183 194.521 181.682C190.104 181.554 188.537 180.993 186.63 179.661C186.514 179.58 186.407 179.484 186.312 179.378C184.086 176.892 182.898 175.056 181.675 169.103C181.647 168.971 181.634 168.833 181.635 168.698C181.664 165.64 182.013 163.965 184.715 161.905C184.821 161.823 184.941 161.753 185.063 161.696Z" stroke="#1A1B1F" stroke-width="1.97115"/>
<path d="M201.662 209.735L200.744 214.988C200.69 215.295 200.785 215.61 201 215.837C201.419 216.278 201.343 216.99 200.835 217.323C197.731 219.359 195.47 220.344 191.439 221.025C191.332 221.043 191.224 221.052 191.116 221.052C190.132 221.049 188.708 220.988 187.07 219.851C185.406 218.697 177.46 207.473 176.849 206.609C176.822 206.57 176.799 206.535 176.775 206.494C174.475 202.653 174.098 200.489 176.645 196.923C176.754 196.77 176.888 196.635 177.038 196.521L186.957 188.972C187.032 188.915 187.112 188.863 187.194 188.818C190.033 187.261 191.87 187.064 195.29 188.318C195.535 188.409 195.759 188.554 195.951 188.731C197.917 190.548 198.147 190.071 200.658 193.347C205.48 198.408 205.227 199.544 205.042 204.069C204.808 205.896 204.322 206.96 202.425 208.478C202.029 208.794 201.749 209.236 201.662 209.735Z" stroke="#1A1B1F" stroke-width="1.97115"/>
<path d="M156.975 188.535L153.274 190.597C152.075 191.265 150.576 190.53 150.406 189.168C149.027 178.117 150.598 172.218 156.116 164.984C156.878 163.985 158.385 164.004 158.954 165.125C160.487 168.146 160.765 171.73 161.409 176.964C162.198 183.88 160.585 185.705 157.239 188.359C157.156 188.424 157.067 188.484 156.975 188.535Z" stroke="#1A1B1F" stroke-width="1.97115"/>
<path d="M162.447 198.851C163.42 197.512 163.537 196.569 163.071 194.989C163.018 194.81 162.936 194.64 162.826 194.488C162.069 193.436 161.412 193.05 159.923 192.855C159.804 192.839 159.683 192.836 159.564 192.846C158.093 192.973 157.343 193.417 156.309 194.464C156.144 194.631 156.011 194.829 155.93 195.05C155.355 196.611 155.717 197.535 156.892 198.923C157.037 199.094 157.213 199.237 157.411 199.342C158.899 200.133 159.929 200.308 161.832 199.369C162.075 199.248 162.288 199.071 162.447 198.851Z" stroke="#1A1B1F" stroke-width="1.97115"/>
</g>
<path d="M180.539 150.442V135.659C180.539 109.531 159.358 88.3511 133.231 88.3511H92.8222" stroke="#202124" stroke-width="2.95673"/>
<defs>
<filter id="filter0_f_126_32" x="0.286285" y="0.774078" width="370.03" height="369.183" filterUnits="userSpaceOnUse" color-interpolation-filters="sRGB">
<feFlood flood-opacity="0" result="BackgroundImageFix"/>
<feBlend mode="normal" in="SourceGraphic" in2="BackgroundImageFix" result="shape"/>
<feGaussianBlur stdDeviation="80.8173" result="effect1_foregroundBlur_126_32"/>
</filter>
</defs>
</svg>
