<svg width="263" height="668" viewBox="0 0 263 668" fill="none" xmlns="http://www.w3.org/2000/svg">
<g opacity="0.8" filter="url(#filter0_f_114_513)">
<ellipse cx="188.168" cy="187.434" rx="23.7225" ry="23.2927" fill="#00E09E"/>
</g>
<path d="M211.89 545.77C210.538 553.035 199.608 555.214 191.313 555.214C183.017 555.214 172.688 552.163 171.937 545.77C171.937 538.796 183.017 535.599 191.313 535.599C199.608 535.599 211.139 538.069 211.89 545.77Z" fill="#1A1B1F"/>
<path d="M191.913 544.18V397.068" stroke="#1A1B1F" stroke-width="3"/>
<path d="M249.961 399.097C249.93 399.084 249.899 399.071 249.867 399.058L249.824 399.04C249.636 398.963 249.415 398.871 249.199 398.766M249.961 399.097L249.64 397.868M249.961 399.097C231.356 408.162 212.758 417.239 194.166 426.329L194.164 426.33C193.415 426.698 192.823 426.764 192.272 426.69C191.685 426.611 191.084 426.367 190.311 425.995C177.088 419.535 163.857 413.094 150.619 406.673C145.439 404.151 140.263 401.619 135.091 399.078C135.103 399.072 135.115 399.066 135.128 399.06C135.37 398.94 135.627 398.832 135.914 398.713C135.932 398.706 135.95 398.698 135.968 398.691C136.232 398.581 136.522 398.461 136.806 398.326L136.806 398.326L136.816 398.321C154.108 389.883 171.409 381.458 188.719 373.047C189.424 372.707 190.121 372.33 190.794 371.967C191.112 371.795 191.425 371.626 191.731 371.465L191.802 371.428L191.866 371.38C192.01 371.272 192.163 371.178 192.324 371.098H192.875C193.01 371.157 193.136 371.232 193.25 371.323C193.413 371.493 193.614 371.621 193.835 371.697L194.159 370.751L193.835 371.697C193.974 371.745 194.119 371.771 194.264 371.775C194.388 371.832 194.503 371.904 194.608 371.988C194.771 372.158 194.972 372.285 195.193 372.36C195.332 372.408 195.477 372.434 195.623 372.439C195.747 372.496 195.863 372.567 195.967 372.652C196.132 372.823 196.336 372.951 196.559 373.026C196.696 373.072 196.837 373.097 196.98 373.102C197.104 373.159 197.22 373.231 197.326 373.316C197.489 373.486 197.691 373.614 197.914 373.689C198.051 373.736 198.194 373.762 198.338 373.767C198.463 373.824 198.579 373.896 198.686 373.981C198.848 374.15 199.049 374.278 199.27 374.354C199.409 374.401 199.553 374.427 199.698 374.432C199.824 374.49 199.941 374.562 200.048 374.647C200.211 374.816 200.411 374.942 200.631 375.018C200.769 375.065 200.913 375.091 201.058 375.097C201.182 375.153 201.298 375.225 201.402 375.309C201.567 375.481 201.77 375.609 201.994 375.684C202.131 375.729 202.273 375.755 202.416 375.759C202.541 375.817 202.658 375.889 202.764 375.973C202.927 376.144 203.129 376.271 203.352 376.347C203.492 376.394 203.637 376.421 203.784 376.425C203.915 376.484 204.038 376.559 204.149 376.649C204.323 376.812 204.532 376.933 204.759 377.003C204.877 377.04 205 377.063 205.123 377.071C205.261 377.143 205.393 377.225 205.519 377.314C205.685 377.468 205.881 377.585 206.095 377.656C206.219 377.697 206.348 377.722 206.478 377.732C206.618 377.806 206.753 377.889 206.883 377.979C207.045 378.13 207.237 378.244 207.446 378.316C207.572 378.358 207.701 378.385 207.832 378.395C207.975 378.47 208.112 378.554 208.244 378.645C208.403 378.793 208.589 378.907 208.792 378.981C208.912 379.025 209.035 379.055 209.161 379.07M249.961 399.097L209.161 379.07M249.199 398.766L249.64 397.868M249.199 398.766C249.2 398.766 249.2 398.766 249.2 398.766L249.64 397.868M249.199 398.766C246.748 397.565 244.286 396.374 241.822 395.182C237.907 393.287 233.987 391.391 230.098 389.451M249.64 397.868C247.179 396.663 244.713 395.47 242.248 394.277C238.338 392.385 234.429 390.494 230.544 388.556M230.098 389.451L230.544 388.556M230.098 389.451C227.759 388.288 225.381 387.156 222.993 386.019C218.347 383.807 213.664 381.578 209.161 379.07M230.098 389.451C230.098 389.451 230.098 389.451 230.097 389.451L230.544 388.556M230.544 388.556L209.161 379.07" fill="#1A1B1F" stroke="#1A1B1F" stroke-width="2"/>
<path d="M249.961 380.708C249.93 380.695 249.899 380.682 249.867 380.669L249.824 380.652C249.636 380.574 249.415 380.483 249.199 380.377M249.961 380.708L249.64 379.479M249.961 380.708C231.356 389.773 212.758 398.85 194.166 407.941L194.164 407.942C193.415 408.31 192.823 408.375 192.272 408.301C191.685 408.222 191.084 407.978 190.311 407.607C177.088 401.146 163.857 394.705 150.619 388.284C145.439 385.762 140.263 383.23 135.091 380.689C135.103 380.683 135.115 380.677 135.128 380.671C135.37 380.552 135.627 380.444 135.914 380.324C135.932 380.317 135.95 380.31 135.968 380.302C136.232 380.193 136.522 380.072 136.806 379.937L136.806 379.937L136.816 379.932C154.108 371.494 171.409 363.07 188.719 354.658C189.424 354.318 190.121 353.942 190.794 353.578C191.112 353.406 191.425 353.238 191.731 353.077L191.802 353.039L191.866 352.991C192.01 352.884 192.163 352.789 192.324 352.709H192.875C193.01 352.768 193.136 352.844 193.25 352.934C193.413 353.105 193.614 353.232 193.835 353.308L194.159 352.362L193.835 353.308C193.974 353.356 194.119 353.382 194.264 353.387C194.388 353.444 194.503 353.515 194.608 353.6C194.771 353.769 194.972 353.896 195.193 353.972C195.332 354.019 195.477 354.046 195.623 354.051C195.747 354.107 195.863 354.178 195.967 354.263C196.132 354.435 196.336 354.563 196.559 354.638C196.696 354.683 196.837 354.709 196.98 354.713C197.104 354.771 197.22 354.843 197.326 354.927C197.489 355.097 197.691 355.225 197.914 355.3C198.051 355.347 198.194 355.373 198.338 355.378C198.463 355.436 198.579 355.508 198.686 355.592C198.848 355.762 199.049 355.889 199.27 355.965C199.409 356.012 199.553 356.039 199.698 356.044C199.824 356.101 199.941 356.173 200.048 356.259C200.211 356.427 200.411 356.554 200.631 356.629C200.769 356.676 200.913 356.703 201.058 356.708C201.182 356.764 201.298 356.836 201.402 356.921C201.567 357.092 201.77 357.22 201.994 357.295C202.131 357.341 202.273 357.366 202.416 357.371C202.541 357.428 202.658 357.5 202.764 357.584C202.927 357.755 203.129 357.883 203.352 357.958C203.492 358.006 203.637 358.032 203.784 358.036C203.915 358.095 204.038 358.171 204.149 358.26C204.323 358.423 204.532 358.544 204.759 358.614C204.877 358.651 205 358.674 205.123 358.682C205.261 358.755 205.393 358.836 205.519 358.926C205.685 359.08 205.881 359.196 206.095 359.267C206.219 359.308 206.348 359.334 206.478 359.343C206.618 359.418 206.753 359.5 206.883 359.591C207.045 359.741 207.237 359.856 207.446 359.927C207.572 359.97 207.701 359.996 207.832 360.006C207.975 360.081 208.112 360.165 208.244 360.257C208.403 360.404 208.589 360.518 208.792 360.593C208.912 360.636 209.035 360.666 209.161 360.681M249.961 380.708L209.161 360.681M249.199 380.377L249.64 379.479M249.199 380.377C249.2 380.377 249.2 380.377 249.2 380.377L249.64 379.479M249.199 380.377C246.748 379.177 244.286 377.985 241.822 376.793C237.907 374.899 233.987 373.002 230.098 371.063M249.64 379.479C247.179 378.274 244.713 377.081 242.248 375.888C238.338 373.996 234.429 372.105 230.544 370.167M230.098 371.063L230.544 370.167M230.098 371.063C227.759 369.9 225.381 368.767 222.993 367.631C218.347 365.419 213.664 363.19 209.161 360.681M230.098 371.063C230.098 371.063 230.098 371.062 230.097 371.062L230.544 370.167M230.544 370.167L209.161 360.681" fill="white" stroke="#1A1B1F" stroke-width="2"/>
<path d="M249.961 361.093C249.93 361.08 249.899 361.067 249.867 361.054L249.824 361.036C249.636 360.959 249.415 360.868 249.199 360.762M249.961 361.093L249.64 359.864M249.961 361.093C231.356 370.158 212.758 379.235 194.166 388.325L194.164 388.326C193.415 388.695 192.823 388.76 192.272 388.686C191.685 388.607 191.084 388.363 190.311 387.991C177.088 381.531 163.857 375.09 150.619 368.669C145.439 366.147 140.263 363.615 135.091 361.074C135.103 361.068 135.115 361.062 135.128 361.056C135.37 360.936 135.627 360.828 135.914 360.709C135.932 360.702 135.95 360.694 135.968 360.687C136.232 360.577 136.522 360.457 136.806 360.322L136.806 360.322L136.816 360.317C154.108 351.879 171.409 343.454 188.719 335.043C189.424 334.703 190.121 334.326 190.794 333.963C191.112 333.791 191.425 333.622 191.731 333.462L191.802 333.424L191.866 333.376C192.01 333.268 192.163 333.174 192.324 333.094H192.875C193.01 333.153 193.136 333.229 193.25 333.319C193.413 333.489 193.614 333.617 193.835 333.693L194.159 332.747L193.835 333.693C193.974 333.741 194.119 333.767 194.264 333.772C194.388 333.829 194.503 333.9 194.608 333.984C194.771 334.154 194.972 334.281 195.193 334.356C195.332 334.404 195.477 334.431 195.623 334.435C195.747 334.492 195.863 334.563 195.967 334.648C196.132 334.819 196.336 334.947 196.559 335.022C196.696 335.068 196.837 335.093 196.98 335.098C197.104 335.155 197.22 335.227 197.326 335.312C197.489 335.482 197.691 335.61 197.914 335.685C198.051 335.732 198.194 335.758 198.338 335.763C198.463 335.821 198.579 335.892 198.686 335.977C198.848 336.146 199.049 336.274 199.27 336.35C199.409 336.397 199.553 336.423 199.698 336.428C199.824 336.486 199.941 336.558 200.048 336.643C200.211 336.812 200.411 336.938 200.631 337.014C200.769 337.061 200.913 337.087 201.058 337.093C201.182 337.149 201.298 337.221 201.402 337.305C201.567 337.477 201.77 337.605 201.994 337.68C202.131 337.725 202.273 337.751 202.416 337.755C202.541 337.813 202.658 337.885 202.764 337.969C202.927 338.14 203.129 338.267 203.352 338.343C203.492 338.391 203.637 338.417 203.784 338.421C203.915 338.48 204.038 338.555 204.149 338.645C204.323 338.808 204.532 338.929 204.759 338.999C204.877 339.036 205 339.059 205.123 339.067C205.261 339.139 205.393 339.221 205.519 339.31C205.685 339.464 205.881 339.581 206.095 339.652C206.219 339.693 206.348 339.719 206.478 339.728C206.618 339.802 206.753 339.885 206.883 339.975C207.045 340.126 207.237 340.24 207.446 340.312C207.572 340.354 207.701 340.381 207.832 340.391C207.975 340.466 208.112 340.55 208.244 340.641C208.403 340.789 208.589 340.903 208.792 340.977C208.912 341.021 209.035 341.051 209.161 341.066M249.961 361.093L209.161 341.066M249.199 360.762L249.64 359.864M249.199 360.762C249.2 360.762 249.2 360.762 249.2 360.762L249.64 359.864M249.199 360.762C246.748 359.562 244.286 358.37 241.822 357.178C237.907 355.284 233.987 353.387 230.098 351.448M249.64 359.864C247.179 358.659 244.713 357.466 242.248 356.273C238.338 354.381 234.429 352.49 230.544 350.552M230.098 351.448L230.544 350.552M230.098 351.448C227.759 350.284 225.381 349.152 222.993 348.016C218.347 345.804 213.664 343.574 209.161 341.066M230.098 351.448C230.098 351.447 230.098 351.447 230.097 351.447L230.544 350.552M230.544 350.552L209.161 341.066" fill="#00E09E" stroke="#1A1B1F" stroke-width="2"/>
<path d="M191.913 334.546V209.501" stroke="#202124" stroke-width="3"/>
<path d="M231.389 188.091C231.389 207.811 214.335 223.904 193.162 223.904C171.989 223.904 154.935 207.811 154.935 188.091C154.935 168.371 171.989 152.278 193.162 152.278C214.335 152.278 231.389 168.371 231.389 188.091Z" fill="#1A1B1F" stroke="#1A1B1F" stroke-width="2"/>
<path d="M154.472 182.884C157.31 164.803 172.322 150.311 191.734 151.782C209.588 153.135 220.906 166.243 223.442 182.884C226.483 202.838 212.46 223.411 191.017 224.577C168.589 225.797 151.198 203.742 154.472 182.884Z" fill="white" stroke="#1A1B1F" stroke-width="2"/>
<mask id="mask0_114_513" style="mask-type:alpha" maskUnits="userSpaceOnUse" x="154" y="151" width="74" height="74">
<path d="M226.404 186.909V186.916C226.404 207.313 210.553 223.948 190.856 223.948C171.114 223.948 155.13 208.398 155.13 188.047C155.13 167.706 171.099 152.161 190.828 152.147C210.819 153.266 226.542 167.705 226.404 186.909Z" fill="white" stroke="black" stroke-width="2"/>
</mask>
<g mask="url(#mask0_114_513)">
<path d="M188.409 163.418C179.693 159.374 175.772 158.028 170.959 157.194C170.462 157.108 169.945 157.223 169.531 157.511C154.357 168.093 153.249 184.521 155.19 197.669C155.378 198.94 156.731 199.669 157.819 198.986C160.895 197.053 163.298 194.025 167.071 188.918C170.181 184.168 170.957 183.19 178.813 183.696C183.295 183.566 184.884 182.997 186.819 181.646C186.937 181.563 187.046 181.466 187.142 181.358C189.4 178.836 190.606 176.973 191.847 170.933C191.875 170.799 191.889 170.659 191.887 170.522C191.858 167.419 191.504 165.72 188.762 163.629C188.654 163.547 188.533 163.475 188.409 163.418Z" fill="#00E09E"/>
<path d="M171.567 212.16L172.499 217.489C172.553 217.801 172.457 218.121 172.239 218.351C171.814 218.798 171.891 219.521 172.406 219.859C175.556 221.924 177.85 222.923 181.94 223.615C182.048 223.633 182.158 223.642 182.267 223.642C183.266 223.639 184.711 223.578 186.373 222.424C188.061 221.252 196.124 209.865 196.743 208.988C196.771 208.948 196.794 208.913 196.819 208.871C199.153 204.974 199.535 202.779 196.951 199.16C196.84 199.005 196.704 198.867 196.552 198.752L186.487 191.093C186.411 191.035 186.331 190.982 186.247 190.937C183.366 189.357 181.502 189.157 178.033 190.43C177.784 190.521 177.556 190.668 177.361 190.848C175.367 192.691 175.134 192.208 172.586 195.532C167.693 200.667 167.95 201.819 168.138 206.41C168.376 208.265 168.868 209.344 170.794 210.884C171.195 211.205 171.479 211.654 171.567 212.16Z" fill="#00E09E"/>
<path d="M216.908 190.649L220.663 192.742C221.88 193.419 223.401 192.673 223.573 191.292C224.973 180.079 223.378 174.094 217.78 166.754C217.007 165.74 215.477 165.76 214.9 166.897C213.345 169.961 213.063 173.598 212.409 178.909C211.608 185.927 213.245 187.777 216.641 190.471C216.724 190.537 216.815 190.597 216.908 190.649Z" fill="#00E09E"/>
<path d="M211.356 201.117C210.369 199.758 210.25 198.801 210.723 197.198C210.777 197.016 210.86 196.844 210.971 196.69C211.74 195.622 212.406 195.23 213.917 195.032C214.038 195.016 214.161 195.013 214.282 195.024C215.774 195.152 216.535 195.602 217.584 196.665C217.752 196.834 217.886 197.036 217.969 197.259C218.552 198.843 218.185 199.781 216.992 201.189C216.846 201.363 216.667 201.508 216.466 201.614C214.956 202.417 213.911 202.594 211.98 201.641C211.733 201.52 211.518 201.339 211.356 201.117Z" fill="#00E09E"/>
<path d="M188.409 163.418C179.693 159.374 175.772 158.028 170.959 157.194C170.462 157.108 169.945 157.223 169.531 157.511C154.357 168.093 153.249 184.521 155.19 197.669C155.378 198.94 156.731 199.669 157.819 198.986C160.895 197.053 163.298 194.025 167.071 188.918C170.181 184.168 170.957 183.19 178.813 183.696C183.295 183.566 184.884 182.997 186.819 181.646C186.937 181.563 187.046 181.466 187.142 181.358C189.4 178.836 190.606 176.973 191.847 170.933C191.875 170.799 191.889 170.659 191.887 170.522C191.858 167.419 191.504 165.72 188.762 163.629C188.654 163.547 188.533 163.475 188.409 163.418Z" stroke="#1A1B1F" stroke-width="2"/>
<path d="M171.567 212.16L172.499 217.489C172.553 217.801 172.457 218.121 172.239 218.351C171.814 218.798 171.891 219.521 172.406 219.859C175.556 221.924 177.85 222.923 181.94 223.615C182.048 223.633 182.158 223.642 182.267 223.642C183.266 223.639 184.711 223.578 186.373 222.424C188.061 221.252 196.124 209.865 196.743 208.988C196.771 208.948 196.794 208.913 196.819 208.871C199.153 204.974 199.535 202.779 196.951 199.16C196.84 199.005 196.704 198.867 196.552 198.752L186.487 191.093C186.411 191.035 186.331 190.982 186.247 190.937C183.366 189.357 181.502 189.157 178.033 190.43C177.784 190.521 177.556 190.668 177.361 190.848C175.367 192.691 175.134 192.208 172.586 195.532C167.693 200.667 167.95 201.819 168.138 206.41C168.376 208.265 168.868 209.344 170.794 210.884C171.195 211.205 171.479 211.654 171.567 212.16Z" stroke="#1A1B1F" stroke-width="2"/>
<path d="M216.908 190.649L220.663 192.742C221.88 193.419 223.401 192.673 223.573 191.292C224.973 180.079 223.378 174.094 217.78 166.754C217.007 165.74 215.477 165.76 214.9 166.897C213.345 169.961 213.063 173.598 212.409 178.909C211.608 185.927 213.245 187.777 216.641 190.471C216.724 190.537 216.815 190.597 216.908 190.649Z" stroke="#1A1B1F" stroke-width="2"/>
<path d="M211.356 201.117C210.369 199.758 210.25 198.801 210.723 197.198C210.777 197.016 210.86 196.844 210.971 196.69C211.74 195.622 212.406 195.23 213.917 195.032C214.038 195.016 214.161 195.013 214.282 195.024C215.774 195.152 216.535 195.602 217.584 196.665C217.752 196.834 217.886 197.036 217.969 197.259C218.552 198.843 218.185 199.781 216.992 201.189C216.846 201.363 216.667 201.508 216.466 201.614C214.956 202.417 213.911 202.594 211.98 201.641C211.733 201.52 211.518 201.339 211.356 201.117Z" stroke="#1A1B1F" stroke-width="2"/>
</g>
<path d="M193 152V137C193 110.49 214.49 89 241 89H282" stroke="#202124" stroke-width="3"/>
<defs>
<filter id="filter0_f_114_513" x="0.445068" y="0.141602" width="375.445" height="374.585" filterUnits="userSpaceOnUse" color-interpolation-filters="sRGB">
<feFlood flood-opacity="0" result="BackgroundImageFix"/>
<feBlend mode="normal" in="SourceGraphic" in2="BackgroundImageFix" result="shape"/>
<feGaussianBlur stdDeviation="82" result="effect1_foregroundBlur_114_513"/>
</filter>
</defs>
</svg>
